<svg width="70" height="70" viewBox="0 0 70 70" fill="none" xmlns="http://www.w3.org/2000/svg">
<g clip-path="url(#clip0_411_906)">
<path d="M40.5577 44.3103C42.0342 43.2321 43.159 41.7453 43.7852 40.033C44.4663 38.1709 44.5214 36.1417 43.9422 34.2463C43.363 32.3508 42.1806 30.6904 40.5708 29.5105C38.961 28.3307 37.0092 27.6938 35.0046 27.6938C32.9999 27.6938 31.0481 28.3307 29.4383 29.5105C27.8285 30.6904 26.6461 32.3508 26.0669 34.2463C25.4877 36.1417 25.5428 38.1709 26.2239 40.033C26.8501 41.7451 27.9748 43.2319 29.4511 44.3101C26.8007 45.3689 24.5138 47.1638 22.8711 49.4822C21.1367 51.9301 20.2041 54.8438 20.1992 57.8311L20.1988 58.0815H20.4492H22.8735H23.1235V57.8315C23.1235 54.7265 24.3739 51.7479 26.6008 49.5513C28.8278 47.3546 31.8489 46.1198 34.9998 46.1198C38.1506 46.1198 41.1718 47.3546 43.3988 49.5513C45.6256 51.7479 46.876 54.7265 46.876 57.8315V58.0815H47.126H49.5503H49.8007L49.8003 57.8311C49.7962 54.845 48.865 51.9321 47.1324 49.4844C45.4915 47.1661 43.2064 45.3705 40.5577 44.3103ZM35.0083 43.2285C33.7318 43.2339 32.4827 42.8654 31.4192 42.1701C30.3558 41.4749 29.526 40.4843 29.0344 39.3242C28.5428 38.1641 28.4114 36.8865 28.6567 35.653C28.902 34.4194 29.513 33.2849 30.4129 32.3934C31.3128 31.5019 32.4611 30.8935 33.7126 30.6459C34.9641 30.3983 36.2619 30.5226 37.4415 31.0031C38.621 31.4836 39.6289 32.2984 40.3378 33.3438C41.0467 34.3891 41.4249 35.6181 41.425 36.875C41.425 38.5543 40.7506 40.1658 39.5484 41.3568C38.3461 42.5479 36.7137 43.2213 35.0083 43.2285Z" fill="url(#paint0_linear_411_906)" stroke="url(#paint1_linear_411_906)" stroke-width="0.5"/>
<path d="M52.9558 38.0198C53.9704 37.2939 54.8275 36.3784 55.4752 35.3254C56.2077 34.1347 56.6533 32.7989 56.7786 31.4175C56.9038 30.0361 56.7052 28.6454 56.198 27.3489C55.6908 26.0525 54.8881 24.8843 53.8503 23.9308C52.8126 22.9773 51.5665 22.2631 50.205 21.8407C48.8436 21.4184 47.4014 21.2987 45.9858 21.4903C44.5701 21.682 43.2169 22.1802 42.0269 22.9483C40.8369 23.7164 39.8406 24.7348 39.1127 25.9281L38.9573 26.183L39.2355 26.2913C39.9863 26.5835 40.7029 26.9518 41.3733 27.39L41.5852 27.5285L41.721 27.3149C42.1408 26.6547 42.6813 26.0732 43.3164 25.5989C44.1411 24.9923 45.1037 24.5837 46.1249 24.4073C47.1464 24.2308 48.1965 24.292 49.1886 24.5855C50.1807 24.879 51.0856 25.3964 51.829 26.0942C52.5724 26.792 53.1329 27.6501 53.4651 28.5975C53.7972 29.5448 53.8917 30.5546 53.7408 31.5439C53.59 32.5332 53.198 33.4742 52.5967 34.2892C51.9953 35.1042 51.2017 35.7699 50.2807 36.2308C49.3598 36.6917 48.3384 36.9343 47.3008 36.9382C47.0778 36.9382 46.8786 36.9377 46.6918 36.9083L46.4169 36.865L46.4033 37.1429C46.3625 37.9692 46.2251 38.7885 45.9936 39.585L45.8911 39.9376L46.2568 39.9037C46.3273 39.8971 46.3964 39.8903 46.4646 39.8836C46.7495 39.8557 47.0179 39.8293 47.3004 39.8293C50.5089 39.8489 53.5787 41.091 55.8446 43.2841C58.1105 45.477 59.3901 48.4438 59.4088 51.5408L59.4103 51.7893H59.6588H62.1352H62.3857L62.3852 51.5387C62.3788 48.5511 61.4271 45.6378 59.659 43.1904C57.9849 40.873 55.6551 39.0789 52.9558 38.0198Z" fill="url(#paint2_linear_411_906)" stroke="url(#paint3_linear_411_906)" stroke-width="0.5"/>
<path d="M17.5136 37.9682C16.6403 37.2919 15.8942 36.4622 15.3118 35.5181C14.6484 34.4426 14.2116 33.2414 14.0286 31.9891C13.8455 30.7369 13.92 29.4601 14.2475 28.238C14.5749 27.0159 15.1484 25.8744 15.9324 24.8843C16.7164 23.8943 17.6942 23.0768 18.8053 22.4826C19.9163 21.8884 21.137 21.5303 22.3914 21.4304C23.6458 21.3305 24.9072 21.4911 26.0974 21.9021C27.2875 22.3131 28.381 22.9658 29.3099 23.8195L29.3141 23.8234L29.3141 23.8234C29.9268 24.4129 30.4567 25.0836 30.8892 25.8171L31.0367 26.0673L30.7674 26.1759C30.0437 26.4678 29.3533 26.8369 28.7079 27.277L28.4911 27.4248L28.3539 27.2012C27.947 26.5379 27.424 25.9544 26.8104 25.4791L26.8103 25.4791C26.0735 24.9082 25.2205 24.5084 24.3124 24.3083C23.4042 24.1082 22.4634 24.1128 21.5572 24.3216C20.651 24.5305 19.8018 24.9384 19.0704 25.5164C18.3391 26.0945 17.7437 26.8282 17.3271 27.6652C16.9104 28.5022 16.6828 29.4217 16.6606 30.3577C16.6384 31.2938 16.8222 32.2231 17.1987 33.0792C17.5753 33.9353 18.1353 34.6968 18.8384 35.3092C19.5416 35.9217 20.3705 36.37 21.2658 36.6221L21.2671 36.6224C21.8213 36.7817 22.3948 36.8629 22.9712 36.8636L17.5136 37.9682ZM17.5136 37.9682C14.9005 39.0305 12.6464 40.8341 11.0285 43.1639C9.32293 45.6199 8.40613 48.5428 8.40137 51.5389L8.40097 51.7893H8.65137H11.0356H11.2842L11.2856 51.5407C11.3037 48.4285 12.5402 45.4492 14.7264 43.249C16.9125 41.0488 19.872 39.805 22.963 39.7868L23.1315 39.7858L23.1392 39.7664C23.3529 39.7744 23.5646 39.7962 23.7848 39.8188C23.8464 39.8251 23.9086 39.8315 23.9717 39.8377L24.3344 39.8731L24.237 39.522C24.015 38.7219 23.8839 37.899 23.8461 37.0691L23.8353 36.8304H23.5964C23.4835 36.8304 23.3722 36.8393 23.2715 36.8473L23.2656 36.8478C23.1602 36.8562 23.0654 36.8635 22.9712 36.8636L17.5136 37.9682Z" fill="url(#paint4_linear_411_906)" stroke="url(#paint5_linear_411_906)" stroke-width="0.5"/>
<path d="M61.131 29.8004C62.0312 29.1166 62.8032 28.269 63.4081 27.2985C64.0954 26.1957 64.5521 24.9584 64.7495 23.6651C64.947 22.3717 64.8808 21.0503 64.5553 19.7845C64.2298 18.5188 63.6518 17.3361 62.8579 16.3116C62.0639 15.2871 61.0711 14.4431 59.9423 13.8336C58.8135 13.2242 57.5734 12.8627 56.3009 12.7724C55.0284 12.6821 53.7517 12.8651 52.552 13.3095C51.3522 13.7538 50.2559 14.4498 49.3324 15.3528L49.3324 15.3528L49.3317 15.3535C48.7201 15.9566 48.1917 16.6425 47.7608 17.3923L47.619 17.639L47.8819 17.7478C48.6057 18.0474 49.2968 18.425 49.9434 18.8745L50.1633 19.0274L50.3007 18.7976C50.7067 18.1185 51.229 17.5213 51.8418 17.0347L51.8425 17.0342C52.5463 16.4717 53.3575 16.0693 54.2226 15.8532C55.0877 15.6372 55.9873 15.6122 56.8624 15.7799C57.7375 15.9476 58.5686 16.3042 59.3007 16.8267C60.0329 17.3493 60.6497 18.0259 61.11 18.8124C61.5703 19.5989 61.8635 20.4772 61.9701 21.3894C62.0767 22.3016 61.9941 23.2267 61.728 24.1035C61.4618 24.9803 61.0182 25.7886 60.4268 26.4754C59.8353 27.1621 59.1096 27.7116 58.2977 28.088L58.1223 28.1693L58.1568 28.3595C58.2613 28.9355 58.3151 29.52 58.3175 30.106C58.3135 30.641 58.2674 31.1748 58.1797 31.7021L58.1417 31.931L58.3671 31.986C60.923 32.6091 63.2017 34.1004 64.8345 36.2209C66.4675 38.3415 67.359 40.9673 67.3638 43.6746L67.3642 43.9242H67.6138H70H70.2506L70.25 43.6736C70.2429 40.6119 69.3251 37.6252 67.619 35.1148C66.0005 32.7331 63.7458 30.8881 61.131 29.8004Z" fill="url(#paint6_linear_411_906)" stroke="url(#paint7_linear_411_906)" stroke-width="0.5"/>
<path d="M6.58447 27.3042C7.19139 28.274 7.96543 29.1206 8.86759 29.8028C6.25195 30.8893 3.9965 32.7336 2.37795 35.1149C0.671612 37.6254 -0.245236 40.6124 -0.25 43.6738L-0.250389 43.9242H0H2.38628H2.63584L2.63628 43.6746C2.64109 40.9687 3.53249 38.3443 5.16543 36.2247C6.79828 34.1053 9.07695 32.6148 11.6329 31.992L11.8617 31.9362L11.8197 31.7045C11.7248 31.1808 11.671 30.6501 11.659 30.1175C11.6697 29.5304 11.7296 28.9453 11.8382 28.3688L11.8741 28.1784L11.6986 28.0962C10.8016 27.6757 10.0123 27.0443 9.39463 26.2523C8.77691 25.4603 8.3481 24.5298 8.14317 23.5355C7.93823 22.5412 7.96299 21.5112 8.21543 20.5286C8.46786 19.546 8.94079 18.6385 9.5957 17.8789C10.2506 17.1194 11.0691 16.529 11.9851 16.1546C12.9011 15.7803 13.8894 15.6322 14.8707 15.722C15.8521 15.8118 16.7997 16.1371 17.6374 16.6722C18.4751 17.2073 19.1798 17.9375 19.6942 18.8045L19.8313 19.0356L20.0519 18.8823C20.6995 18.4321 21.392 18.0547 22.1175 17.7563L22.3818 17.6477L22.239 17.4002C21.8065 16.6507 21.2764 15.9651 20.6634 15.3625L20.6632 15.3623C19.7401 14.4572 18.6435 13.7591 17.4429 13.313C16.2423 12.8669 14.9643 12.6826 13.6903 12.7719C12.4163 12.8613 11.1747 13.2224 10.0444 13.8319C8.91417 14.4415 7.92021 15.286 7.12552 16.3113C6.33085 17.3366 5.75276 18.5204 5.42768 19.7872C5.10259 21.054 5.03755 22.3764 5.23663 23.6704C5.43571 24.9644 5.89463 26.2019 6.58447 27.3042Z" fill="url(#paint8_linear_411_906)" stroke="url(#paint9_linear_411_906)" stroke-width="0.5"/>
<path d="M41.4511 20.913L41.5202 21.2672L41.8275 21.0781C42.5283 20.6468 43.2966 20.3311 44.1016 20.1437L44.3514 20.0856L44.2869 19.8374C43.7599 17.8092 42.5602 16.012 40.8784 14.729C39.1967 13.446 37.1284 12.75 35 12.75C32.8716 12.75 30.8033 13.446 29.1216 14.729C27.4398 16.012 26.2402 17.8092 25.7131 19.8374L25.6487 20.0854L25.8982 20.1437C26.7032 20.3318 27.4714 20.6475 28.1727 21.0782L28.4801 21.267L28.5489 20.9129C28.8353 19.4395 29.635 18.1089 30.812 17.1498C31.9888 16.1909 33.4694 15.6633 34.9999 15.6584C36.5303 15.6642 38.0105 16.1921 39.1872 17.1509C40.364 18.1099 41.1639 19.44 41.4511 20.913Z" fill="url(#paint10_linear_411_906)" stroke="url(#paint11_linear_411_906)" stroke-width="0.5"/>
</g>
<defs>
<linearGradient id="paint0_linear_411_906" x1="34.9998" y1="3.57027" x2="34.9998" y2="57.4349" gradientUnits="userSpaceOnUse">
<stop stop-color="#0D6930"/>
<stop offset="1" stop-color="#8EC63F"/>
</linearGradient>
<linearGradient id="paint1_linear_411_906" x1="34.9998" y1="3.57027" x2="34.9998" y2="57.4349" gradientUnits="userSpaceOnUse">
<stop stop-color="#0D6930"/>
<stop offset="1" stop-color="#8EC63F"/>
</linearGradient>
<linearGradient id="paint2_linear_411_906" x1="50.7307" y1="-2.72196" x2="50.7307" y2="51.1427" gradientUnits="userSpaceOnUse">
<stop stop-color="#0D6930"/>
<stop offset="1" stop-color="#8EC63F"/>
</linearGradient>
<linearGradient id="paint3_linear_411_906" x1="50.7307" y1="-2.72196" x2="50.7307" y2="51.1427" gradientUnits="userSpaceOnUse">
<stop stop-color="#0D6930"/>
<stop offset="1" stop-color="#8EC63F"/>
</linearGradient>
<linearGradient id="paint4_linear_411_906" x1="19.6626" y1="-2.72196" x2="19.6626" y2="51.1427" gradientUnits="userSpaceOnUse">
<stop stop-color="#0D6930"/>
<stop offset="1" stop-color="#8EC63F"/>
</linearGradient>
<linearGradient id="paint5_linear_411_906" x1="19.6626" y1="-2.72196" x2="19.6626" y2="51.1427" gradientUnits="userSpaceOnUse">
<stop stop-color="#0D6930"/>
<stop offset="1" stop-color="#8EC63F"/>
</linearGradient>
<linearGradient id="paint6_linear_411_906" x1="58.9888" y1="-12.015" x2="58.9888" y2="43.2671" gradientUnits="userSpaceOnUse">
<stop stop-color="#0D6930"/>
<stop offset="1" stop-color="#8EC63F"/>
</linearGradient>
<linearGradient id="paint7_linear_411_906" x1="58.9888" y1="-12.015" x2="58.9888" y2="43.2671" gradientUnits="userSpaceOnUse">
<stop stop-color="#0D6930"/>
<stop offset="1" stop-color="#8EC63F"/>
</linearGradient>
<linearGradient id="paint8_linear_411_906" x1="11.0113" y1="-12.015" x2="11.0113" y2="43.2671" gradientUnits="userSpaceOnUse">
<stop stop-color="#0D6930"/>
<stop offset="1" stop-color="#8EC63F"/>
</linearGradient>
<linearGradient id="paint9_linear_411_906" x1="11.0113" y1="-12.015" x2="11.0113" y2="43.2671" gradientUnits="userSpaceOnUse">
<stop stop-color="#0D6930"/>
<stop offset="1" stop-color="#8EC63F"/>
</linearGradient>
<linearGradient id="paint10_linear_411_906" x1="35.0001" y1="6.5859" x2="35.0001" y2="20.7608" gradientUnits="userSpaceOnUse">
<stop stop-color="#0D6930"/>
<stop offset="1" stop-color="#8EC63F"/>
</linearGradient>
<linearGradient id="paint11_linear_411_906" x1="35.0001" y1="6.5859" x2="35.0001" y2="20.7608" gradientUnits="userSpaceOnUse">
<stop stop-color="#0D6930"/>
<stop offset="1" stop-color="#8EC63F"/>
</linearGradient>
<clipPath id="clip0_411_906">
<rect width="70" height="70" fill="white"/>
</clipPath>
</defs>
</svg>
