<svg width="20" height="2013" viewBox="0 0 20 2013" fill="none" xmlns="http://www.w3.org/2000/svg">
<rect x="10.1191" y="5" width="1" height="271" fill="#8EC63F"/>
<rect x="10" y="281" width="1" height="309" fill="url(#paint0_linear_351_3055)"/>
<rect x="11" y="928" width="1" height="338" transform="rotate(-180 11 928)" fill="url(#paint1_linear_351_3055)"/>
<rect x="11" y="1639" width="1" height="309" transform="rotate(-180 11 1639)" fill="url(#paint2_linear_351_3055)"/>
<rect x="12" y="2005" width="1" height="366" transform="rotate(-180 12 2005)" fill="url(#paint3_linear_351_3055)"/>
<rect x="11" y="1325" width="1" height="398" transform="rotate(-180 11 1325)" fill="url(#paint4_linear_351_3055)"/>
<circle opacity="0.3" cx="10" cy="277" r="10" fill="#8EC63F"/>
<circle opacity="0.8" cx="10" cy="277" r="6.875" fill="#8EC63F"/>
<circle cx="10" cy="277" r="4.375" fill="#149345"/>
<circle opacity="0.3" cx="10.5" cy="5.5" r="5.5" fill="#8EC63F"/>
<circle opacity="0.8" cx="10.499" cy="5.50012" r="3.78125" fill="#8EC63F"/>
<circle cx="10.5" cy="5.5" r="2.40625" fill="#149345"/>
<circle cx="10" cy="610" r="10" fill="#FFEB38" fill-opacity="0.3"/>
<circle cx="10" cy="610" r="6.875" fill="#FFEB38" fill-opacity="0.5"/>
<circle cx="10" cy="610" r="4.375" fill="#FFEB38"/>
<circle cx="10" cy="1639" r="10" fill="#FFEB38" fill-opacity="0.3"/>
<circle cx="10" cy="1639" r="6.875" fill="#FFEB38" fill-opacity="0.5"/>
<circle cx="10" cy="1639" r="4.375" fill="#FFEB38"/>
<circle opacity="0.3" cx="11.5" cy="2007.5" r="5.5" transform="rotate(-180 11.5 2007.5)" fill="#8EC63F"/>
<circle opacity="0.8" cx="11.501" cy="2007.5" r="3.78125" transform="rotate(-180 11.501 2007.5)" fill="#8EC63F"/>
<circle cx="11.5" cy="2007.5" r="2.40625" transform="rotate(-180 11.5 2007.5)" fill="#149345"/>
<circle opacity="0.3" cx="10" cy="927" r="10" fill="#3F85C6"/>
<circle opacity="0.8" cx="10" cy="927" r="6.875" fill="#3F85C6"/>
<circle cx="10" cy="927" r="4.375" fill="#144793"/>
<circle opacity="0.3" cx="10" cy="1327" r="10" fill="#8EC63F"/>
<circle opacity="0.8" cx="10" cy="1327" r="6.875" fill="#8EC63F"/>
<circle cx="10" cy="1327" r="4.375" fill="#149345"/>
<defs>
<linearGradient id="paint0_linear_351_3055" x1="10.5" y1="281" x2="10.5" y2="590" gradientUnits="userSpaceOnUse">
<stop offset="0.15625" stop-color="#8EC63F"/>
<stop offset="1" stop-color="#FFEB38"/>
</linearGradient>
<linearGradient id="paint1_linear_351_3055" x1="11.5" y1="928" x2="11.5" y2="1266" gradientUnits="userSpaceOnUse">
<stop stop-color="#5996CD"/>
<stop offset="1" stop-color="#FFEB38"/>
</linearGradient>
<linearGradient id="paint2_linear_351_3055" x1="11.5" y1="1639" x2="11.5" y2="1948" gradientUnits="userSpaceOnUse">
<stop stop-color="#FFEB38"/>
<stop offset="1" stop-color="#149345"/>
</linearGradient>
<linearGradient id="paint3_linear_351_3055" x1="12.5" y1="2005" x2="12.5" y2="2371" gradientUnits="userSpaceOnUse">
<stop stop-color="#149345"/>
<stop offset="1" stop-color="#FFEB38"/>
</linearGradient>
<linearGradient id="paint4_linear_351_3055" x1="11.5" y1="1325" x2="11.5" y2="1723" gradientUnits="userSpaceOnUse">
<stop stop-color="#9ECE5A"/>
<stop offset="1" stop-color="#5996CD"/>
</linearGradient>
</defs>
</svg>
