<svg width="40" height="1485" viewBox="0 0 40 1485" fill="none" xmlns="http://www.w3.org/2000/svg">
<rect x="19" y="10" width="2" height="304" fill="#8EC63F"/>
<rect x="19" y="314" width="2" height="449" fill="url(#paint0_linear_430_3923)"/>
<rect x="21" y="1208" width="2" height="445" transform="rotate(-180 21 1208)" fill="url(#paint1_linear_430_3923)"/>
<rect x="21" y="1476" width="2" height="259" transform="rotate(-180 21 1476)" fill="url(#paint2_linear_430_3923)"/>
<circle opacity="0.3" cx="20" cy="312" r="20" fill="#8EC63F"/>
<circle opacity="0.8" cx="20" cy="312" r="13.75" fill="#8EC63F"/>
<circle cx="20" cy="312" r="8.75" fill="#149345"/>
<circle opacity="0.3" cx="20" cy="10" r="10" fill="#8EC63F"/>
<circle opacity="0.8" cx="20" cy="10.0002" r="6.875" fill="#8EC63F"/>
<circle cx="20" cy="10" r="4.375" fill="#149345"/>
<circle cx="20" cy="762" r="20" fill="#FFEB38" fill-opacity="0.3"/>
<circle cx="20" cy="762" r="13.75" fill="#FFEB38" fill-opacity="0.5"/>
<circle cx="20" cy="762" r="8.75" fill="#FFEB38"/>
<circle opacity="0.3" cx="20" cy="1475" r="10" transform="rotate(-180 20 1475)" fill="#8EC63F"/>
<circle opacity="0.8" cx="20" cy="1475" r="6.875" transform="rotate(-180 20 1475)" fill="#8EC63F"/>
<circle cx="20" cy="1475" r="4.375" transform="rotate(-180 20 1475)" fill="#149345"/>
<circle opacity="0.3" cx="20" cy="1212" r="20" fill="#3F85C6"/>
<circle opacity="0.8" cx="20.001" cy="1212" r="13.75" fill="#3F85C6"/>
<circle cx="20" cy="1212" r="8.75" fill="#144793"/>
<defs>
<linearGradient id="paint0_linear_430_3923" x1="20" y1="314" x2="20" y2="763" gradientUnits="userSpaceOnUse">
<stop offset="0.15625" stop-color="#8EC63F"/>
<stop offset="1" stop-color="#FFEB38"/>
</linearGradient>
<linearGradient id="paint1_linear_430_3923" x1="22" y1="1208" x2="22" y2="1653" gradientUnits="userSpaceOnUse">
<stop stop-color="#5996CD"/>
<stop offset="1" stop-color="#FFEB38"/>
</linearGradient>
<linearGradient id="paint2_linear_430_3923" x1="22" y1="1476" x2="22" y2="1735" gradientUnits="userSpaceOnUse">
<stop stop-color="#9ECE5A"/>
<stop offset="1" stop-color="#5996CD"/>
</linearGradient>
</defs>
</svg>
