<svg width="64" height="66" viewBox="0 0 64 66" fill="none" xmlns="http://www.w3.org/2000/svg">
<circle opacity="0.3" cx="32.375" cy="12.7969" r="12.5" fill="#3F85C6"/>
<circle opacity="0.8" cx="32.375" cy="12.7974" r="8.59375" fill="#3F85C6"/>
<circle cx="32.375" cy="12.7969" r="5.46875" fill="#144793"/>
<path d="M10.5254 59.2969L9.26855 55.7285H4.35547L3.09863 59.2969H0.875L5.65625 46.3945H7.99414L12.7666 59.2969H10.5254ZM8.72363 53.918L7.50195 50.4023C7.45508 50.25 7.3877 50.0361 7.2998 49.7607C7.21191 49.4795 7.12402 49.1953 7.03613 48.9082C6.94824 48.6152 6.875 48.3691 6.81641 48.1699C6.75781 48.4102 6.68457 48.6797 6.59668 48.9785C6.51465 49.2715 6.43262 49.5469 6.35059 49.8047C6.27441 50.0625 6.21582 50.2617 6.1748 50.4023L4.94434 53.918H8.72363ZM18.1719 59.4727C17.252 59.4727 16.4551 59.2939 15.7812 58.9365C15.1074 58.5791 14.5889 58.0312 14.2256 57.293C13.8623 56.5547 13.6807 55.6172 13.6807 54.4805C13.6807 53.2969 13.8799 52.3301 14.2783 51.5801C14.6768 50.8301 15.2275 50.2764 15.9307 49.9189C16.6396 49.5615 17.4512 49.3828 18.3652 49.3828C18.9453 49.3828 19.4697 49.4414 19.9385 49.5586C20.4131 49.6699 20.8145 49.8076 21.1426 49.9717L20.5273 51.624C20.1699 51.4775 19.8037 51.3545 19.4287 51.2549C19.0537 51.1553 18.6934 51.1055 18.3477 51.1055C17.7793 51.1055 17.3047 51.2314 16.9238 51.4834C16.5488 51.7354 16.2676 52.1104 16.0801 52.6084C15.8984 53.1064 15.8076 53.7246 15.8076 54.4629C15.8076 55.1777 15.9014 55.7812 16.0889 56.2734C16.2764 56.7598 16.5547 57.1289 16.9238 57.3809C17.293 57.627 17.7471 57.75 18.2861 57.75C18.8193 57.75 19.2969 57.6855 19.7188 57.5566C20.1406 57.4277 20.5391 57.2607 20.9141 57.0557V58.8486C20.5449 59.0596 20.1494 59.2148 19.7275 59.3145C19.3057 59.4199 18.7871 59.4727 18.1719 59.4727ZM30.5469 51.1934H27.3477V59.2969H25.291V51.1934H22.1094V49.5674H30.5469V51.1934ZM36.2422 49.3828C37.4727 49.3828 38.4014 49.6553 39.0283 50.2002C39.6611 50.7451 39.9775 51.5947 39.9775 52.749V59.2969H38.5098L38.1143 57.917H38.0439C37.7686 58.2686 37.4844 58.5586 37.1914 58.7871C36.8984 59.0156 36.5586 59.1855 36.1719 59.2969C35.791 59.4141 35.3252 59.4727 34.7744 59.4727C34.1943 59.4727 33.6758 59.3672 33.2188 59.1562C32.7617 58.9395 32.4014 58.6113 32.1377 58.1719C31.874 57.7324 31.7422 57.1758 31.7422 56.502C31.7422 55.5 32.1143 54.7471 32.8584 54.2432C33.6084 53.7393 34.7393 53.4609 36.251 53.4082L37.9385 53.3467V52.8369C37.9385 52.1631 37.7803 51.6826 37.4639 51.3955C37.1533 51.1084 36.7139 50.9648 36.1455 50.9648C35.6592 50.9648 35.1875 51.0352 34.7305 51.1758C34.2734 51.3164 33.8281 51.4893 33.3945 51.6943L32.7266 50.2354C33.2012 49.9834 33.7402 49.7783 34.3438 49.6201C34.9531 49.4619 35.5859 49.3828 36.2422 49.3828ZM37.9297 54.6475L36.6729 54.6914C35.6416 54.7266 34.918 54.9023 34.502 55.2188C34.0859 55.5352 33.8779 55.9688 33.8779 56.5195C33.8779 57 34.0215 57.3516 34.3086 57.5742C34.5957 57.791 34.9736 57.8994 35.4424 57.8994C36.1572 57.8994 36.749 57.6973 37.2178 57.293C37.6924 56.8828 37.9297 56.2822 37.9297 55.4912V54.6475ZM44.9434 49.5674V53.4785H49.4961V49.5674H51.5703V59.2969H49.4961V55.0957H44.9434V59.2969H42.8691V49.5674H44.9434ZM58.3379 49.3828C59.5684 49.3828 60.4971 49.6553 61.124 50.2002C61.7568 50.7451 62.0732 51.5947 62.0732 52.749V59.2969H60.6055L60.21 57.917H60.1396C59.8643 58.2686 59.5801 58.5586 59.2871 58.7871C58.9941 59.0156 58.6543 59.1855 58.2676 59.2969C57.8867 59.4141 57.4209 59.4727 56.8701 59.4727C56.29 59.4727 55.7715 59.3672 55.3145 59.1562C54.8574 58.9395 54.4971 58.6113 54.2334 58.1719C53.9697 57.7324 53.8379 57.1758 53.8379 56.502C53.8379 55.5 54.21 54.7471 54.9541 54.2432C55.7041 53.7393 56.835 53.4609 58.3467 53.4082L60.0342 53.3467V52.8369C60.0342 52.1631 59.876 51.6826 59.5596 51.3955C59.249 51.1084 58.8096 50.9648 58.2412 50.9648C57.7549 50.9648 57.2832 51.0352 56.8262 51.1758C56.3691 51.3164 55.9238 51.4893 55.4902 51.6943L54.8223 50.2354C55.2969 49.9834 55.8359 49.7783 56.4395 49.6201C57.0488 49.4619 57.6816 49.3828 58.3379 49.3828ZM60.0254 54.6475L58.7686 54.6914C57.7373 54.7266 57.0137 54.9023 56.5977 55.2188C56.1816 55.5352 55.9736 55.9688 55.9736 56.5195C55.9736 57 56.1172 57.3516 56.4043 57.5742C56.6914 57.791 57.0693 57.8994 57.5381 57.8994C58.2529 57.8994 58.8447 57.6973 59.3135 57.293C59.7881 56.8828 60.0254 56.2822 60.0254 55.4912V54.6475Z" fill="#231F1F"/>
</svg>
