<svg width="73" height="66" viewBox="0 0 73 66" fill="none" xmlns="http://www.w3.org/2000/svg">
<path d="M2.5625 19.0327V6.18311H10.4023V7.96729H4.67188V11.3774H6.20996C7.42871 11.3774 8.40723 11.5386 9.14551 11.8608C9.88379 12.1772 10.417 12.6196 10.7451 13.188C11.0732 13.7563 11.2373 14.4097 11.2373 15.1479C11.2373 16.3726 10.8477 17.3276 10.0684 18.0132C9.29492 18.6929 8.03809 19.0327 6.29785 19.0327H2.5625ZM4.67188 17.2749H6.16602C7.15625 17.2749 7.8916 17.1079 8.37207 16.7739C8.85254 16.4341 9.09277 15.8921 9.09277 15.1479C9.09277 14.6265 8.97559 14.2222 8.74121 13.9351C8.50684 13.6421 8.15527 13.437 7.68652 13.3198C7.22363 13.2026 6.6377 13.144 5.92871 13.144H4.67188V17.2749ZM15.5879 9.30322V14.269C15.5879 14.4272 15.582 14.6294 15.5703 14.8755C15.5645 15.1157 15.5527 15.3677 15.5352 15.6313C15.5176 15.8892 15.5 16.1265 15.4824 16.3433C15.4648 16.5601 15.4502 16.7212 15.4385 16.8267L20.334 9.30322H22.8477V19.0327H20.8701V14.1196C20.8701 13.8618 20.876 13.563 20.8877 13.2231C20.9053 12.8833 20.9229 12.5552 20.9404 12.2388C20.9639 11.9224 20.9785 11.6821 20.9844 11.5181L16.1064 19.0327H13.6016V9.30322H15.5879ZM39.5908 9.30322V19.0327H25.8184V9.30322H27.8838V17.4067H31.6631V9.30322H33.7373V17.4067H37.5254V9.30322H39.5908ZM48.582 9.30322H50.8584L46.833 13.979L51.2012 19.0327H48.8193L44.627 14.0933V19.0327H42.5527V9.30322H44.627V14.0229L48.582 9.30322ZM56.6592 9.11865C57.5264 9.11865 58.2705 9.29736 58.8916 9.65479C59.5127 10.0122 59.9902 10.519 60.3242 11.1753C60.6582 11.8315 60.8252 12.6167 60.8252 13.5308V14.6382H54.3301C54.3535 15.5815 54.6055 16.3081 55.0859 16.8179C55.5723 17.3276 56.252 17.5825 57.125 17.5825C57.7461 17.5825 58.3027 17.5239 58.7949 17.4067C59.293 17.2837 59.8057 17.105 60.333 16.8706V18.5493C59.8467 18.7778 59.3516 18.9448 58.8477 19.0503C58.3438 19.1558 57.7402 19.2085 57.0371 19.2085C56.082 19.2085 55.2412 19.0239 54.5146 18.6548C53.7939 18.2798 53.2285 17.7231 52.8184 16.9849C52.4141 16.2466 52.2119 15.3296 52.2119 14.2339C52.2119 13.144 52.3965 12.2183 52.7656 11.4565C53.1348 10.6948 53.6533 10.1147 54.3213 9.71631C54.9893 9.31787 55.7686 9.11865 56.6592 9.11865ZM56.6592 10.6743C56.0088 10.6743 55.4814 10.8853 55.0771 11.3071C54.6787 11.729 54.4443 12.3472 54.374 13.1616H58.8037C58.7979 12.6753 58.7158 12.2446 58.5576 11.8696C58.4053 11.4946 58.1709 11.2017 57.8545 10.9907C57.5439 10.7798 57.1455 10.6743 56.6592 10.6743ZM69.1836 9.30322H71.46L67.4346 13.979L71.8027 19.0327H69.4209L65.2285 14.0933V19.0327H63.1543V9.30322H65.2285V14.0229L69.1836 9.30322Z" fill="#231F1F"/>
<circle opacity="0.3" cx="36.875" cy="52.5327" r="12.5" fill="#7A3FC6"/>
<circle opacity="0.8" cx="36.875" cy="52.5332" r="8.59375" fill="#7A3FC6"/>
<circle cx="36.875" cy="52.5327" r="5.46875" fill="#4C1493"/>
</svg>
