<svg width="99" height="66" viewBox="0 0 99 66" fill="none" xmlns="http://www.w3.org/2000/svg">
<circle opacity="0.3" cx="49.875" cy="13.4731" r="12.5" fill="#C84534" fill-opacity="0.5"/>
<circle opacity="0.8" cx="49.875" cy="13.4736" r="8.59375" fill="#C84534" fill-opacity="0.5"/>
<circle cx="49.875" cy="13.4731" r="5.46875" fill="#C84534"/>
<path d="M12.4062 59.9731H9.9541L4.67188 53.4517V59.9731H2.5625V47.1235H4.67188V53.3462L9.85742 47.1235H12.1602L6.97461 53.3286L12.4062 59.9731ZM18.8926 50.0591C20.0469 50.0591 20.9727 50.481 21.6699 51.3247C22.373 52.1685 22.7246 53.4224 22.7246 55.0864C22.7246 56.188 22.5605 57.1167 22.2324 57.8726C21.9102 58.6226 21.4561 59.1909 20.8701 59.5776C20.29 59.9585 19.6133 60.1489 18.8398 60.1489C18.3477 60.1489 17.9199 60.0845 17.5566 59.9556C17.1934 59.8267 16.8828 59.6597 16.625 59.4546C16.3672 59.2437 16.1504 59.0151 15.9746 58.769H15.8516C15.8809 59.0034 15.9072 59.2642 15.9307 59.5513C15.96 59.8325 15.9746 60.0903 15.9746 60.3247V64.2886H13.9004V50.2437H15.5879L15.8779 51.5884H15.9746C16.1562 51.313 16.376 51.0581 16.6338 50.8237C16.8975 50.5894 17.2139 50.4048 17.583 50.27C17.958 50.1294 18.3945 50.0591 18.8926 50.0591ZM18.3389 51.7466C17.7705 51.7466 17.3135 51.8608 16.9678 52.0894C16.6279 52.312 16.3789 52.6489 16.2207 53.1001C16.0684 53.5513 15.9863 54.1167 15.9746 54.7964V55.0864C15.9746 55.8071 16.0479 56.4194 16.1943 56.9233C16.3467 57.4214 16.5957 57.8022 16.9414 58.0659C17.293 58.3237 17.7676 58.4526 18.3652 58.4526C18.8691 58.4526 19.2852 58.3149 19.6133 58.0396C19.9473 57.7642 20.1963 57.3716 20.3604 56.8618C20.5244 56.3521 20.6064 55.7515 20.6064 55.0601C20.6064 54.0112 20.4189 53.1968 20.0439 52.6167C19.6748 52.0366 19.1064 51.7466 18.3389 51.7466ZM28.9297 50.0591C30.1602 50.0591 31.0889 50.3315 31.7158 50.8765C32.3486 51.4214 32.665 52.271 32.665 53.4253V59.9731H31.1973L30.8018 58.5933H30.7314C30.4561 58.9448 30.1719 59.2349 29.8789 59.4634C29.5859 59.6919 29.2461 59.8618 28.8594 59.9731C28.4785 60.0903 28.0127 60.1489 27.4619 60.1489C26.8818 60.1489 26.3633 60.0435 25.9062 59.8325C25.4492 59.6157 25.0889 59.2876 24.8252 58.8481C24.5615 58.4087 24.4297 57.8521 24.4297 57.1782C24.4297 56.1763 24.8018 55.4233 25.5459 54.9194C26.2959 54.4155 27.4268 54.1372 28.9385 54.0845L30.626 54.0229V53.5132C30.626 52.8394 30.4678 52.3589 30.1514 52.0718C29.8408 51.7847 29.4014 51.6411 28.833 51.6411C28.3467 51.6411 27.875 51.7114 27.418 51.8521C26.9609 51.9927 26.5156 52.1655 26.082 52.3706L25.4141 50.9116C25.8887 50.6597 26.4277 50.4546 27.0312 50.2964C27.6406 50.1382 28.2734 50.0591 28.9297 50.0591ZM30.6172 55.3237L29.3604 55.3677C28.3291 55.4028 27.6055 55.5786 27.1895 55.895C26.7734 56.2114 26.5654 56.645 26.5654 57.1958C26.5654 57.6763 26.709 58.0278 26.9961 58.2505C27.2832 58.4673 27.6611 58.5757 28.1299 58.5757C28.8447 58.5757 29.4365 58.3735 29.9053 57.9692C30.3799 57.5591 30.6172 56.9585 30.6172 56.1675V55.3237ZM39.4766 60.1489C38.5566 60.1489 37.7598 59.9702 37.0859 59.6128C36.4121 59.2554 35.8936 58.7075 35.5303 57.9692C35.167 57.231 34.9854 56.2935 34.9854 55.1567C34.9854 53.9731 35.1846 53.0063 35.583 52.2563C35.9814 51.5063 36.5322 50.9526 37.2354 50.5952C37.9443 50.2378 38.7559 50.0591 39.6699 50.0591C40.25 50.0591 40.7744 50.1177 41.2432 50.2349C41.7178 50.3462 42.1191 50.4839 42.4473 50.6479L41.832 52.3003C41.4746 52.1538 41.1084 52.0308 40.7334 51.9312C40.3584 51.8315 39.998 51.7817 39.6523 51.7817C39.084 51.7817 38.6094 51.9077 38.2285 52.1597C37.8535 52.4116 37.5723 52.7866 37.3848 53.2847C37.2031 53.7827 37.1123 54.4009 37.1123 55.1392C37.1123 55.854 37.2061 56.4575 37.3936 56.9497C37.5811 57.436 37.8594 57.8052 38.2285 58.0571C38.5977 58.3032 39.0518 58.4263 39.5908 58.4263C40.124 58.4263 40.6016 58.3618 41.0234 58.2329C41.4453 58.104 41.8438 57.937 42.2188 57.7319V59.5249C41.8496 59.7358 41.4541 59.8911 41.0322 59.9907C40.6104 60.0962 40.0918 60.1489 39.4766 60.1489ZM46.5781 50.2437V54.1548H51.1309V50.2437H53.2051V59.9731H51.1309V55.772H46.5781V59.9731H44.5039V50.2437H46.5781ZM64.7715 55.0864C64.7715 55.895 64.666 56.6128 64.4551 57.2397C64.2441 57.8667 63.9365 58.397 63.5322 58.8306C63.1279 59.2583 62.6416 59.5864 62.0732 59.8149C61.5049 60.0376 60.8633 60.1489 60.1484 60.1489C59.4805 60.1489 58.8682 60.0376 58.3115 59.8149C57.7549 59.5864 57.2715 59.2583 56.8613 58.8306C56.457 58.397 56.1436 57.8667 55.9209 57.2397C55.6982 56.6128 55.5869 55.895 55.5869 55.0864C55.5869 54.0142 55.7715 53.106 56.1406 52.3618C56.5156 51.6118 57.0488 51.0405 57.7402 50.6479C58.4316 50.2554 59.2549 50.0591 60.21 50.0591C61.1064 50.0591 61.8975 50.2554 62.583 50.6479C63.2686 51.0405 63.8047 51.6118 64.1914 52.3618C64.5781 53.1118 64.7715 54.02 64.7715 55.0864ZM57.7139 55.0864C57.7139 55.7954 57.7988 56.4019 57.9688 56.9058C58.1445 57.4097 58.4141 57.7964 58.7773 58.0659C59.1406 58.3296 59.6094 58.4614 60.1836 58.4614C60.7578 58.4614 61.2266 58.3296 61.5898 58.0659C61.9531 57.7964 62.2197 57.4097 62.3896 56.9058C62.5596 56.4019 62.6445 55.7954 62.6445 55.0864C62.6445 54.3774 62.5596 53.7769 62.3896 53.2847C62.2197 52.7866 61.9531 52.4087 61.5898 52.1509C61.2266 51.8872 60.7549 51.7554 60.1748 51.7554C59.3193 51.7554 58.6953 52.0425 58.3027 52.6167C57.9102 53.1909 57.7139 54.0142 57.7139 55.0864ZM75.0898 50.2437V58.3735H76.4961V63.4009H74.5889V59.9731H67.874V63.4009H65.9668V58.3735H66.7578C67.25 57.6587 67.6602 56.8618 67.9883 55.9829C68.3223 55.104 68.5801 54.1782 68.7617 53.2056C68.9492 52.2271 69.0664 51.2397 69.1133 50.2437H75.0898ZM73.042 51.8257H70.8887C70.8184 52.6167 70.6982 53.4048 70.5283 54.1899C70.3584 54.9692 70.1387 55.7163 69.8691 56.4312C69.6055 57.1401 69.2891 57.7876 68.9199 58.3735H73.042V51.8257ZM82.1211 50.0591C83.3516 50.0591 84.2803 50.3315 84.9072 50.8765C85.54 51.4214 85.8564 52.271 85.8564 53.4253V59.9731H84.3887L83.9932 58.5933H83.9229C83.6475 58.9448 83.3633 59.2349 83.0703 59.4634C82.7773 59.6919 82.4375 59.8618 82.0508 59.9731C81.6699 60.0903 81.2041 60.1489 80.6533 60.1489C80.0732 60.1489 79.5547 60.0435 79.0977 59.8325C78.6406 59.6157 78.2803 59.2876 78.0166 58.8481C77.7529 58.4087 77.6211 57.8521 77.6211 57.1782C77.6211 56.1763 77.9932 55.4233 78.7373 54.9194C79.4873 54.4155 80.6182 54.1372 82.1299 54.0845L83.8174 54.0229V53.5132C83.8174 52.8394 83.6592 52.3589 83.3428 52.0718C83.0322 51.7847 82.5928 51.6411 82.0244 51.6411C81.5381 51.6411 81.0664 51.7114 80.6094 51.8521C80.1523 51.9927 79.707 52.1655 79.2734 52.3706L78.6055 50.9116C79.0801 50.6597 79.6191 50.4546 80.2227 50.2964C80.832 50.1382 81.4648 50.0591 82.1211 50.0591ZM83.8086 55.3237L82.5518 55.3677C81.5205 55.4028 80.7969 55.5786 80.3809 55.895C79.9648 56.2114 79.7568 56.645 79.7568 57.1958C79.7568 57.6763 79.9004 58.0278 80.1875 58.2505C80.4746 58.4673 80.8525 58.5757 81.3213 58.5757C82.0361 58.5757 82.6279 58.3735 83.0967 57.9692C83.5713 57.5591 83.8086 56.9585 83.8086 56.1675V55.3237ZM93.7402 50.0591C94.8945 50.0591 95.8203 50.481 96.5176 51.3247C97.2207 52.1685 97.5723 53.4224 97.5723 55.0864C97.5723 56.188 97.4082 57.1167 97.0801 57.8726C96.7578 58.6226 96.3037 59.1909 95.7178 59.5776C95.1377 59.9585 94.4609 60.1489 93.6875 60.1489C93.1953 60.1489 92.7676 60.0845 92.4043 59.9556C92.041 59.8267 91.7305 59.6597 91.4727 59.4546C91.2148 59.2437 90.998 59.0151 90.8223 58.769H90.6992C90.7285 59.0034 90.7549 59.2642 90.7783 59.5513C90.8076 59.8325 90.8223 60.0903 90.8223 60.3247V64.2886H88.748V50.2437H90.4355L90.7256 51.5884H90.8223C91.0039 51.313 91.2236 51.0581 91.4814 50.8237C91.7451 50.5894 92.0615 50.4048 92.4307 50.27C92.8057 50.1294 93.2422 50.0591 93.7402 50.0591ZM93.1865 51.7466C92.6182 51.7466 92.1611 51.8608 91.8154 52.0894C91.4756 52.312 91.2266 52.6489 91.0684 53.1001C90.916 53.5513 90.834 54.1167 90.8223 54.7964V55.0864C90.8223 55.8071 90.8955 56.4194 91.042 56.9233C91.1943 57.4214 91.4434 57.8022 91.7891 58.0659C92.1406 58.3237 92.6152 58.4526 93.2129 58.4526C93.7168 58.4526 94.1328 58.3149 94.4609 58.0396C94.7949 57.7642 95.0439 57.3716 95.208 56.8618C95.3721 56.3521 95.4541 55.7515 95.4541 55.0601C95.4541 54.0112 95.2666 53.1968 94.8916 52.6167C94.5225 52.0366 93.9541 51.7466 93.1865 51.7466Z" fill="#231F1F"/>
</svg>
