<svg width="70" height="65" viewBox="0 0 70 65" fill="none" xmlns="http://www.w3.org/2000/svg">
<path d="M8.1084 19L4.4082 8.26855H4.3291C4.34668 8.50879 4.36719 8.83691 4.39062 9.25293C4.41406 9.66895 4.43457 10.1143 4.45215 10.5889C4.46973 11.0635 4.47852 11.5176 4.47852 11.9512V19H2.5625V6.15039H5.52441L9.08398 16.4072H9.13672L12.8193 6.15039H15.7725V19H13.7598V11.8457C13.7598 11.4531 13.7656 11.0283 13.7773 10.5713C13.7949 10.1143 13.8125 9.68066 13.8301 9.27051C13.8535 8.86035 13.8711 8.53223 13.8828 8.28613H13.8125L9.97168 19H8.1084ZM27.5586 14.1133C27.5586 14.9219 27.4531 15.6396 27.2422 16.2666C27.0312 16.8936 26.7236 17.4238 26.3193 17.8574C25.915 18.2852 25.4287 18.6133 24.8604 18.8418C24.292 19.0645 23.6504 19.1758 22.9355 19.1758C22.2676 19.1758 21.6553 19.0645 21.0986 18.8418C20.542 18.6133 20.0586 18.2852 19.6484 17.8574C19.2441 17.4238 18.9307 16.8936 18.708 16.2666C18.4854 15.6396 18.374 14.9219 18.374 14.1133C18.374 13.041 18.5586 12.1328 18.9277 11.3887C19.3027 10.6387 19.8359 10.0674 20.5273 9.6748C21.2188 9.28223 22.042 9.08594 22.9971 9.08594C23.8936 9.08594 24.6846 9.28223 25.3701 9.6748C26.0557 10.0674 26.5918 10.6387 26.9785 11.3887C27.3652 12.1387 27.5586 13.0469 27.5586 14.1133ZM20.501 14.1133C20.501 14.8223 20.5859 15.4287 20.7559 15.9326C20.9316 16.4365 21.2012 16.8232 21.5645 17.0928C21.9277 17.3564 22.3965 17.4883 22.9707 17.4883C23.5449 17.4883 24.0137 17.3564 24.377 17.0928C24.7402 16.8232 25.0068 16.4365 25.1768 15.9326C25.3467 15.4287 25.4316 14.8223 25.4316 14.1133C25.4316 13.4043 25.3467 12.8037 25.1768 12.3115C25.0068 11.8135 24.7402 11.4355 24.377 11.1777C24.0137 10.9141 23.542 10.7822 22.9619 10.7822C22.1064 10.7822 21.4824 11.0693 21.0898 11.6436C20.6973 12.2178 20.501 13.041 20.501 14.1133ZM33.8516 19.1758C32.9316 19.1758 32.1348 18.9971 31.4609 18.6396C30.7871 18.2822 30.2686 17.7344 29.9053 16.9961C29.542 16.2578 29.3604 15.3203 29.3604 14.1836C29.3604 13 29.5596 12.0332 29.958 11.2832C30.3564 10.5332 30.9072 9.97949 31.6104 9.62207C32.3193 9.26465 33.1309 9.08594 34.0449 9.08594C34.625 9.08594 35.1494 9.14453 35.6182 9.26172C36.0928 9.37305 36.4941 9.51074 36.8223 9.6748L36.207 11.3271C35.8496 11.1807 35.4834 11.0576 35.1084 10.958C34.7334 10.8584 34.373 10.8086 34.0273 10.8086C33.459 10.8086 32.9844 10.9346 32.6035 11.1865C32.2285 11.4385 31.9473 11.8135 31.7598 12.3115C31.5781 12.8096 31.4873 13.4277 31.4873 14.166C31.4873 14.8809 31.5811 15.4844 31.7686 15.9766C31.9561 16.4629 32.2344 16.832 32.6035 17.084C32.9727 17.3301 33.4268 17.4531 33.9658 17.4531C34.499 17.4531 34.9766 17.3887 35.3984 17.2598C35.8203 17.1309 36.2188 16.9639 36.5938 16.7588V18.5518C36.2246 18.7627 35.8291 18.918 35.4072 19.0176C34.9854 19.123 34.4668 19.1758 33.8516 19.1758ZM44.9082 9.27051H47.1846L43.1592 13.9463L47.5273 19H45.1455L40.9531 14.0605V19H38.8789V9.27051H40.9531V13.9902L44.9082 9.27051ZM57.292 11.7666C57.292 12.3291 57.1191 12.7891 56.7734 13.1465C56.4336 13.498 55.9648 13.7295 55.3672 13.8408V13.9111C56.0059 13.9932 56.5391 14.2188 56.9668 14.5879C57.3945 14.957 57.6084 15.4697 57.6084 16.126C57.6084 16.6826 57.4678 17.1777 57.1865 17.6113C56.9111 18.0391 56.4717 18.3789 55.8682 18.6309C55.2705 18.877 54.4883 19 53.5215 19H49.1094V9.27051H53.5039C54.2305 9.27051 54.8779 9.34961 55.4463 9.50781C56.0205 9.66602 56.4717 9.92676 56.7998 10.29C57.1279 10.6533 57.292 11.1455 57.292 11.7666ZM55.4551 16.0557C55.4551 15.5752 55.2705 15.2295 54.9014 15.0186C54.5381 14.8076 54.0049 14.7021 53.3018 14.7021H51.1836V17.4795H53.3457C54.002 17.4795 54.5176 17.3711 54.8926 17.1543C55.2676 16.9316 55.4551 16.5654 55.4551 16.0557ZM55.1914 11.9512C55.1914 11.5703 55.0479 11.2891 54.7607 11.1074C54.4736 10.9199 54.0225 10.8262 53.4072 10.8262H51.1836V13.1816H53.126C53.8057 13.1816 54.3184 13.085 54.6641 12.8916C55.0156 12.6924 55.1914 12.3789 55.1914 11.9512ZM63.752 9.08594C64.9824 9.08594 65.9111 9.3584 66.5381 9.90332C67.1709 10.4482 67.4873 11.2979 67.4873 12.4521V19H66.0195L65.624 17.6201H65.5537C65.2783 17.9717 64.9941 18.2617 64.7012 18.4902C64.4082 18.7188 64.0684 18.8887 63.6816 19C63.3008 19.1172 62.835 19.1758 62.2842 19.1758C61.7041 19.1758 61.1855 19.0703 60.7285 18.8594C60.2715 18.6426 59.9111 18.3145 59.6475 17.875C59.3838 17.4355 59.252 16.8789 59.252 16.2051C59.252 15.2031 59.624 14.4502 60.3682 13.9463C61.1182 13.4424 62.249 13.1641 63.7607 13.1113L65.4482 13.0498V12.54C65.4482 11.8662 65.29 11.3857 64.9736 11.0986C64.6631 10.8115 64.2236 10.668 63.6553 10.668C63.1689 10.668 62.6973 10.7383 62.2402 10.8789C61.7832 11.0195 61.3379 11.1924 60.9043 11.3975L60.2363 9.93848C60.7109 9.68652 61.25 9.48145 61.8535 9.32324C62.4629 9.16504 63.0957 9.08594 63.752 9.08594ZM65.4395 14.3506L64.1826 14.3945C63.1514 14.4297 62.4277 14.6055 62.0117 14.9219C61.5957 15.2383 61.3877 15.6719 61.3877 16.2227C61.3877 16.7031 61.5312 17.0547 61.8184 17.2773C62.1055 17.4941 62.4834 17.6025 62.9521 17.6025C63.667 17.6025 64.2588 17.4004 64.7275 16.9961C65.2021 16.5859 65.4395 15.9854 65.4395 15.1943V14.3506Z" fill="#231F1F"/>
<circle cx="35.375" cy="52.5" r="12.5" fill="#FFED47" fill-opacity="0.5"/>
<circle cx="35.375" cy="52.5005" r="8.59375" fill="#FFEA2C"/>
<circle cx="35.375" cy="52.5" r="5.46875" fill="#F1DA00"/>
</svg>
