<svg width="364" height="1220" viewBox="0 0 364 1220" fill="none" xmlns="http://www.w3.org/2000/svg">
<path opacity="0.6" d="M1.87486 858L0.875895 857.954L1.87486 858ZM16.3746 399.5L17.3746 399.51L16.3746 399.5ZM188.875 138L189.872 137.933L188.875 138ZM360.334 0.111816C359.844 -0.141968 359.24 0.0499268 358.986 0.540527C358.733 1.03101 358.925 1.6344 359.415 1.88818L360.334 0.111816ZM281.768 1214.93C281.955 1214.41 281.686 1213.83 281.166 1213.65C280.647 1213.46 280.074 1213.73 279.886 1214.25L281.768 1214.93ZM283.121 1204.66C282.956 1205.19 283.249 1205.75 283.776 1205.91C284.303 1206.08 284.864 1205.79 285.029 1205.26L283.121 1204.66ZM287.824 1195.6C287.965 1195.07 287.647 1194.52 287.113 1194.38C286.579 1194.24 286.032 1194.56 285.89 1195.09L287.824 1195.6ZM288.242 1185.21C288.128 1185.75 288.474 1186.28 289.014 1186.39C289.555 1186.5 290.085 1186.16 290.199 1185.62L288.242 1185.21ZM292.005 1175.72C292.089 1175.17 291.715 1174.66 291.169 1174.58C290.623 1174.49 290.113 1174.87 290.029 1175.41L292.005 1175.72ZM291.265 1165.36C291.214 1165.91 291.619 1166.4 292.169 1166.45C292.719 1166.5 293.206 1166.1 293.257 1165.55L291.265 1165.36ZM293.853 1155.43C293.867 1154.88 293.431 1154.42 292.879 1154.41C292.327 1154.39 291.868 1154.83 291.854 1155.38L293.853 1155.43ZM291.76 1145.34C291.785 1145.9 292.252 1146.32 292.804 1146.3C293.356 1146.27 293.783 1145.81 293.758 1145.25L291.76 1145.34ZM292.917 1135.08C292.851 1134.53 292.353 1134.14 291.804 1134.21C291.256 1134.28 290.865 1134.77 290.932 1135.32L292.917 1135.08ZM289.356 1125.5C289.464 1126.04 289.992 1126.39 290.533 1126.28C291.074 1126.17 291.425 1125.65 291.317 1125.1L289.356 1125.5ZM288.897 1115.14C288.745 1114.61 288.192 1114.3 287.661 1114.45C287.13 1114.6 286.822 1115.16 286.974 1115.69L288.897 1115.14ZM283.84 1106.18C284.034 1106.7 284.61 1106.96 285.127 1106.77C285.644 1106.57 285.907 1106 285.713 1105.48L283.84 1106.18ZM281.77 1096.09C281.536 1095.59 280.941 1095.37 280.441 1095.61C279.94 1095.84 279.724 1096.43 279.957 1096.94L281.77 1096.09ZM275.373 1088.01C275.643 1088.49 276.253 1088.66 276.734 1088.39C277.216 1088.12 277.387 1087.51 277.117 1087.03L275.373 1088.01ZM271.821 1078.33C271.517 1077.87 270.897 1077.74 270.436 1078.05C269.974 1078.35 269.846 1078.97 270.15 1079.43L271.821 1078.33ZM264.348 1071.22C264.681 1071.66 265.308 1071.75 265.748 1071.42C266.189 1071.08 266.276 1070.46 265.943 1070.01L264.348 1071.22ZM259.574 1062.1C259.215 1061.68 258.584 1061.63 258.164 1061.99C257.744 1062.35 257.694 1062.98 258.053 1063.4L259.574 1062.1ZM251.296 1055.92C251.677 1056.32 252.31 1056.33 252.709 1055.95C253.109 1055.57 253.125 1054.94 252.744 1054.54L251.296 1055.92ZM245.561 1047.36C245.161 1046.98 244.528 1047 244.147 1047.4C243.766 1047.8 243.782 1048.43 244.181 1048.81L245.561 1047.36ZM236.739 1042.03C237.155 1042.39 237.787 1042.35 238.15 1041.93C238.513 1041.52 238.471 1040.89 238.055 1040.52L236.739 1042.03ZM230.249 1033.98C229.82 1033.63 229.19 1033.7 228.843 1034.13C228.496 1034.55 228.564 1035.18 228.993 1035.53L230.249 1033.98ZM221.062 1029.35C221.503 1029.69 222.13 1029.6 222.462 1029.16C222.794 1028.71 222.706 1028.09 222.265 1027.76L221.062 1029.35ZM214.048 1021.77C213.597 1021.45 212.973 1021.56 212.654 1022.01C212.336 1022.46 212.443 1023.08 212.894 1023.4L214.048 1021.77ZM204.578 1017.69C205.037 1018 205.658 1017.88 205.965 1017.42C206.271 1016.96 206.147 1016.34 205.688 1016.03L204.578 1017.69ZM197.187 1010.5C196.721 1010.2 196.103 1010.34 195.807 1010.81C195.511 1011.27 195.649 1011.89 196.115 1012.19L197.187 1010.5ZM187.522 1006.86C187.994 1007.14 188.609 1006.99 188.896 1006.52C189.182 1006.05 189.032 1005.43 188.56 1005.15L187.522 1006.86ZM179.857 999.967C179.38 999.688 178.768 999.849 178.489 1000.33C178.21 1000.8 178.371 1001.42 178.848 1001.69L179.857 999.967ZM170.077 996.658C170.557 996.93 171.167 996.76 171.439 996.279C171.711 995.798 171.541 995.188 171.06 994.916L170.077 996.658ZM162.209 989.988C161.725 989.723 161.117 989.899 160.852 990.383C160.586 990.868 160.762 991.475 161.247 991.741L162.209 989.988ZM152.356 986.914C152.843 987.176 153.449 986.993 153.711 986.507C153.972 986.02 153.789 985.414 153.303 985.152L152.356 986.914ZM144.366 980.395C143.878 980.137 143.273 980.324 143.015 980.812C142.757 981.3 142.944 981.905 143.432 982.163L144.366 980.395ZM134.464 977.455C134.954 977.711 135.558 977.521 135.813 977.032C136.069 976.542 135.879 975.938 135.39 975.683L134.464 977.455ZM126.435 971.021C125.945 970.766 125.341 970.957 125.086 971.447C124.832 971.937 125.023 972.541 125.513 972.795L126.435 971.021ZM116.501 968.115C116.991 968.37 117.595 968.179 117.849 967.689C118.104 967.199 117.913 966.595 117.423 966.34L116.501 968.115ZM108.462 961.667C107.973 961.411 107.368 961.6 107.112 962.089C106.856 962.578 107.045 963.183 107.534 963.439L108.462 961.667ZM98.5743 958.716C99.062 958.975 99.6675 958.79 99.9266 958.302C100.186 957.814 100 957.209 99.5126 956.95L98.5743 958.716ZM90.5825 952.157C90.0972 951.893 89.4901 952.073 89.2265 952.558C88.963 953.044 89.1427 953.651 89.6281 953.914L90.5825 952.157ZM80.8017 949.052C81.2837 949.321 81.893 949.149 82.1628 948.667C82.4325 948.185 82.2605 947.576 81.7785 947.306L80.8017 949.052ZM72.9552 942.272C72.478 941.994 71.8658 942.156 71.5878 942.633C71.3098 943.11 71.4712 943.722 71.9484 944L72.9552 942.272ZM63.2334 938.797C63.7043 939.086 64.32 938.938 64.6086 938.467C64.8972 937.996 64.7494 937.381 64.2786 937.092L63.2334 938.797ZM55.8101 931.742C55.3476 931.44 54.728 931.57 54.4262 932.033C54.1243 932.495 54.2545 933.115 54.717 933.417L55.8101 931.742ZM46.2536 927.678C46.7047 927.996 47.3287 927.889 47.6473 927.438C47.9659 926.987 47.8585 926.363 47.4074 926.044L46.2536 927.678ZM39.295 920.038C38.8592 919.699 38.2309 919.777 37.8916 920.213C37.5523 920.649 37.6306 921.277 38.0663 921.617L39.295 920.038ZM30.2401 915.158C30.655 915.523 31.2868 915.482 31.6513 915.067C32.0158 914.652 31.9749 914.02 31.5599 913.656L30.2401 915.158ZM24.3038 906.801C23.9176 906.406 23.2844 906.399 22.8896 906.785C22.4949 907.171 22.4879 907.805 22.8741 908.199L24.3038 906.801ZM16.058 900.543C16.4037 900.974 17.0331 901.043 17.4638 900.697C17.8945 900.351 17.9633 899.722 17.6176 899.291L16.058 900.543ZM11.8312 891.13C11.5415 890.66 10.9254 890.513 10.4552 890.803C9.98506 891.093 9.83877 891.709 10.1285 892.179L11.8312 891.13ZM5.4091 883.078C5.6242 883.587 6.21093 883.825 6.71961 883.61C7.22829 883.395 7.46628 882.808 7.25118 882.299L5.4091 883.078ZM4.19095 872.881C4.06751 872.342 3.53106 872.006 2.99274 872.129C2.45443 872.253 2.11811 872.789 2.24155 873.328L4.19095 872.881ZM0.869463 863.175C0.893571 863.726 1.3604 864.154 1.91216 864.13C2.46392 864.106 2.89166 863.639 2.86756 863.087L0.869463 863.175ZM3.20125 853.024C3.24836 852.473 2.84047 851.989 2.2902 851.942C1.73993 851.895 1.25565 852.303 1.20854 852.853L3.20125 853.024ZM2.45492 843.153C2.36005 843.697 2.7242 844.215 3.26827 844.31C3.81235 844.405 4.33032 844.041 4.42519 843.497L2.45492 843.153ZM6.58073 834.011C6.73178 833.479 6.42358 832.926 5.89235 832.775C5.36113 832.624 4.80803 832.932 4.65699 833.464L6.58073 834.011ZM7.93892 824.067C7.72511 824.576 7.96457 825.162 8.47379 825.376C8.983 825.59 9.56914 825.351 9.78296 824.841L7.93892 824.067ZM14.0983 816.2C14.3778 815.724 14.2181 815.111 13.7417 814.832C13.2653 814.552 12.6526 814.712 12.3732 815.188L14.0983 816.2ZM17.972 806.999C17.6294 807.433 17.7028 808.061 18.136 808.404C18.5692 808.747 19.1981 808.673 19.5407 808.24L17.972 806.999ZM26.0286 801.098C26.4265 800.715 26.4385 800.082 26.0554 799.684C25.6724 799.286 25.0394 799.274 24.6415 799.658L26.0286 801.098ZM32.202 793.244C31.76 793.575 31.6702 794.202 32.0014 794.644C32.3326 795.086 32.9594 795.176 33.4013 794.844L32.202 793.244ZM41.4654 789.465C41.94 789.182 42.096 788.569 41.8136 788.094C41.5313 787.619 40.9176 787.464 40.443 787.746L41.4654 789.465ZM49.1729 783.08C48.6752 783.319 48.4656 783.917 48.7049 784.414C48.9442 784.912 49.5417 785.122 50.0394 784.882L49.1729 783.08ZM58.9771 780.988C59.4907 780.785 59.7425 780.204 59.5395 779.69C59.3365 779.177 58.7556 778.925 58.2419 779.128L58.9771 780.988ZM67.5412 775.767C67.0169 775.94 66.7324 776.506 66.9059 777.03C67.0793 777.555 67.645 777.839 68.1694 777.666L67.5412 775.767ZM77.4955 774.818C78.027 774.668 78.3362 774.116 78.1862 773.584C78.0361 773.052 77.4836 772.743 76.9521 772.893L77.4955 774.818ZM86.4609 770.39C85.9246 770.522 85.5968 771.064 85.7287 771.6C85.8606 772.137 86.4023 772.464 86.9386 772.332L86.4609 770.39ZM96.4727 770.12C97.0121 770.002 97.3534 769.469 97.235 768.929C97.1165 768.39 96.5832 768.049 96.0438 768.167L96.4727 770.12ZM105.674 766.146C105.133 766.255 104.782 766.783 104.891 767.324C105 767.865 105.528 768.216 106.069 768.107L105.674 766.146ZM115.703 766.225C116.245 766.122 116.601 765.598 116.498 765.056C116.395 764.513 115.871 764.157 115.329 764.261L115.703 766.225ZM124.973 762.451C124.43 762.552 124.072 763.074 124.173 763.617C124.274 764.16 124.796 764.518 125.339 764.417L124.973 762.451ZM134.988 762.619C135.531 762.517 135.888 761.994 135.786 761.452C135.684 760.909 135.162 760.551 134.619 760.653L134.988 762.619ZM144.256 758.812C143.714 758.918 143.36 759.443 143.466 759.985C143.572 760.527 144.098 760.88 144.64 760.774L144.256 758.812ZM154.273 758.829C154.813 758.715 155.159 758.185 155.046 757.645C154.933 757.104 154.403 756.758 153.862 756.871L154.273 758.829ZM163.423 754.774C162.885 754.898 162.549 755.435 162.673 755.973C162.797 756.511 163.333 756.847 163.872 756.723L163.423 754.774ZM173.442 754.392C173.977 754.254 174.299 753.709 174.161 753.174C174.022 752.639 173.477 752.318 172.942 752.456L173.442 754.392ZM182.377 749.855C181.847 750.011 181.544 750.567 181.7 751.097C181.856 751.626 182.412 751.929 182.942 751.773L182.377 749.855ZM192.334 748.797C192.857 748.619 193.136 748.05 192.958 747.528C192.78 747.005 192.212 746.726 191.689 746.904L192.334 748.797ZM200.836 743.53C200.323 743.735 200.073 744.317 200.278 744.83C200.482 745.343 201.064 745.592 201.577 745.388L200.836 743.53ZM210.626 741.46C211.126 741.224 211.339 740.628 211.104 740.129C210.868 739.629 210.272 739.415 209.773 739.651L210.626 741.46ZM218.437 735.182C217.956 735.453 217.786 736.063 218.057 736.544C218.328 737.025 218.938 737.195 219.419 736.924L218.437 735.182ZM227.831 731.718C228.287 731.408 228.406 730.786 228.096 730.329C227.785 729.872 227.163 729.754 226.707 730.064L227.831 731.718ZM234.474 724.246C234.048 724.598 233.988 725.228 234.34 725.654C234.692 726.08 235.322 726.14 235.748 725.788L234.474 724.246ZM243.05 719.108C243.438 718.715 243.433 718.082 243.04 717.694C242.647 717.306 242.014 717.311 241.626 717.704L243.05 719.108ZM248.059 710.445C247.715 710.877 247.787 711.506 248.22 711.85C248.652 712.193 249.281 712.122 249.625 711.689L248.059 710.445ZM255.385 703.579C255.68 703.112 255.541 702.494 255.074 702.199C254.607 701.904 253.99 702.043 253.695 702.51L255.385 703.579ZM258.425 694.097C258.179 694.591 258.38 695.191 258.875 695.437C259.369 695.683 259.97 695.482 260.216 694.987L258.425 694.097ZM264.17 685.964C264.367 685.448 264.109 684.87 263.594 684.672C263.078 684.474 262.5 684.732 262.302 685.248L264.17 685.964ZM265.381 676.012C265.229 676.543 265.536 677.096 266.067 677.248C266.598 677.401 267.152 677.094 267.304 676.563L265.381 676.012ZM269.667 666.892C269.778 666.351 269.429 665.822 268.888 665.712C268.346 665.601 267.818 665.95 267.707 666.491L269.667 666.892ZM269.311 657.018C269.236 657.566 269.62 658.069 270.167 658.144C270.714 658.218 271.218 657.835 271.293 657.288L269.311 657.018ZM272.331 647.396C272.373 646.845 271.96 646.365 271.409 646.323C270.859 646.282 270.379 646.694 270.337 647.245L272.331 647.396ZM270.814 637.561C270.801 638.113 271.238 638.572 271.79 638.585C272.342 638.598 272.8 638.161 272.814 637.609L270.814 637.561ZM272.736 627.305C272.706 626.753 272.234 626.33 271.683 626.36C271.132 626.39 270.709 626.861 270.738 627.413L272.736 627.305ZM269.647 617.477C269.738 618.022 270.254 618.39 270.798 618.298C271.343 618.207 271.711 617.692 271.62 617.147L269.647 617.477ZM269.351 607.172C269.197 606.642 268.643 606.336 268.112 606.49C267.582 606.643 267.276 607.198 267.43 607.728L269.351 607.172ZM264.097 598.291C264.31 598.8 264.896 599.04 265.405 598.827C265.915 598.613 266.155 598.027 265.941 597.518L264.097 598.291ZM261.468 588.303C261.201 587.82 260.592 587.645 260.109 587.913C259.626 588.18 259.451 588.789 259.719 589.272L261.468 588.303ZM254.415 580.749C254.73 581.203 255.353 581.316 255.807 581.002C256.261 580.688 256.374 580.065 256.06 579.61L254.415 580.749ZM249.871 571.482C249.518 571.058 248.887 571 248.463 571.353C248.038 571.706 247.98 572.337 248.334 572.761L249.871 571.482ZM241.608 565.296C241.993 565.692 242.626 565.702 243.022 565.317C243.418 564.932 243.428 564.299 243.043 563.903L241.608 565.296ZM235.698 556.835C235.288 556.465 234.656 556.497 234.286 556.907C233.916 557.317 233.949 557.949 234.359 558.319L235.698 556.835ZM226.685 551.787C227.115 552.133 227.745 552.065 228.091 551.635C228.437 551.205 228.369 550.575 227.939 550.229L226.685 551.787ZM219.848 544.033C219.401 543.708 218.776 543.806 218.45 544.252C218.125 544.698 218.223 545.323 218.669 545.649L219.848 544.033ZM210.377 539.859C210.836 540.167 211.457 540.044 211.764 539.585C212.072 539.126 211.949 538.505 211.49 538.197L210.377 539.859ZM202.932 532.682C202.463 532.391 201.846 532.534 201.555 533.004C201.263 533.473 201.407 534.089 201.876 534.381L202.932 532.682ZM193.226 529.179C193.703 529.457 194.315 529.296 194.593 528.819C194.871 528.341 194.71 527.729 194.233 527.451L193.226 529.179ZM185.392 522.443C184.908 522.176 184.3 522.352 184.033 522.836C183.767 523.319 183.943 523.928 184.426 524.194L185.392 522.443ZM175.51 519.393C175.998 519.651 176.603 519.463 176.86 518.974C177.118 518.486 176.93 517.881 176.441 517.624L175.51 519.393ZM167.41 512.962C166.917 512.713 166.316 512.91 166.066 513.403C165.816 513.895 166.013 514.497 166.506 514.747L167.41 512.962ZM157.447 510.228C157.943 510.472 158.542 510.268 158.785 509.772C159.029 509.276 158.825 508.677 158.329 508.433L157.447 510.228ZM149.199 503.997C148.701 503.758 148.104 503.968 147.864 504.465C147.625 504.963 147.834 505.561 148.332 505.8L149.199 503.997ZM139.182 501.435C139.681 501.671 140.277 501.458 140.513 500.959C140.75 500.46 140.537 499.864 140.038 499.628L139.182 501.435ZM130.871 495.299C130.372 495.063 129.776 495.278 129.54 495.777C129.305 496.277 129.519 496.873 130.019 497.108L130.871 495.299ZM120.847 492.785C121.347 493.021 121.943 492.808 122.179 492.308C122.414 491.809 122.201 491.213 121.701 490.977L120.847 492.785ZM112.532 486.626C112.034 486.388 111.437 486.599 111.199 487.097C110.961 487.596 111.172 488.193 111.67 488.431L112.532 486.626ZM102.522 484.019C103.019 484.262 103.617 484.055 103.859 483.559C104.102 483.063 103.895 482.464 103.399 482.222L102.522 484.019ZM94.3268 477.732C93.8334 477.484 93.2322 477.682 92.984 478.176C92.7358 478.669 92.9345 479.27 93.4278 479.518L94.3268 477.732ZM84.4111 474.888C84.9001 475.145 85.5046 474.957 85.7614 474.468C86.0182 473.979 85.8299 473.374 85.341 473.117L84.4111 474.888ZM76.4409 468.316C75.9581 468.048 75.3493 468.222 75.0811 468.705C74.813 469.188 74.987 469.796 75.4698 470.065L76.4409 468.316ZM66.6346 464.985C67.1089 465.268 67.7227 465.113 68.0057 464.639C68.2887 464.164 68.1336 463.551 67.6593 463.268L66.6346 464.985ZM59.0771 457.92C58.6147 457.618 57.995 457.748 57.6931 458.211C57.3912 458.673 57.5214 459.293 57.9838 459.595L59.0771 457.92ZM49.5883 453.806C50.0341 454.132 50.6598 454.035 50.9858 453.589C51.3117 453.143 51.2146 452.517 50.7687 452.191L49.5883 453.806ZM42.8429 445.982C42.4208 445.626 41.7899 445.68 41.4337 446.102C41.0775 446.524 41.1309 447.155 41.5529 447.511L42.8429 445.982ZM34.0389 440.581C34.4263 440.975 35.0595 440.98 35.453 440.592C35.8466 440.205 35.8515 439.572 35.4641 439.178L34.0389 440.581ZM28.8785 431.661C28.5418 431.223 27.914 431.141 27.4762 431.478C27.0384 431.814 26.9564 432.442 27.2931 432.88L28.8785 431.661ZM21.6731 424.294C21.9366 424.78 22.5437 424.96 23.0291 424.696C23.5145 424.433 23.6943 423.826 23.4308 423.34L21.6731 424.294ZM19.5343 414.205C19.369 413.678 18.8078 413.384 18.2809 413.55C17.7539 413.715 17.4606 414.276 17.6259 414.803L19.5343 414.205ZM15.5894 404.703C15.641 405.252 16.1285 405.656 16.6784 405.605C17.2283 405.553 17.6322 405.066 17.5807 404.516L15.5894 404.703ZM17.4791 394.384C17.496 393.832 17.0622 393.37 16.5102 393.353C15.9582 393.336 15.4969 393.77 15.48 394.322L17.4791 394.384ZM15.9908 384.432C15.9502 384.983 16.3639 385.462 16.9147 385.503C17.4655 385.543 17.9448 385.13 17.9854 384.579L15.9908 384.432ZM18.967 374.591C19.0351 374.043 18.646 373.544 18.0979 373.475C17.5499 373.407 17.0504 373.797 16.9823 374.345L18.967 374.591ZM18.4891 364.458C18.3901 365.001 18.7504 365.522 19.2937 365.621C19.8371 365.719 20.3577 365.359 20.4567 364.816L18.4891 364.458ZM22.5179 355.217C22.6514 354.681 22.3253 354.138 21.7894 354.004C21.2535 353.871 20.7108 354.197 20.5772 354.733L22.5179 355.217ZM23.3634 345.056C23.1908 345.581 23.4761 346.146 24.0007 346.319C24.5253 346.491 25.0906 346.206 25.2632 345.681L23.3634 345.056ZM28.7421 336.395C28.9574 335.886 28.7196 335.299 28.211 335.084C27.7024 334.869 27.1156 335.107 26.9003 335.615L28.7421 336.395ZM31.2306 326.535C30.9703 327.022 31.1542 327.628 31.6413 327.888C32.1285 328.149 32.7343 327.965 32.9946 327.478L31.2306 326.535ZM38.0517 319.009C38.3574 318.549 38.2323 317.928 37.7724 317.622C37.3124 317.317 36.6917 317.442 36.386 317.902L38.0517 319.009ZM42.3553 309.809C42.0061 310.237 42.07 310.867 42.4979 311.216C42.9258 311.565 43.5557 311.501 43.9049 311.074L42.3553 309.809ZM50.5015 303.739C50.8898 303.346 50.8861 302.713 50.4934 302.325C50.1006 301.936 49.4674 301.94 49.0792 302.333L50.5015 303.739ZM56.4582 295.508C56.0369 295.865 55.9848 296.496 56.342 296.918C56.6991 297.339 57.3301 297.391 57.7514 297.034L56.4582 295.508ZM65.5426 290.943C65.9902 290.619 66.0907 289.994 65.7671 289.547C65.4435 289.099 64.8184 288.999 64.3708 289.322L65.5426 290.943ZM72.6928 283.716C72.2254 284.01 72.0852 284.628 72.3795 285.095C72.6738 285.562 73.2912 285.703 73.7585 285.408L72.6928 283.716ZM82.2904 280.341C82.7718 280.07 82.9426 279.461 82.6719 278.979C82.4012 278.498 81.7915 278.327 81.3101 278.598L82.2904 280.341ZM90.1252 273.857C89.6346 274.11 89.4425 274.713 89.6961 275.204C89.9497 275.695 90.553 275.887 91.0436 275.633L90.1252 273.857ZM99.938 271.164C100.434 270.921 100.638 270.322 100.395 269.826C100.151 269.33 99.5521 269.126 99.0564 269.369L99.938 271.164ZM108.035 265.007C107.538 265.247 107.33 265.845 107.57 266.342C107.811 266.84 108.409 267.048 108.906 266.807L108.035 265.007ZM117.882 262.431C118.377 262.186 118.58 261.586 118.335 261.091C118.09 260.596 117.49 260.393 116.995 260.638L117.882 262.431ZM125.867 256.128C125.378 256.385 125.19 256.989 125.447 257.478C125.704 257.967 126.309 258.155 126.798 257.898L125.867 256.128ZM135.573 253.069C136.051 252.792 136.214 252.18 135.937 251.702C135.66 251.224 135.049 251.061 134.571 251.338L135.573 253.069ZM143.007 246.133C142.547 246.437 142.42 247.057 142.724 247.518C143.029 247.979 143.649 248.106 144.11 247.801L143.007 246.133ZM152.282 241.96C152.718 241.622 152.797 240.993 152.458 240.557C152.119 240.121 151.491 240.042 151.055 240.381L152.282 241.96ZM158.569 233.976C158.166 234.355 158.146 234.987 158.524 235.39C158.902 235.793 159.535 235.812 159.938 235.434L158.569 233.976ZM166.908 228.159C167.268 227.74 167.22 227.108 166.801 226.748C166.382 226.389 165.75 226.437 165.391 226.856L166.908 228.159ZM171.375 219.02C171.066 219.477 171.186 220.099 171.644 220.408C172.101 220.717 172.723 220.597 173.032 220.14L171.375 219.02ZM178.192 211.464C178.447 210.974 178.256 210.37 177.766 210.116C177.276 209.861 176.672 210.052 176.417 210.542L178.192 211.464ZM180.477 201.554C180.277 202.069 180.532 202.649 181.047 202.849C181.562 203.049 182.141 202.794 182.341 202.279L180.477 201.554ZM185.512 192.749C185.661 192.217 185.351 191.665 184.819 191.516C184.288 191.366 183.736 191.677 183.586 192.208L185.512 192.749ZM185.829 182.63C185.725 183.173 186.081 183.697 186.624 183.8C187.166 183.904 187.69 183.548 187.794 183.005L185.829 182.63ZM189.299 173.125C189.363 172.576 188.97 172.08 188.421 172.016C187.873 171.953 187.376 172.346 187.312 172.894L189.299 173.125ZM188.14 163.018C188.111 163.569 188.534 164.04 189.086 164.069C189.637 164.099 190.108 163.676 190.137 163.124L188.14 163.018ZM190.397 152.974C190.397 152.422 189.949 151.974 189.396 151.975C188.844 151.975 188.397 152.423 188.397 152.975L190.397 152.974ZM188.165 143.193C188.19 143.745 188.658 144.172 189.21 144.147C189.761 144.122 190.188 143.654 190.163 143.102L188.165 143.193ZM189.695 132.915C189.693 132.362 189.244 131.916 188.692 131.918C188.139 131.92 187.693 132.369 187.695 132.922L189.695 132.915ZM188.326 122.801C188.255 123.349 188.641 123.851 189.189 123.922C189.736 123.994 190.238 123.608 190.309 123.06L188.326 122.801ZM192.265 113.389C192.412 112.857 192.1 112.306 191.568 112.159C191.036 112.011 190.485 112.324 190.338 112.856L192.265 113.389ZM193.721 103.287C193.501 103.794 193.734 104.382 194.24 104.602C194.747 104.822 195.336 104.589 195.556 104.082L193.721 103.287ZM200.081 95.2892C200.365 94.8154 200.211 94.2012 199.737 93.9174C199.264 93.6335 198.649 93.7876 198.366 94.2614L200.081 95.2892ZM204.089 85.8876C203.752 86.3248 203.833 86.9529 204.27 87.2902C204.708 87.6274 205.336 87.5463 205.673 87.109L204.089 85.8876ZM212.132 79.5813C212.512 79.1805 212.496 78.5476 212.095 78.1676C211.694 77.7876 211.061 77.8044 210.681 78.2053L212.132 79.5813ZM217.958 71.1858C217.545 71.5521 217.507 72.1841 217.873 72.5974C218.239 73.0109 218.871 73.0491 219.285 72.6827L217.958 71.1858ZM226.98 66.3684C227.419 66.0336 227.504 65.4061 227.169 64.9668C226.834 64.5276 226.207 64.443 225.768 64.7778L226.98 66.3684ZM233.987 58.9194C233.528 59.2262 233.404 59.8472 233.711 60.3064C234.018 60.7657 234.639 60.8894 235.098 60.5826L233.987 58.9194ZM243.546 55.2681C244.021 54.9862 244.177 54.3727 243.895 53.8977C243.613 53.4229 243 53.2664 242.525 53.5482L243.546 55.2681ZM251.31 48.6055C250.823 48.8656 250.639 49.4714 250.899 49.9586C251.159 50.4458 251.765 50.6299 252.252 50.3698L251.31 48.6055ZM261.163 45.8375C261.66 45.5964 261.867 44.9983 261.626 44.5013C261.385 44.0044 260.787 43.797 260.29 44.038L261.163 45.8375ZM269.424 39.7985C268.92 40.0228 268.692 40.6138 268.917 41.1184C269.141 41.6232 269.732 41.8503 270.237 41.626L269.424 39.7985ZM279.441 37.6945C279.952 37.4845 280.196 36.9003 279.986 36.3894C279.776 35.8785 279.192 35.6345 278.681 35.8445L279.441 37.6945ZM288.035 32.1376C287.519 32.335 287.261 32.9131 287.458 33.429C287.655 33.9447 288.234 34.2029 288.749 34.0055L288.035 32.1376ZM298.14 30.524C298.659 30.3372 298.929 29.7644 298.742 29.2446C298.555 28.725 297.983 28.4552 297.463 28.6421L298.14 30.524ZM306.944 25.3234C306.421 25.5017 306.142 26.0701 306.321 26.5928C306.499 27.1155 307.067 27.3945 307.59 27.2162L306.944 25.3234ZM317.074 24.0466C317.599 23.8745 317.885 23.3096 317.713 22.7848C317.54 22.26 316.975 21.9741 316.451 22.1462L317.074 24.0466ZM326.027 19.0446C325.502 19.2134 325.212 19.7765 325.381 20.3024C325.55 20.8282 326.113 21.1177 326.639 20.9489L326.027 19.0446ZM336.225 17.8704C336.75 17.7004 337.038 17.1367 336.868 16.6112C336.699 16.0857 336.135 15.7975 335.609 15.9674L336.225 17.8704ZM345.064 12.8323C344.542 13.0122 344.264 13.5813 344.444 14.1035C344.624 14.6256 345.193 14.9031 345.715 14.7233L345.064 12.8323ZM355.146 11.1824C355.654 10.9661 355.89 10.3787 355.674 9.87061C355.457 9.36243 354.87 9.12585 354.362 9.34229L355.146 11.1824ZM361.862 4.40076C361.737 4.93884 362.073 5.47595 362.611 5.60034C363.149 5.72485 363.686 5.38953 363.81 4.85144L361.862 4.40076ZM279.933 1219.86C280.568 1218.2 281.179 1216.56 281.768 1214.93L279.886 1214.25C279.302 1215.87 278.696 1217.5 278.066 1219.14L279.933 1219.86ZM285.029 1205.26C286.053 1201.99 286.984 1198.78 287.824 1195.6L285.89 1195.09C285.059 1198.23 284.136 1201.42 283.121 1204.66L285.029 1205.26ZM290.199 1185.62C290.905 1182.27 291.506 1178.97 292.005 1175.72L290.029 1175.41C289.535 1178.63 288.94 1181.89 288.242 1185.21L290.199 1185.62ZM293.257 1165.55C293.571 1162.12 293.768 1158.75 293.853 1155.43L291.854 1155.38C291.77 1158.65 291.575 1161.98 291.265 1165.36L293.257 1165.55ZM293.758 1145.25C293.602 1141.8 293.32 1138.41 292.917 1135.08L290.932 1135.32C291.328 1138.6 291.606 1141.94 291.76 1145.34L293.758 1145.25ZM291.317 1125.1C290.637 1121.72 289.828 1118.39 288.897 1115.14L286.974 1115.69C287.891 1118.89 288.687 1122.16 289.356 1125.5L291.317 1125.1ZM285.713 1105.48C284.517 1102.29 283.2 1099.16 281.77 1096.09L279.957 1096.94C281.366 1099.96 282.663 1103.04 283.84 1106.18L285.713 1105.48ZM277.117 1087.03C275.457 1084.07 273.689 1081.17 271.821 1078.33L270.15 1079.43C271.993 1082.23 273.737 1085.09 275.373 1088.01L277.117 1087.03ZM265.943 1070.01C263.909 1067.32 261.783 1064.69 259.574 1062.1L258.053 1063.4C260.238 1065.96 262.338 1068.56 264.348 1071.22L265.943 1070.01ZM252.744 1054.54C250.422 1052.1 248.025 1049.71 245.561 1047.36L244.181 1048.81C246.624 1051.14 248.997 1053.51 251.296 1055.92L252.744 1054.54ZM238.055 1040.52C235.511 1038.3 232.907 1036.12 230.249 1033.98L228.993 1035.53C231.632 1037.66 234.216 1039.83 236.739 1042.03L238.055 1040.52ZM222.265 1027.76C219.57 1025.73 216.829 1023.73 214.048 1021.77L212.894 1023.4C215.66 1025.36 218.384 1027.34 221.062 1029.35L222.265 1027.76ZM205.688 1016.03C202.886 1014.16 200.051 1012.32 197.187 1010.5L196.115 1012.19C198.967 1014 201.789 1015.83 204.578 1017.69L205.688 1016.03ZM188.56 1005.15C185.68 1003.4 182.777 1001.67 179.857 999.967L178.848 1001.69C181.76 1003.39 184.652 1005.11 187.522 1006.86L188.56 1005.15ZM171.06 994.916C168.121 993.256 165.169 991.614 162.209 989.988L161.247 991.741C164.2 993.364 167.145 995.002 170.077 996.658L171.06 994.916ZM153.303 985.152C150.325 983.553 147.345 981.968 144.366 980.395L143.432 982.163C146.407 983.734 149.384 985.317 152.356 986.914L153.303 985.152ZM135.39 975.683C132.396 974.119 129.409 972.566 126.435 971.021L125.513 972.795C128.486 974.34 131.472 975.893 134.464 977.455L135.39 975.683ZM117.423 966.34C114.416 964.777 111.427 963.22 108.462 961.667L107.534 963.439C110.502 964.993 113.492 966.551 116.501 968.115L117.423 966.34ZM99.5126 956.95C96.5022 955.351 93.5236 953.754 90.5825 952.157L89.6281 953.914C92.5754 955.515 95.5596 957.115 98.5743 958.716L99.5126 956.95ZM81.7785 947.306C78.7871 945.632 75.8437 943.955 72.9552 942.272L71.9484 944C74.8481 945.689 77.8015 947.372 80.8017 949.052L81.7785 947.306ZM64.2786 937.092C61.3853 935.319 58.5599 933.536 55.8101 931.742L54.717 933.417C57.4843 935.223 60.3258 937.015 63.2334 938.797L64.2786 937.092ZM47.4074 926.044C44.6005 924.062 41.8931 922.061 39.295 920.038L38.0663 921.617C40.6913 923.66 43.4239 925.679 46.2536 927.678L47.4074 926.044ZM31.5599 913.656C28.995 911.403 26.5721 909.12 24.3038 906.801L22.8741 908.199C25.1812 910.558 27.6411 912.876 30.2401 915.158L31.5599 913.656ZM17.6176 899.291C15.4752 896.623 13.5409 893.905 11.8312 891.13L10.1285 892.179C11.8856 895.031 13.8686 897.816 16.058 900.543L17.6176 899.291ZM7.25118 882.299C5.95551 879.235 4.92889 876.099 4.19095 872.881L2.24155 873.328C3.00668 876.664 4.07011 879.912 5.4091 883.078L7.25118 882.299ZM2.86756 863.087C2.79513 861.43 2.79637 859.749 2.87383 858.045L0.875895 857.954C0.795768 859.717 0.794418 861.457 0.869463 863.175L2.86756 863.087ZM2.87383 858.045C2.9515 856.337 3.0609 854.663 3.20125 853.024L1.20854 852.853C1.06585 854.52 0.954742 856.22 0.875895 857.954L2.87383 858.045ZM4.42519 843.497C5.00351 840.18 5.72475 837.021 6.58073 834.011L4.65699 833.464C3.78114 836.544 3.04467 839.771 2.45492 843.153L4.42519 843.497ZM9.78296 824.841C11.0641 821.79 12.5063 818.914 14.0983 816.2L12.3732 815.188C10.7357 817.98 9.25394 820.935 7.93892 824.067L9.78296 824.841ZM19.5407 808.24C21.55 805.699 23.7169 803.324 26.0286 801.098L24.6415 799.658C22.2671 801.943 20.0393 804.386 17.972 806.999L19.5407 808.24ZM33.4013 794.844C35.9632 792.925 38.6553 791.136 41.4654 789.465L40.443 787.746C37.5765 789.451 34.8249 791.278 32.202 793.244L33.4013 794.844ZM50.0394 784.882C52.9263 783.495 55.9091 782.201 58.9771 780.988L58.2419 779.128C55.1339 780.357 52.107 781.669 49.1729 783.08L50.0394 784.882ZM68.1694 777.666C71.2152 776.658 74.3269 775.713 77.4955 774.818L76.9521 772.893C73.7585 773.795 70.6182 774.749 67.5412 775.767L68.1694 777.666ZM86.9386 772.332C90.076 771.561 93.2567 770.827 96.4727 770.12L96.0438 768.167C92.814 768.876 89.6169 769.614 86.4609 770.39L86.9386 772.332ZM106.069 768.107C109.258 767.465 112.471 766.841 115.703 766.225L115.329 764.261C112.092 764.877 108.872 765.502 105.674 766.146L106.069 768.107ZM125.339 764.417C128.548 763.82 131.767 763.224 134.988 762.619L134.619 760.653C131.4 761.258 128.184 761.854 124.973 762.451L125.339 764.417ZM144.64 760.774C147.858 760.145 151.071 759.499 154.273 758.829L153.862 756.871C150.672 757.54 147.467 758.184 144.256 758.812L144.64 760.774ZM163.872 756.723C167.084 755.984 170.277 755.21 173.442 754.392L172.942 752.456C169.796 753.268 166.621 754.038 163.423 754.774L163.872 756.723ZM182.942 751.773C186.112 750.839 189.246 749.85 192.334 748.797L191.689 746.904C188.629 747.947 185.523 748.928 182.377 749.855L182.942 751.773ZM201.577 745.388C204.653 744.16 207.672 742.854 210.626 741.46L209.773 739.651C206.858 741.027 203.876 742.317 200.836 743.53L201.577 745.388ZM219.419 736.924C222.304 735.297 225.112 733.565 227.831 731.718L226.707 730.064C224.036 731.878 221.277 733.58 218.437 735.182L219.419 736.924ZM235.748 725.788C238.284 723.693 240.722 721.47 243.05 719.108L241.626 717.704C239.347 720.016 236.96 722.193 234.474 724.246L235.748 725.788ZM249.625 711.689C251.66 709.128 253.583 706.428 255.385 703.579L253.695 702.51C251.931 705.298 250.049 707.94 248.059 710.445L249.625 711.689ZM260.216 694.987C261.644 692.114 262.964 689.108 264.17 685.964L262.302 685.248C261.119 688.334 259.824 691.281 258.425 694.097L260.216 694.987ZM267.304 676.563C268.193 673.461 268.982 670.24 269.667 666.892L267.707 666.491C267.033 669.79 266.256 672.961 265.381 676.012L267.304 676.563ZM271.293 657.288C271.726 654.096 272.074 650.8 272.331 647.396L270.337 647.245C270.082 650.611 269.739 653.867 269.311 657.018L271.293 657.288ZM272.814 637.609C272.854 635.93 272.875 634.227 272.875 632.5H270.875C270.875 634.212 270.855 635.899 270.814 637.561L272.814 637.609ZM272.875 632.5C272.875 630.747 272.828 629.016 272.736 627.305L270.738 627.413C270.829 629.087 270.875 630.783 270.875 632.5H272.875ZM271.62 617.147C271.049 613.736 270.289 610.412 269.351 607.172L267.43 607.728C268.346 610.894 269.089 614.143 269.647 617.477L271.62 617.147ZM265.941 597.518C264.62 594.363 263.125 591.293 261.468 588.303L259.719 589.272C261.341 592.201 262.805 595.206 264.097 598.291L265.941 597.518ZM256.06 579.61C254.135 576.831 252.068 574.123 249.871 571.482L248.334 572.761C250.495 575.359 252.526 578.02 254.415 580.749L256.06 579.61ZM243.043 563.903C240.7 561.49 238.248 559.136 235.698 556.835L234.359 558.319C236.878 560.593 239.298 562.917 241.608 565.296L243.043 563.903ZM227.939 550.229C225.32 548.12 222.62 546.056 219.848 544.033L218.669 545.649C221.417 547.654 224.092 549.699 226.685 551.787L227.939 550.229ZM211.49 538.197C208.693 536.325 205.837 534.487 202.932 532.682L201.876 534.381C204.764 536.175 207.6 538 210.377 539.859L211.49 538.197ZM194.233 527.451C191.323 525.756 188.374 524.087 185.392 522.443L184.426 524.194C187.395 525.832 190.331 527.492 193.226 529.179L194.233 527.451ZM176.441 517.624C173.453 516.05 170.44 514.498 167.41 512.962L166.506 514.747C169.528 516.278 172.531 517.826 175.51 519.393L176.441 517.624ZM158.329 508.433C155.293 506.941 152.248 505.463 149.199 503.997L148.332 505.8C151.377 507.264 154.417 508.739 157.447 510.228L158.329 508.433ZM140.038 499.628C136.976 498.176 133.918 496.734 130.871 495.299L130.019 497.108C133.066 498.543 136.122 499.985 139.182 501.435L140.038 499.628ZM121.701 490.977C118.624 489.524 115.565 488.074 112.532 486.626L111.67 488.431C114.706 489.881 117.768 491.331 120.847 492.785L121.701 490.977ZM103.399 482.222C100.336 480.728 97.3094 479.233 94.3268 477.732L93.4278 479.518C96.4191 481.024 99.4533 482.523 102.522 484.019L103.399 482.222ZM85.341 473.117C82.313 471.527 79.3432 469.928 76.4409 468.316L75.4698 470.065C78.3874 471.685 81.3711 473.292 84.4111 474.888L85.341 473.117ZM67.6593 463.268C64.7053 461.505 61.8408 459.724 59.0771 457.92L57.9838 459.595C60.7725 461.415 63.6601 463.211 66.6346 464.985L67.6593 463.268ZM50.7687 452.191C47.9853 450.156 45.3385 448.089 42.8429 445.982L41.5529 447.511C44.0879 449.65 46.7718 451.747 49.5883 453.806L50.7687 452.191ZM35.4641 439.178C33.0529 436.729 30.8512 434.226 28.8785 431.661L27.2931 432.88C29.3207 435.517 31.5771 438.081 34.0389 440.581L35.4641 439.178ZM23.4308 423.34C21.8253 420.383 20.518 417.342 19.5343 414.205L17.6259 414.803C18.6508 418.071 20.0102 421.232 21.6731 424.294L23.4308 423.34ZM17.5807 404.516C17.4268 402.875 17.357 401.207 17.3746 399.51L15.3747 399.49C15.3564 401.255 15.4291 402.992 15.5894 404.703L17.5807 404.516ZM17.3746 399.51C17.3926 397.776 17.4275 396.067 17.4791 394.384L15.48 394.322C15.428 396.02 15.3928 397.742 15.3747 399.49L17.3746 399.51ZM17.9854 384.579C18.2388 381.138 18.5672 377.81 18.967 374.591L16.9823 374.345C16.5782 377.598 16.2465 380.959 15.9908 384.432L17.9854 384.579ZM20.4567 364.816C21.0621 361.491 21.7508 358.294 22.5179 355.217L20.5772 354.733C19.7995 357.853 19.1019 361.092 18.4891 364.458L20.4567 364.816ZM25.2632 345.681C26.3292 342.442 27.4913 339.35 28.7421 336.395L26.9003 335.615C25.6276 338.622 24.4462 341.765 23.3634 345.056L25.2632 345.681ZM32.9946 327.478C34.5832 324.504 36.2722 321.686 38.0517 319.009L36.386 317.902C34.5712 320.632 32.8494 323.505 31.2306 326.535L32.9946 327.478ZM43.9049 311.074C46.0138 308.489 48.2167 306.05 50.5015 303.739L49.0792 302.333C46.7515 304.687 44.506 307.174 42.3553 309.809L43.9049 311.074ZM57.7514 297.034C60.2777 294.893 62.8791 292.869 65.5426 290.943L64.3708 289.322C61.6692 291.275 59.0269 293.331 56.4582 295.508L57.7514 297.034ZM73.7585 285.408C76.5578 283.645 79.4062 281.963 82.2904 280.341L81.3101 278.598C78.4014 280.234 75.524 281.933 72.6928 283.716L73.7585 285.408ZM91.0436 275.633C93.9917 274.109 96.9608 272.626 99.938 271.164L99.0564 269.369C96.0716 270.835 93.0894 272.324 90.1252 273.857L91.0436 275.633ZM108.906 266.807C111.909 265.355 114.907 263.902 117.882 262.431L116.995 260.638C114.029 262.105 111.038 263.554 108.035 265.007L108.906 266.807ZM126.798 257.898C129.765 256.338 132.696 254.736 135.573 253.069L134.571 251.338C131.721 252.989 128.815 254.578 125.867 256.128L126.798 257.898ZM144.11 247.801C146.91 245.952 149.639 244.013 152.282 241.96L151.055 240.381C148.458 242.398 145.77 244.308 143.007 246.133L144.11 247.801ZM159.938 235.434C162.369 233.15 164.698 230.733 166.908 228.159L165.391 226.856C163.23 229.372 160.951 231.739 158.569 233.976L159.938 235.434ZM173.032 220.14C174.877 217.411 176.601 214.525 178.192 211.464L176.417 210.542C174.863 213.534 173.178 216.354 171.375 219.02L173.032 220.14ZM182.341 202.279C183.517 199.257 184.577 196.084 185.512 192.749L183.586 192.208C182.668 195.483 181.628 198.594 180.477 201.554L182.341 202.279ZM187.794 183.005C188.397 179.845 188.9 176.555 189.299 173.125L187.312 172.894C186.919 176.278 186.423 179.52 185.829 182.63L187.794 183.005ZM190.137 163.124C190.312 159.857 190.399 156.476 190.397 152.974L188.397 152.975C188.399 156.443 188.312 159.788 188.14 163.018L190.137 163.124ZM190.163 143.102C190.086 141.406 189.989 139.683 189.872 137.933L187.877 138.067C187.992 139.802 188.088 141.511 188.165 143.193L190.163 143.102ZM189.872 137.933C189.759 136.236 189.701 134.564 189.695 132.915L187.695 132.922C187.701 134.613 187.761 136.328 187.877 138.067L189.872 137.933ZM190.309 123.06C190.743 119.734 191.401 116.512 192.265 113.389L190.338 112.856C189.449 116.068 188.772 119.382 188.326 122.801L190.309 123.06ZM195.556 104.082C196.869 101.052 198.384 98.1228 200.081 95.2892L198.366 94.2614C196.625 97.1664 195.07 100.173 193.721 103.287L195.556 104.082ZM205.673 87.109C207.675 84.5128 209.835 82.0049 212.132 79.5813L210.681 78.2053C208.34 80.6747 206.136 83.234 204.089 85.8876L205.673 87.109ZM219.285 72.6827C221.744 70.5037 224.315 68.4 226.98 66.3684L225.768 64.7778C223.066 66.837 220.457 68.9718 217.958 71.1858L219.285 72.6827ZM235.098 60.5826C237.846 58.7473 240.667 56.9768 243.546 55.2681L242.525 53.5482C239.618 55.2737 236.767 57.063 233.987 58.9194L235.098 60.5826ZM252.252 50.3698C255.187 48.8029 258.162 47.2931 261.163 45.8375L260.29 44.038C257.268 45.504 254.27 47.0255 251.31 48.6055L252.252 50.3698ZM270.237 41.626C273.299 40.2644 276.373 38.955 279.441 37.6945L278.681 35.8445C275.596 37.1116 272.506 38.4286 269.424 39.7985L270.237 41.626ZM288.749 34.0055C291.907 32.7969 295.043 31.6376 298.14 30.524L297.463 28.6421C294.355 29.7596 291.206 30.9237 288.035 32.1376L288.749 34.0055ZM307.59 27.2162C310.825 26.1122 313.993 25.0573 317.074 24.0466L316.451 22.1462C313.364 23.1587 310.188 24.2163 306.944 25.3234L307.59 27.2162ZM326.639 20.9489C329.996 19.8712 333.205 18.8468 336.225 17.8704L335.609 15.9674C332.593 16.943 329.389 17.9656 326.027 19.0446L326.639 20.9489ZM345.715 14.7233C349.335 13.4762 352.515 12.3024 355.146 11.1824L354.362 9.34229C351.795 10.4353 348.666 11.5914 345.064 12.8323L345.715 14.7233ZM363.81 4.85144C364.034 3.88269 363.752 2.97021 363.113 2.177C362.503 1.41821 361.551 0.741455 360.334 0.111816L359.415 1.88818C360.525 2.4624 361.196 2.98486 361.555 3.43103C361.887 3.84314 361.922 4.14172 361.862 4.40076L363.81 4.85144Z" fill="#8EC63F"/>
</svg>
