<svg width="841" height="1002" viewBox="0 0 841 1002" fill="none" xmlns="http://www.w3.org/2000/svg">
<path opacity="0.6" d="M1.15225 704.324L0.161854 704.185L1.15225 704.324ZM37.6957 328.041L38.6952 328.073L37.6957 328.041ZM472.443 113.433L473.423 113.233L472.443 113.433ZM903.577 0.013916C903.032 -0.0778198 902.516 0.289246 902.424 0.833862C902.333 1.37848 902.7 1.89435 903.244 1.98615L903.577 0.013916ZM704.384 998.137C704.795 997.768 704.83 997.136 704.461 996.725C704.092 996.314 703.46 996.28 703.049 996.649L704.384 998.137ZM710.45 989.608C710.062 990.001 710.066 990.634 710.459 991.022C710.852 991.41 711.485 991.406 711.873 991.013L710.45 989.608ZM718.328 984.008C718.687 983.588 718.638 982.957 718.218 982.598C717.798 982.239 717.167 982.288 716.808 982.708L718.328 984.008ZM723.222 974.401C722.909 974.856 723.024 975.479 723.479 975.792C723.935 976.104 724.557 975.989 724.87 975.534L723.222 974.401ZM729.867 967.213C730.119 966.722 729.924 966.119 729.433 965.867C728.941 965.616 728.339 965.81 728.087 966.302L729.867 967.213ZM731.901 956.866C731.746 957.396 732.049 957.952 732.579 958.107C733.109 958.262 733.665 957.959 733.82 957.429L731.901 956.866ZM735.563 947.47C735.593 946.918 735.17 946.447 734.618 946.418C734.067 946.388 733.595 946.811 733.566 947.362L735.563 947.47ZM732.816 937.65C732.931 938.191 733.461 938.536 734.002 938.421C734.542 938.307 734.887 937.776 734.773 937.236L732.816 937.65ZM731.441 927.6C731.201 927.102 730.603 926.894 730.105 927.134C729.608 927.375 729.4 927.973 729.64 928.47L731.441 927.6ZM724.521 920.136C724.852 920.579 725.479 920.669 725.921 920.338C726.363 920.007 726.454 919.381 726.123 918.938L724.521 920.136ZM719.273 911.112C718.881 910.723 718.248 910.724 717.859 911.116C717.469 911.508 717.471 912.141 717.863 912.53L719.273 911.112ZM710.631 906.075C711.06 906.423 711.69 906.356 712.037 905.926C712.384 905.497 712.318 904.867 711.888 904.52L710.631 906.075ZM703.443 898.275C702.986 897.964 702.364 898.082 702.054 898.539C701.743 898.996 701.861 899.618 702.318 899.928L703.443 898.275ZM694.175 894.747C694.649 895.03 695.263 894.875 695.546 894.401C695.829 893.927 695.674 893.313 695.2 893.03L694.175 894.747ZM686.17 887.951C685.682 887.692 685.077 887.878 684.818 888.365C684.559 888.853 684.744 889.458 685.232 889.718L686.17 887.951ZM676.444 885.275C676.942 885.514 677.54 885.306 677.779 884.808C678.019 884.311 677.81 883.713 677.313 883.473L676.444 885.275ZM668.123 879.232C667.618 879.009 667.027 879.238 666.804 879.743C666.581 880.248 666.809 880.838 667.314 881.062L668.123 879.232ZM657.919 877.069C658.43 877.278 659.014 877.033 659.223 876.522C659.432 876.01 659.188 875.427 658.676 875.217L657.919 877.069ZM649.487 871.586C648.971 871.389 648.393 871.647 648.196 872.163C647.999 872.679 648.257 873.257 648.773 873.454L649.487 871.586ZM639.216 869.916C639.736 870.103 640.309 869.832 640.495 869.313C640.682 868.793 640.411 868.22 639.892 868.034L639.216 869.916ZM630.349 864.709C629.826 864.531 629.258 864.812 629.081 865.335C628.904 865.858 629.184 866.426 629.708 866.603L630.349 864.709ZM620.287 863.495C620.813 863.664 621.376 863.375 621.545 862.849C621.714 862.323 621.425 861.76 620.899 861.591L620.287 863.495ZM611.152 858.534C610.624 858.372 610.065 858.669 609.903 859.197C609.742 859.725 610.039 860.284 610.567 860.446L611.152 858.534ZM600.901 857.555C601.431 857.71 601.986 857.406 602.141 856.876C602.296 856.346 601.992 855.79 601.462 855.635L600.901 857.555ZM591.898 852.896C591.367 852.747 590.815 853.057 590.665 853.588C590.516 854.12 590.826 854.672 591.358 854.821L591.898 852.896ZM581.591 852.135C582.124 852.279 582.673 851.963 582.817 851.43C582.96 850.897 582.645 850.348 582.112 850.204L581.591 852.135ZM572.238 847.591C571.704 847.452 571.158 847.773 571.019 848.307C570.88 848.842 571.201 849.388 571.735 849.527L572.238 847.591ZM562.138 847.076C562.674 847.21 563.217 846.885 563.352 846.35C563.486 845.814 563.161 845.271 562.625 845.136L562.138 847.076ZM552.843 842.72C552.307 842.589 551.766 842.918 551.635 843.455C551.505 843.992 551.834 844.533 552.371 844.663L552.843 842.72ZM542.442 842.287C542.98 842.414 543.518 842.081 543.645 841.543C543.771 841.005 543.438 840.467 542.901 840.34L542.442 842.287ZM533.155 838.077C532.617 837.953 532.081 838.29 531.957 838.828C531.834 839.366 532.17 839.903 532.709 840.026L533.155 838.077ZM522.953 837.822C523.492 837.942 524.026 837.602 524.146 837.063C524.267 836.524 523.927 835.99 523.388 835.87L522.953 837.822ZM513.5 833.693C512.96 833.576 512.427 833.919 512.31 834.458C512.193 834.998 512.535 835.531 513.075 835.648L513.5 833.693ZM503.131 833.513C503.671 833.628 504.202 833.283 504.317 832.743C504.432 832.202 504.086 831.671 503.546 831.557L503.131 833.513ZM493.786 829.51C493.246 829.398 492.716 829.745 492.604 830.286C492.492 830.827 492.839 831.356 493.38 831.468L493.786 829.51ZM483.538 829.449C484.079 829.559 484.607 829.209 484.717 828.668C484.827 828.127 484.477 827.599 483.936 827.489L483.538 829.449ZM474.002 825.492C473.461 825.384 472.934 825.736 472.826 826.278C472.719 826.819 473.07 827.346 473.612 827.454L474.002 825.492ZM463.704 825.5C464.246 825.606 464.771 825.253 464.877 824.711C464.983 824.169 464.629 823.643 464.087 823.538L463.704 825.5ZM454.252 821.633C453.71 821.529 453.186 821.884 453.081 822.427C452.977 822.969 453.333 823.493 453.875 823.597L454.252 821.633ZM443.987 821.715C444.53 821.817 445.053 821.46 445.155 820.918C445.258 820.375 444.901 819.852 444.358 819.75L443.987 821.715ZM434.413 817.886C433.87 817.785 433.348 818.143 433.247 818.686C433.146 819.229 433.504 819.751 434.047 819.852L434.413 817.886ZM424.14 818.022C424.684 818.122 425.205 817.762 425.304 817.219C425.404 816.676 425.044 816.154 424.501 816.055L424.14 818.022ZM414.616 814.253C414.073 814.155 413.553 814.516 413.454 815.059C413.356 815.603 413.717 816.123 414.26 816.221L414.616 814.253ZM404.349 814.437C404.893 814.534 405.412 814.173 405.51 813.629C405.607 813.085 405.245 812.566 404.701 812.468L404.349 814.437ZM394.762 810.699C394.218 810.603 393.7 810.966 393.603 811.509C393.507 812.053 393.87 812.572 394.414 812.669L394.762 810.699ZM384.492 810.92C385.036 811.016 385.554 810.652 385.65 810.108C385.745 809.564 385.381 809.046 384.837 808.95L384.492 810.92ZM374.918 807.218C374.374 807.123 373.857 807.488 373.762 808.032C373.667 808.576 374.032 809.094 374.576 809.188L374.918 807.218ZM364.655 807.47C365.199 807.564 365.717 807.199 365.811 806.654C365.904 806.11 365.539 805.593 364.995 805.499L364.655 807.47ZM355.074 803.792C354.53 803.698 354.013 804.064 353.919 804.608C353.826 805.152 354.192 805.669 354.736 805.763L355.074 803.792ZM344.791 804.061C345.336 804.154 345.852 803.788 345.945 803.244C346.038 802.699 345.672 802.183 345.128 802.09L344.791 804.061ZM335.185 800.396C334.64 800.304 334.124 800.67 334.031 801.215C333.939 801.759 334.305 802.276 334.85 802.368L335.185 800.396ZM324.929 800.685C325.474 800.777 325.99 800.41 326.082 799.866C326.175 799.321 325.808 798.805 325.263 798.713L324.929 800.685ZM315.371 797.038C314.826 796.946 314.31 797.312 314.218 797.857C314.126 798.402 314.492 798.918 315.037 799.01L315.371 797.038ZM305.06 797.323C305.605 797.415 306.121 797.048 306.213 796.503C306.305 795.959 305.938 795.443 305.394 795.351L305.06 797.323ZM295.437 793.667C294.893 793.575 294.376 793.942 294.284 794.486C294.192 795.031 294.559 795.547 295.104 795.639L295.437 793.667ZM285.196 793.961C285.741 794.054 286.257 793.687 286.349 793.143C286.441 792.598 286.075 792.082 285.53 791.989L285.196 793.961ZM275.679 790.317C275.135 790.225 274.618 790.591 274.526 791.136C274.433 791.68 274.8 792.197 275.344 792.289L275.679 790.317ZM265.316 790.58C265.86 790.673 266.377 790.307 266.47 789.763C266.563 789.219 266.197 788.702 265.652 788.609L265.316 790.58ZM255.699 786.904C255.155 786.811 254.638 787.176 254.544 787.721C254.451 788.265 254.816 788.782 255.361 788.875L255.699 786.904ZM245.486 787.173C246.03 787.267 246.548 786.902 246.642 786.358C246.736 785.814 246.371 785.297 245.827 785.202L245.486 787.173ZM235.956 783.487C235.412 783.392 234.894 783.756 234.799 784.3C234.704 784.844 235.068 785.362 235.612 785.457L235.956 783.487ZM225.578 783.697C226.122 783.793 226.64 783.43 226.736 782.886C226.832 782.342 226.469 781.823 225.925 781.727L225.578 783.697ZM216.005 779.967C215.461 779.87 214.942 780.232 214.845 780.776C214.748 781.32 215.11 781.839 215.654 781.936L216.005 779.967ZM205.848 780.174C206.392 780.272 206.912 779.912 207.01 779.368C207.109 778.825 206.748 778.304 206.204 778.206L205.848 780.174ZM196.24 776.389C195.697 776.289 195.176 776.649 195.076 777.192C194.976 777.735 195.335 778.256 195.879 778.356L196.24 776.389ZM185.884 776.503C186.427 776.605 186.95 776.247 187.051 775.704C187.153 775.161 186.795 774.639 186.252 774.537L185.884 776.503ZM176.422 772.68C175.88 772.577 175.356 772.933 175.253 773.475C175.149 774.018 175.505 774.541 176.048 774.645L176.422 772.68ZM166.274 772.76C166.816 772.865 167.341 772.512 167.447 771.97C167.552 771.427 167.199 770.902 166.656 770.797L166.274 772.76ZM156.59 768.809C156.049 768.701 155.522 769.052 155.414 769.594C155.305 770.135 155.657 770.662 156.198 770.771L156.59 768.809ZM146.333 768.771C146.874 768.882 147.403 768.534 147.514 767.993C147.625 767.452 147.277 766.923 146.736 766.812L146.333 768.771ZM137.104 764.804C136.563 764.689 136.033 765.034 135.918 765.575C135.804 766.115 136.149 766.646 136.689 766.76L137.104 764.804ZM126.603 764.588C127.143 764.706 127.676 764.365 127.794 763.825C127.912 763.286 127.571 762.753 127.031 762.635L126.603 764.588ZM117.187 760.436C116.649 760.314 116.113 760.651 115.99 761.19C115.867 761.728 116.205 762.264 116.743 762.387L117.187 760.436ZM107.182 760.166C107.719 760.293 108.258 759.961 108.386 759.423C108.513 758.886 108.181 758.347 107.643 758.22L107.182 760.166ZM97.5991 755.78C97.0632 755.647 96.5206 755.973 96.3871 756.509C96.2537 757.045 96.58 757.587 97.1159 757.721L97.5991 755.78ZM87.3595 755.227C87.8937 755.367 88.4404 755.048 88.5807 754.514C88.721 753.98 88.4017 753.433 87.8675 753.293L87.3595 755.227ZM78.3676 750.724C77.8355 750.576 77.2841 750.887 77.1358 751.419C76.9876 751.951 77.2987 752.502 77.8307 752.651L78.3676 750.724ZM67.85 749.77C68.3791 749.928 68.9364 749.628 69.0948 749.099C69.2532 748.57 68.9527 748.012 68.4236 747.854L67.85 749.77ZM59.0613 744.94C58.5359 744.77 57.972 745.058 57.8017 745.583C57.6315 746.109 57.9194 746.673 58.4448 746.843L59.0613 744.94ZM48.6662 743.52C49.1863 743.705 49.7586 743.434 49.9444 742.914C50.1303 742.394 49.8594 741.822 49.3393 741.636L48.6662 743.52ZM40.0825 738.138C39.5699 737.933 38.9877 738.182 38.7823 738.694C38.5768 739.207 38.8258 739.789 39.3384 739.995L40.0825 738.138ZM29.8952 735.927C30.3959 736.16 30.9907 735.943 31.2237 735.442C31.4566 734.941 31.2395 734.347 30.7387 734.114L29.8952 735.927ZM22.0945 729.713C21.613 729.443 21.0034 729.614 20.7329 730.095C20.4624 730.577 20.6335 731.186 21.115 731.457L22.0945 729.713ZM12.2914 725.774C12.7327 726.106 13.3597 726.018 13.6917 725.576C14.0237 725.135 13.9351 724.508 13.4938 724.176L12.2914 725.774ZM6.37421 717.498C6.02732 717.069 5.39772 717.001 4.96798 717.348C4.53823 717.695 4.47107 718.325 4.81797 718.755L6.37421 717.498ZM0.287113 709.546C0.389865 710.088 0.91306 710.445 1.4557 710.342C1.99834 710.239 2.35495 709.716 2.25219 709.173L0.287113 709.546ZM3.16143 699.66C3.31412 699.129 3.00763 698.575 2.47687 698.423C1.94612 698.27 1.39207 698.576 1.23938 699.107L3.16143 699.66ZM5.37168 689.793C5.08312 690.264 5.23095 690.879 5.70186 691.168C6.17276 691.456 6.78843 691.309 7.07699 690.838L5.37168 689.793ZM13.1572 683.101C13.5423 682.705 13.5337 682.072 13.1378 681.687C12.742 681.302 12.1089 681.311 11.7238 681.707L13.1572 683.101ZM19.3717 675.074C18.9283 675.403 18.8356 676.029 19.1648 676.473C19.4939 676.916 20.1203 677.009 20.5637 676.68L19.3717 675.074ZM28.7611 671.333C29.2393 671.057 29.4032 670.445 29.1271 669.967C28.8509 669.488 28.2393 669.325 27.761 669.601L28.7611 671.333ZM36.864 664.882C36.3636 665.116 36.1476 665.711 36.3814 666.211C36.6152 666.712 37.2104 666.928 37.7107 666.694L36.864 664.882ZM46.7651 662.823C47.2793 662.622 47.5328 662.042 47.3312 661.527C47.1296 661.013 46.5494 660.76 46.0352 660.961L46.7651 662.823ZM55.544 657.518C55.0204 657.693 54.7381 658.26 54.9136 658.783C55.0891 659.307 55.6558 659.589 56.1795 659.414L55.544 657.518ZM65.6977 656.441C66.228 656.287 66.5326 655.732 66.3781 655.202C66.2236 654.671 65.6685 654.367 65.1383 654.521L65.6977 656.441ZM74.8619 651.865C74.3269 652.002 74.0044 652.547 74.1415 653.082C74.2787 653.617 74.8235 653.939 75.3585 653.802L74.8619 651.865ZM85.0383 651.462C85.5768 651.34 85.9138 650.804 85.791 650.265C85.6683 649.727 85.1322 649.39 84.5938 649.512L85.0383 651.462ZM94.514 647.373C93.9729 647.483 93.6237 648.012 93.7342 648.553C93.8446 649.094 94.3728 649.443 94.9139 649.333L94.514 647.373ZM104.62 647.45C105.163 647.35 105.522 646.828 105.422 646.285C105.322 645.742 104.8 645.383 104.257 645.483L104.62 647.45ZM114.352 643.712C113.807 643.803 113.439 644.318 113.53 644.863C113.621 645.408 114.137 645.776 114.681 645.685L114.352 643.712ZM124.386 644.136C124.932 644.052 125.307 643.542 125.224 642.996C125.141 642.45 124.631 642.075 124.085 642.158L124.386 644.136ZM134.065 640.701C133.518 640.777 133.136 641.283 133.213 641.83C133.289 642.377 133.795 642.758 134.342 642.681L134.065 640.701ZM144.308 641.345C144.856 641.274 145.242 640.773 145.172 640.225C145.101 639.678 144.6 639.291 144.053 639.361L144.308 641.345ZM153.927 638.139C153.378 638.205 152.987 638.702 153.052 639.25C153.117 639.799 153.615 640.191 154.163 640.125L153.927 638.139ZM164.227 638.972C164.776 638.912 165.171 638.417 165.111 637.869C165.05 637.32 164.556 636.924 164.007 636.984L164.227 638.972ZM173.922 635.928C173.373 635.985 172.973 636.476 173.03 637.025C173.086 637.575 173.578 637.974 174.127 637.918L173.922 635.928ZM184.069 636.929C184.619 636.876 185.021 636.388 184.968 635.838C184.916 635.288 184.427 634.885 183.877 634.938L184.069 636.929ZM193.987 633.997C193.437 634.046 193.031 634.532 193.081 635.083C193.131 635.633 193.617 636.038 194.167 635.989L193.987 633.997ZM204.053 635.123C204.604 635.076 205.012 634.592 204.965 634.041C204.918 633.491 204.434 633.083 203.884 633.13L204.053 635.123ZM213.872 632.303C213.322 632.348 212.912 632.83 212.956 633.38C213 633.931 213.482 634.341 214.033 634.297L213.872 632.303ZM224.128 633.505C224.679 633.463 225.091 632.982 225.049 632.431C225.007 631.881 224.526 631.468 223.976 631.51L224.128 633.505ZM233.889 630.77C233.338 630.81 232.924 631.289 232.965 631.84C233.005 632.391 233.484 632.805 234.035 632.764L233.889 630.77ZM244.028 632.049C244.579 632.011 244.994 631.533 244.956 630.982C244.917 630.431 244.439 630.016 243.888 630.054L244.028 632.049ZM253.969 629.361C253.418 629.398 253.002 629.875 253.039 630.426C253.076 630.977 253.553 631.394 254.104 631.357L253.969 629.361ZM264.046 630.696C264.597 630.66 265.015 630.184 264.979 629.633C264.943 629.082 264.467 628.664 263.915 628.7L264.046 630.696ZM273.916 628.055C273.365 628.09 272.946 628.565 272.981 629.116C273.017 629.667 273.492 630.086 274.043 630.051L273.916 628.055ZM284.094 629.417C284.646 629.383 285.065 628.908 285.03 628.357C284.996 627.806 284.521 627.387 283.97 627.421L284.094 629.417ZM293.95 626.804C293.399 626.837 292.979 627.312 293.013 627.863C293.047 628.414 293.521 628.834 294.072 628.8L293.95 626.804ZM304.071 628.189C304.622 628.156 305.042 627.682 305.009 627.13C304.975 626.579 304.501 626.159 303.95 626.193L304.071 628.189ZM313.978 625.585C313.427 625.618 313.007 626.092 313.041 626.643C313.074 627.195 313.548 627.614 314.099 627.581L313.978 625.585ZM324.104 626.975C324.655 626.942 325.075 626.468 325.042 625.917C325.008 625.366 324.534 624.946 323.983 624.979L324.104 626.975ZM333.985 624.371C333.434 624.405 333.014 624.879 333.048 625.43C333.082 625.982 333.556 626.401 334.107 626.368L333.985 624.371ZM344.116 625.754C344.667 625.72 345.086 625.245 345.052 624.694C345.018 624.143 344.544 623.723 343.993 623.757L344.116 625.754ZM354.006 623.134C353.455 623.169 353.036 623.644 353.071 624.195C353.106 624.746 353.581 625.165 354.132 625.13L354.006 623.134ZM364.144 624.495C364.695 624.459 365.113 623.984 365.078 623.433C365.042 622.881 364.567 622.463 364.016 622.499L364.144 624.495ZM374.007 621.849C373.456 621.885 373.038 622.361 373.075 622.912C373.111 623.463 373.587 623.881 374.138 623.844L374.007 621.849ZM384.149 623.174C384.7 623.136 385.116 622.659 385.079 622.108C385.041 621.557 384.564 621.141 384.013 621.178L384.149 623.174ZM394.033 620.484C393.483 620.523 393.067 621.001 393.106 621.552C393.145 622.103 393.623 622.518 394.174 622.479L394.033 620.484ZM404.158 621.76C404.709 621.72 405.123 621.24 405.082 620.69C405.042 620.139 404.562 619.725 404.012 619.765L404.158 621.76ZM413.997 619.016C413.446 619.058 413.034 619.539 413.076 620.09C413.119 620.64 413.599 621.052 414.15 621.01L413.997 619.016ZM424.19 620.221C424.741 620.177 425.151 619.695 425.107 619.145C425.062 618.594 424.58 618.184 424.03 618.228L424.19 620.221ZM433.994 617.406C433.444 617.453 433.035 617.936 433.082 618.487C433.129 619.037 433.612 619.445 434.163 619.399L433.994 617.406ZM444.129 618.533C444.679 618.484 445.085 617.998 445.036 617.448C444.987 616.898 444.501 616.492 443.951 616.541L444.129 618.533ZM453.993 615.619C453.443 615.671 453.039 616.159 453.091 616.709C453.143 617.258 453.631 617.662 454.181 617.61L453.993 615.619ZM464.136 616.642C464.685 616.587 465.086 616.096 465.031 615.547C464.976 614.997 464.486 614.597 463.936 614.652L464.136 616.642ZM473.868 613.625C473.319 613.684 472.921 614.176 472.979 614.726C473.038 615.275 473.531 615.673 474.08 615.614L473.868 613.625ZM484.131 614.507C484.68 614.445 485.074 613.95 485.012 613.401C484.949 612.852 484.454 612.458 483.905 612.52L484.131 614.507ZM493.808 611.356C493.26 611.423 492.869 611.921 492.936 612.469C493.003 613.017 493.501 613.408 494.049 613.341L493.808 611.356ZM503.989 612.09C504.537 612.019 504.923 611.517 504.852 610.97C504.78 610.422 504.279 610.036 503.731 610.107L503.989 612.09ZM513.734 608.756C513.187 608.833 512.806 609.338 512.882 609.885C512.959 610.432 513.464 610.813 514.011 610.737L513.734 608.756ZM523.856 609.306C524.403 609.223 524.779 608.714 524.696 608.168C524.614 607.622 524.104 607.246 523.558 607.328L523.856 609.306ZM533.502 605.769C532.956 605.858 532.587 606.372 532.675 606.917C532.764 607.462 533.278 607.832 533.823 607.743L533.502 605.769ZM543.76 606.057C544.304 605.961 544.667 605.442 544.57 604.898C544.474 604.354 543.956 603.991 543.412 604.088L543.76 606.057ZM553.086 602.307C552.544 602.411 552.188 602.935 552.292 603.477C552.396 604.02 552.921 604.375 553.463 604.271L553.086 602.307ZM563.494 602.261C564.034 602.147 564.38 601.617 564.267 601.077C564.154 600.536 563.624 600.19 563.083 600.303L563.494 602.261ZM572.794 598.175C572.255 598.298 571.919 598.835 572.043 599.373C572.166 599.911 572.703 600.248 573.241 600.124L572.794 598.175ZM583.022 597.771C583.557 597.636 583.882 597.092 583.747 596.557C583.612 596.021 583.068 595.697 582.533 595.832L583.022 597.771ZM592.248 593.252C591.716 593.401 591.405 593.953 591.554 594.484C591.702 595.016 592.254 595.327 592.786 595.179L592.248 593.252ZM602.302 592.376C602.83 592.212 603.125 591.651 602.961 591.124C602.797 590.597 602.237 590.302 601.709 590.466L602.302 592.376ZM611.348 587.292C610.826 587.475 610.551 588.045 610.733 588.566C610.915 589.088 611.485 589.363 612.007 589.181L611.348 587.292ZM621.248 585.753C621.761 585.55 622.014 584.969 621.811 584.456C621.608 583.942 621.028 583.69 620.514 583.892L621.248 585.753ZM629.896 579.927C629.393 580.155 629.17 580.748 629.398 581.251C629.626 581.754 630.219 581.977 630.722 581.749L629.896 579.927ZM639.621 577.405C640.11 577.148 640.298 576.544 640.041 576.055C639.784 575.566 639.179 575.378 638.69 575.636L639.621 577.405ZM647.455 570.61C646.987 570.903 646.845 571.52 647.138 571.988C647.432 572.456 648.049 572.598 648.517 572.305L647.455 570.61ZM656.788 566.595C657.227 566.259 657.311 565.632 656.976 565.193C656.64 564.754 656.013 564.67 655.574 565.005L656.788 566.595ZM663.061 558.589C662.664 558.973 662.654 559.606 663.038 560.003C663.422 560.4 664.055 560.41 664.452 560.026L663.061 558.589ZM671.264 552.416C671.6 551.977 671.517 551.349 671.079 551.014C670.64 550.678 670.012 550.761 669.677 551.199L671.264 552.416ZM674.929 542.978C674.675 543.468 674.866 544.072 675.356 544.326C675.846 544.58 676.45 544.389 676.704 543.899L674.929 542.978ZM680.512 534.424C680.666 533.894 680.362 533.339 679.832 533.184C679.301 533.029 678.746 533.334 678.592 533.864L680.512 534.424ZM680.398 524.304C680.347 524.854 680.752 525.341 681.302 525.392C681.852 525.442 682.339 525.038 682.389 524.488L680.398 524.304ZM682.135 514.15C682.029 513.608 681.505 513.254 680.962 513.359C680.42 513.465 680.066 513.99 680.172 514.532L682.135 514.15ZM676.789 505.758C677.067 506.235 677.679 506.396 678.156 506.118C678.633 505.84 678.795 505.228 678.517 504.751L676.789 505.758ZM672.412 496.754C672.031 496.354 671.398 496.338 670.998 496.718C670.598 497.098 670.582 497.731 670.962 498.132L672.412 496.754ZM663.638 491.583C664.075 491.921 664.703 491.842 665.041 491.405C665.38 490.969 665.3 490.34 664.863 490.002L663.638 491.583ZM656.688 484.335C656.22 484.042 655.603 484.184 655.31 484.652C655.017 485.12 655.159 485.737 655.627 486.03L656.688 484.335ZM647.222 481.196C647.709 481.455 648.315 481.27 648.574 480.782C648.833 480.295 648.648 479.689 648.16 479.43L647.222 481.196ZM639.049 474.916C638.547 474.684 637.953 474.902 637.721 475.403C637.488 475.904 637.706 476.498 638.207 476.731L639.049 474.916ZM629.401 472.87C629.911 473.082 630.496 472.84 630.708 472.33C630.92 471.82 630.678 471.235 630.168 471.023L629.401 472.87ZM620.779 467.311C620.262 467.117 619.686 467.378 619.491 467.895C619.296 468.411 619.557 468.988 620.074 469.183L620.779 467.311ZM610.966 465.892C611.488 466.073 612.057 465.797 612.238 465.275C612.419 464.753 612.143 464.183 611.621 464.002L610.966 465.892ZM602.025 460.799C601.499 460.63 600.935 460.919 600.766 461.445C600.597 461.971 600.887 462.534 601.412 462.703L602.025 460.799ZM592.187 459.834C592.716 459.993 593.274 459.693 593.433 459.165C593.592 458.636 593.293 458.078 592.764 457.919L592.187 459.834ZM583.122 455.104C582.591 454.954 582.038 455.263 581.888 455.794C581.737 456.326 582.046 456.878 582.578 457.029L583.122 455.104ZM573.164 454.436C573.697 454.579 574.245 454.262 574.388 453.729C574.531 453.195 574.215 452.647 573.682 452.504L573.164 454.436ZM564.099 449.999C563.564 449.863 563.019 450.186 562.883 450.721C562.746 451.257 563.07 451.801 563.605 451.937L564.099 449.999ZM553.945 449.533C554.481 449.663 555.022 449.334 555.153 448.797C555.283 448.261 554.954 447.72 554.417 447.589L553.945 449.533ZM544.9 445.324C544.362 445.198 543.824 445.533 543.699 446.071C543.573 446.608 543.908 447.146 544.446 447.271L544.9 445.324ZM534.723 445.051C535.262 445.172 535.797 444.832 535.918 444.294C536.038 443.755 535.699 443.22 535.16 443.099L534.723 445.051ZM525.544 440.986C525.004 440.869 524.472 441.212 524.356 441.752C524.239 442.292 524.582 442.824 525.122 442.941L525.544 440.986ZM515.495 440.899C516.036 441.011 516.566 440.664 516.678 440.124C516.791 439.583 516.444 439.053 515.904 438.941L515.495 440.899ZM506.097 436.928C505.555 436.819 505.028 437.169 504.918 437.711C504.809 438.252 505.159 438.78 505.701 438.889L506.097 436.928ZM496.11 436.981C496.652 437.087 497.178 436.734 497.284 436.192C497.39 435.65 497.037 435.124 496.495 435.018L496.11 436.981ZM486.791 433.142C486.249 433.038 485.725 433.394 485.622 433.937C485.518 434.479 485.874 435.003 486.417 435.106L486.791 433.142ZM476.613 433.261C477.156 433.362 477.678 433.003 477.779 432.46C477.88 431.917 477.521 431.395 476.978 431.294L476.613 433.261ZM467.341 429.524C466.798 429.426 466.278 429.786 466.179 430.33C466.08 430.873 466.441 431.393 466.984 431.492L467.341 429.524ZM457.257 429.746C457.801 429.842 458.32 429.48 458.417 428.936C458.513 428.392 458.151 427.873 457.607 427.777L457.257 429.746ZM447.803 426.054C447.259 425.959 446.741 426.323 446.646 426.867C446.552 427.411 446.916 427.929 447.46 428.024L447.803 426.054ZM437.785 426.356C438.329 426.449 438.846 426.083 438.939 425.539C439.032 424.995 438.666 424.478 438.122 424.385L437.785 426.356ZM428.373 422.734C427.829 422.643 427.313 423.01 427.221 423.555C427.13 424.1 427.497 424.615 428.042 424.707L428.373 422.734ZM418.248 423.075C418.792 423.165 419.307 422.797 419.397 422.252C419.487 421.707 419.119 421.192 418.574 421.102L418.248 423.075ZM408.859 419.508C408.313 419.419 407.8 419.789 407.711 420.334C407.622 420.879 407.992 421.393 408.537 421.482L408.859 419.508ZM398.785 419.903C399.33 419.99 399.844 419.619 399.931 419.074C400.019 418.529 399.648 418.016 399.103 417.928L398.785 419.903ZM389.315 416.362C388.769 416.275 388.257 416.646 388.17 417.192C388.083 417.737 388.455 418.25 389 418.337L389.315 416.362ZM379.257 416.793C379.802 416.879 380.314 416.507 380.4 415.961C380.486 415.416 380.114 414.904 379.568 414.818L379.257 416.793ZM369.807 413.286C369.261 413.2 368.75 413.573 368.664 414.119C368.579 414.665 368.952 415.176 369.498 415.262L369.807 413.286ZM359.731 413.74C360.276 413.825 360.788 413.451 360.872 412.905C360.957 412.359 360.583 411.848 360.038 411.763L359.731 413.74ZM350.263 410.25C349.717 410.165 349.206 410.539 349.122 411.085C349.037 411.631 349.411 412.142 349.957 412.226L350.263 410.25ZM340.191 410.721C340.737 410.805 341.247 410.43 341.331 409.884C341.415 409.339 341.041 408.828 340.495 408.744L340.191 410.721ZM330.743 407.245C330.197 407.162 329.687 407.536 329.603 408.082C329.519 408.628 329.894 409.138 330.44 409.222L330.743 407.245ZM320.649 407.72C321.195 407.804 321.706 407.429 321.789 406.883C321.873 406.337 321.498 405.827 320.952 405.743L320.649 407.72ZM311.177 404.244C310.632 404.16 310.121 404.535 310.037 405.081C309.954 405.626 310.328 406.137 310.874 406.221L311.177 404.244ZM301.139 404.725C301.685 404.809 302.196 404.435 302.28 403.889C302.364 403.343 301.989 402.833 301.443 402.749L301.139 404.725ZM291.646 401.239C291.1 401.155 290.589 401.529 290.505 402.075C290.421 402.621 290.795 403.131 291.341 403.216L291.646 401.239ZM281.558 401.701C282.104 401.786 282.615 401.412 282.699 400.867C282.784 400.321 282.41 399.81 281.865 399.725L281.558 401.701ZM272.151 398.212C271.606 398.127 271.094 398.5 271.009 399.046C270.923 399.591 271.297 400.103 271.842 400.188L272.151 398.212ZM262.038 398.649C262.584 398.735 263.096 398.362 263.182 397.817C263.268 397.271 262.895 396.759 262.35 396.673L262.038 398.649ZM252.568 395.122C252.023 395.035 251.51 395.407 251.423 395.952C251.336 396.497 251.708 397.01 252.253 397.097L252.568 395.122ZM242.566 395.543C243.111 395.631 243.625 395.26 243.713 394.715C243.801 394.17 243.43 393.657 242.885 393.569L242.566 395.543ZM233.071 391.972C232.526 391.883 232.011 392.252 231.922 392.797C231.833 393.342 232.202 393.857 232.747 393.946L233.071 391.972ZM222.975 392.331C223.519 392.422 224.035 392.054 224.125 391.509C224.216 390.964 223.848 390.449 223.303 390.358L222.975 392.331ZM213.672 388.738C213.128 388.646 212.611 389.012 212.519 389.557C212.426 390.101 212.793 390.617 213.337 390.71L213.672 388.738ZM203.478 389.017C204.022 389.112 204.54 388.747 204.635 388.203C204.729 387.659 204.365 387.141 203.82 387.047L203.478 389.017ZM194.099 385.339C193.555 385.242 193.036 385.604 192.939 386.148C192.843 386.692 193.205 387.211 193.749 387.308L194.099 385.339ZM184.114 385.571C184.657 385.67 185.178 385.311 185.278 384.767C185.377 384.224 185.017 383.703 184.474 383.604L184.114 385.571ZM174.629 381.777C174.086 381.675 173.563 382.032 173.461 382.575C173.358 383.118 173.716 383.641 174.258 383.743L174.629 381.777ZM164.63 381.898C165.172 382.004 165.697 381.65 165.803 381.108C165.909 380.566 165.555 380.041 165.013 379.935L164.63 381.898ZM155.284 378.004C154.742 377.894 154.215 378.244 154.105 378.785C153.996 379.327 154.346 379.854 154.887 379.964L155.284 378.004ZM145.162 377.954C145.703 378.068 146.233 377.723 146.347 377.182C146.461 376.642 146.116 376.111 145.575 375.997L145.162 377.954ZM136.068 373.943C135.528 373.823 134.995 374.164 134.875 374.703C134.756 375.242 135.096 375.776 135.636 375.895L136.068 373.943ZM125.812 373.663C126.35 373.789 126.887 373.455 127.013 372.917C127.139 372.379 126.805 371.841 126.267 371.715L125.812 373.663ZM116.869 369.455C116.333 369.322 115.791 369.649 115.658 370.185C115.525 370.721 115.852 371.264 116.388 371.396L116.869 369.455ZM106.591 368.883C107.125 369.025 107.673 368.707 107.815 368.173C107.957 367.64 107.639 367.092 107.105 366.95L106.591 368.883ZM97.7883 364.375C97.2575 364.222 96.7035 364.528 96.5508 365.059C96.3981 365.59 96.7046 366.144 97.2354 366.297L97.7883 364.375ZM87.5442 363.375C88.0707 363.542 88.6327 363.25 88.7995 362.723C88.9662 362.197 88.6745 361.635 88.148 361.468L87.5442 363.375ZM79.0534 358.43C78.5327 358.245 77.9613 358.518 77.7773 359.039C77.5932 359.56 77.8661 360.131 78.3868 360.315L79.0534 358.43ZM68.8764 356.711C69.3878 356.919 69.9715 356.674 70.1802 356.163C70.3889 355.651 70.1436 355.068 69.6323 354.859L68.8764 356.711ZM60.6607 350.858C60.1649 350.615 59.5657 350.819 59.3224 351.315C59.0791 351.811 59.2837 352.41 59.7795 352.654L60.6607 350.858ZM51.1685 347.88C51.6348 348.176 52.2527 348.038 52.5487 347.572C52.8448 347.106 52.7068 346.488 52.2405 346.192L51.1685 347.88ZM44.6325 340.324C44.2375 339.938 43.6044 339.945 43.2184 340.34C42.8324 340.735 42.8397 341.368 43.2347 341.754L44.6325 340.324ZM37.4846 333.211C37.6622 333.734 38.2301 334.014 38.753 333.836C39.276 333.659 39.556 333.091 39.3784 332.568L37.4846 333.211ZM39.0497 322.983C39.1093 322.434 38.7126 321.941 38.1635 321.881C37.6145 321.821 37.121 322.218 37.0614 322.767L39.0497 322.983ZM38.9611 312.74C38.8147 313.273 39.1276 313.823 39.6601 313.97C40.1926 314.116 40.7431 313.803 40.8895 313.271L38.9611 312.74ZM44.3198 303.937C44.5529 303.436 44.3361 302.841 43.8354 302.608C43.3347 302.375 42.7399 302.592 42.5067 303.093L44.3198 303.937ZM47.5748 294.172C47.2652 294.63 47.3849 295.252 47.8422 295.561C48.2995 295.871 48.9213 295.751 49.2309 295.294L47.5748 294.172ZM55.3797 287.49C55.7504 287.08 55.7191 286.448 55.3097 286.077C54.9003 285.706 54.2679 285.738 53.8972 286.147L55.3797 287.49ZM61.2183 278.995C60.8017 279.358 60.7579 279.989 61.1205 280.406C61.4831 280.823 62.1147 280.866 62.5313 280.504L61.2183 278.995ZM70.4805 274.266C70.9306 273.946 71.0361 273.322 70.7161 272.871C70.3961 272.421 69.7718 272.316 69.3217 272.636L70.4805 274.266ZM77.7986 267.114C77.3247 267.398 77.1705 268.012 77.4541 268.486C77.7378 268.959 78.3519 269.114 78.8258 268.83L77.7986 267.114ZM87.6093 263.963C88.1005 263.71 88.294 263.107 88.0416 262.616C87.7891 262.125 87.1862 261.932 86.695 262.184L87.6093 263.963ZM95.9749 257.735C95.4709 257.96 95.2453 258.552 95.471 259.056C95.6968 259.56 96.2884 259.786 96.7924 259.56L95.9749 257.735ZM105.982 255.689C106.495 255.485 106.747 254.904 106.543 254.39C106.339 253.877 105.758 253.626 105.245 253.83L105.982 255.689ZM114.797 250.249C114.276 250.434 114.004 251.006 114.188 251.526C114.373 252.047 114.944 252.319 115.465 252.135L114.797 250.249ZM125.03 248.914C125.557 248.746 125.846 248.183 125.678 247.657C125.51 247.131 124.947 246.841 124.421 247.009L125.03 248.914ZM134.115 244.051C133.585 244.205 133.28 244.76 133.435 245.291C133.589 245.821 134.144 246.125 134.675 245.971L134.115 244.051ZM144.453 243.245C144.987 243.102 145.304 242.554 145.161 242.021C145.019 241.487 144.471 241.17 143.937 241.313L144.453 243.245ZM153.721 238.803C153.184 238.935 152.857 239.477 152.989 240.013C153.121 240.549 153.663 240.877 154.199 240.745L153.721 238.803ZM164.094 238.393C164.632 238.27 164.969 237.733 164.845 237.195C164.722 236.656 164.186 236.32 163.647 236.443L164.094 238.393ZM173.498 234.26C172.958 234.376 172.614 234.908 172.73 235.448C172.846 235.988 173.377 236.332 173.917 236.216L173.498 234.26ZM183.871 234.145C184.413 234.036 184.763 233.509 184.654 232.967C184.544 232.426 184.017 232.076 183.476 232.185L183.871 234.145ZM193.382 230.239C192.84 230.343 192.484 230.867 192.588 231.409C192.692 231.952 193.216 232.307 193.758 232.204L193.382 230.239ZM203.74 230.34C204.283 230.241 204.644 229.721 204.544 229.177C204.445 228.634 203.925 228.274 203.381 228.373L203.74 230.34ZM213.334 226.596C212.79 226.691 212.426 227.209 212.522 227.753C212.617 228.297 213.135 228.661 213.679 228.566L213.334 226.596ZM223.673 226.849C224.217 226.757 224.584 226.241 224.492 225.696C224.4 225.152 223.884 224.785 223.339 224.877L223.673 226.849ZM233.327 223.214C232.782 223.303 232.412 223.818 232.502 224.362C232.592 224.907 233.106 225.277 233.651 225.187L233.327 223.214ZM243.649 223.562C244.194 223.475 244.565 222.962 244.477 222.416C244.39 221.871 243.877 221.5 243.331 221.588L243.649 223.562ZM253.339 219.99C252.794 220.077 252.422 220.589 252.508 221.134C252.595 221.68 253.107 222.052 253.653 221.965L253.339 219.99ZM263.653 220.385C264.198 220.299 264.571 219.787 264.485 219.242C264.399 218.696 263.887 218.324 263.341 218.41L263.653 220.385ZM273.355 216.832C272.81 216.918 272.437 217.43 272.523 217.976C272.609 218.521 273.121 218.894 273.667 218.808L273.355 216.832ZM283.668 217.226C284.213 217.139 284.585 216.626 284.499 216.081C284.412 215.536 283.899 215.164 283.354 215.25L283.668 217.226ZM293.359 213.649C292.814 213.737 292.444 214.25 292.532 214.795C292.62 215.34 293.133 215.711 293.678 215.623L293.359 213.649ZM303.678 213.991C304.223 213.901 304.592 213.386 304.502 212.841C304.412 212.296 303.897 211.928 303.352 212.018L303.678 213.991ZM313.337 210.344C312.792 210.436 312.426 210.953 312.519 211.497C312.612 212.042 313.128 212.408 313.673 212.315L313.337 210.344ZM323.665 210.581C324.209 210.484 324.572 209.966 324.476 209.422C324.379 208.878 323.86 208.515 323.317 208.611L323.665 210.581ZM333.27 206.809C332.727 206.91 332.369 207.432 332.469 207.975C332.57 208.518 333.092 208.876 333.635 208.776L333.27 206.809ZM343.604 206.879C344.146 206.773 344.499 206.247 344.393 205.705C344.287 205.163 343.762 204.81 343.22 204.916L343.604 206.879ZM353.135 202.917C352.595 203.029 352.247 203.559 352.36 204.099C352.472 204.64 353.002 204.987 353.543 204.875L353.135 202.917ZM363.456 202.741C363.995 202.621 364.335 202.086 364.215 201.547C364.094 201.008 363.56 200.668 363.021 200.789L363.456 202.741ZM372.89 198.501C372.353 198.631 372.023 199.171 372.152 199.708C372.282 200.245 372.822 200.575 373.359 200.446L372.89 198.501ZM383.159 197.98C383.693 197.839 384.012 197.293 383.872 196.758C383.731 196.224 383.185 195.905 382.65 196.046L383.159 197.98ZM392.453 193.342C391.922 193.496 391.617 194.051 391.77 194.581C391.924 195.112 392.478 195.417 393.009 195.263L392.453 193.342ZM402.608 192.334C403.134 192.164 403.423 191.601 403.254 191.075C403.084 190.549 402.521 190.261 401.995 190.43L402.608 192.334ZM411.655 187.128C411.136 187.317 410.868 187.89 411.057 188.409C411.245 188.929 411.819 189.196 412.338 189.008L411.655 187.128ZM421.807 185.332C422.317 185.12 422.559 184.535 422.347 184.025C422.135 183.515 421.55 183.273 421.04 183.485L421.807 185.332ZM430.15 179.408C429.653 179.649 429.444 180.246 429.684 180.744C429.925 181.241 430.523 181.449 431.02 181.209L430.15 179.408ZM440.13 176.407C440.609 176.132 440.773 175.52 440.497 175.042C440.221 174.563 439.609 174.399 439.131 174.675L440.13 176.407ZM447.589 169.276C447.139 169.596 447.033 170.22 447.353 170.67C447.672 171.121 448.297 171.227 448.747 170.907L447.589 169.276ZM456.703 164.531C457.111 164.159 457.14 163.527 456.768 163.118C456.396 162.71 455.763 162.681 455.355 163.053L456.703 164.531ZM462.154 155.839C461.81 156.271 461.88 156.9 462.312 157.245C462.743 157.589 463.373 157.519 463.717 157.087L462.154 155.839ZM469.353 148.462C469.607 147.972 469.416 147.368 468.925 147.114C468.435 146.86 467.831 147.051 467.577 147.541L469.353 148.462ZM471.163 138.314C471.021 138.847 471.337 139.396 471.871 139.538C472.404 139.681 472.953 139.364 473.095 138.831L471.163 138.314ZM474.685 128.683C474.714 128.131 474.291 127.66 473.739 127.631C473.188 127.602 472.717 128.025 472.688 128.577L474.685 128.683ZM472.307 118.739C472.376 119.287 472.875 119.676 473.423 119.607C473.971 119.539 474.36 119.039 474.292 118.491L472.307 118.739ZM472.998 108.451C473.014 107.899 472.58 107.438 472.028 107.422C471.476 107.405 471.015 107.84 470.999 108.392L472.998 108.451ZM473.634 98.502C473.381 98.9932 473.575 99.5961 474.066 99.8484C474.558 100.101 475.16 99.9069 475.413 99.4156L473.634 98.502ZM481.138 91.6678C481.523 91.2716 481.514 90.6385 481.118 90.2537C480.722 89.8689 480.089 89.8781 479.704 90.2742L481.138 91.6678ZM487.346 83.7499C486.899 84.0743 486.799 84.6996 487.124 85.1466C487.448 85.5936 488.074 85.693 488.521 85.3687L487.346 83.7499ZM496.703 80.1216C497.182 79.847 497.348 79.236 497.073 78.7568C496.798 78.2776 496.187 78.1117 495.708 78.3862L496.703 80.1216ZM504.539 73.7734C504.041 74.0119 503.831 74.6091 504.069 75.1072C504.308 75.6053 504.905 75.8157 505.403 75.5771L504.539 73.7734ZM514.519 71.5254C515.029 71.3141 515.272 70.7292 515.06 70.2189C514.849 69.7086 514.264 69.4662 513.754 69.6775L514.519 71.5254ZM523.009 66.0729C522.491 66.2632 522.225 66.8379 522.415 67.3563C522.606 67.8748 523.18 68.1407 523.699 67.9504L523.009 66.0729ZM533.002 64.7092C533.526 64.5356 533.81 63.9698 533.637 63.4455C533.463 62.9212 532.898 62.637 532.373 62.8105L533.002 64.7092ZM541.997 59.77C541.469 59.9296 541.169 60.4876 541.329 61.0164C541.488 61.545 542.046 61.8443 542.575 61.6848L541.997 59.77ZM551.956 58.9664C552.489 58.8182 552.8 58.2668 552.652 57.7348C552.503 57.2028 551.952 56.8915 551.42 57.0397L551.956 58.9664ZM561.154 54.4302C560.62 54.5683 560.298 55.1138 560.436 55.6485C560.574 56.1832 561.12 56.5048 561.654 56.3666L561.154 54.4302ZM571.154 53.9944C571.691 53.8647 572.021 53.3245 571.892 52.7876C571.762 52.2507 571.222 51.9207 570.685 52.0504L571.154 53.9944ZM580.47 49.761C579.932 49.8832 579.594 50.4188 579.716 50.9574C579.838 51.496 580.374 51.8337 580.912 51.7115L580.47 49.761ZM590.5 49.6002C591.04 49.4846 591.385 48.9531 591.269 48.413C591.153 47.873 590.622 47.5289 590.082 47.6445L590.5 49.6002ZM599.913 45.5983C599.371 45.7079 599.021 46.2356 599.131 46.7769C599.241 47.3182 599.768 47.6681 600.31 47.5585L599.913 45.5983ZM609.95 45.6554C610.492 45.551 610.847 45.0267 610.743 44.4844C610.638 43.942 610.114 43.587 609.572 43.6914L609.95 45.6554ZM619.397 41.8458C618.854 41.9454 618.494 42.4666 618.594 43.0098C618.693 43.553 619.214 43.9127 619.758 43.813L619.397 41.8458ZM629.476 42.0714C630.02 41.9761 630.384 41.4578 630.289 40.9138C630.193 40.3698 629.675 40.006 629.131 40.1014L629.476 42.0714ZM638.944 38.4194C638.399 38.5107 638.032 39.0264 638.123 39.571C638.215 40.1157 638.73 40.4832 639.275 40.3918L638.944 38.4194ZM649.059 38.7844C649.605 38.6966 649.976 38.1834 649.888 37.6382C649.8 37.0929 649.287 36.722 648.742 36.8098L649.059 38.7844ZM658.551 35.2619C658.005 35.3464 657.631 35.8573 657.715 36.4031C657.8 36.9489 658.311 37.3229 658.856 37.2384L658.551 35.2619ZM668.68 35.7466C669.226 35.6652 669.603 35.1564 669.522 34.6102C669.44 34.0639 668.932 33.6871 668.385 33.7685L668.68 35.7466ZM678.204 32.3312C677.657 32.4099 677.278 32.9167 677.356 33.4634C677.435 34.0101 677.942 34.3895 678.488 34.3109L678.204 32.3312ZM688.32 32.9211C688.867 32.8451 689.249 32.34 689.173 31.793C689.097 31.246 688.592 30.8641 688.045 30.9401L688.32 32.9211ZM697.89 29.5942C697.342 29.6679 696.958 30.1713 697.032 30.7186C697.106 31.266 697.609 31.65 698.156 31.5764L697.89 29.5942ZM707.981 30.2753C708.529 30.2039 708.915 29.702 708.843 29.1544C708.772 28.6067 708.27 28.2206 707.722 28.2921L707.981 30.2753ZM717.594 27.0236C717.047 27.093 716.659 27.5934 716.728 28.1413C716.797 28.6892 717.298 29.0771 717.846 29.0078L717.594 27.0236ZM727.68 27.7799C728.228 27.7124 728.618 27.2133 728.55 26.6652C728.483 26.1171 727.984 25.7274 727.436 25.7949L727.68 27.7799ZM737.306 24.5955C736.758 24.6613 736.366 25.1592 736.432 25.7075C736.498 26.2559 736.996 26.6471 737.544 26.5813L737.306 24.5955ZM747.404 25.4134C747.953 25.3492 748.345 24.8525 748.281 24.304C748.217 23.7554 747.72 23.3628 747.172 23.4269L747.404 25.4134ZM757.017 22.2882C756.468 22.351 756.074 22.8467 756.137 23.3954C756.2 23.9441 756.696 24.338 757.244 24.2753L757.017 22.2882ZM767.143 23.1553C767.692 23.0938 768.087 22.5991 768.026 22.0502C767.964 21.5013 767.47 21.1063 766.921 21.1677L767.143 23.1553ZM776.728 20.0801C776.179 20.1404 775.783 20.6343 775.843 21.1833C775.903 21.7323 776.397 22.1284 776.946 22.0681L776.728 20.0801ZM786.891 20.9847C787.44 20.9254 787.837 20.4322 787.778 19.8831C787.719 19.334 787.225 18.937 786.676 18.9963L786.891 20.9847ZM796.447 17.948C795.898 18.0065 795.5 18.4992 795.559 19.0483C795.617 19.5975 796.11 19.9953 796.659 19.9368L796.447 17.948ZM806.645 18.8788C807.194 18.8209 807.593 18.3287 807.535 17.7795C807.477 17.2303 806.985 16.8319 806.435 16.8898L806.645 18.8788ZM816.194 15.8653C815.645 15.9228 815.246 16.4147 815.304 16.964C815.361 17.5132 815.853 17.9119 816.402 17.8545L816.194 15.8653ZM826.4 16.8102C826.95 16.7529 827.348 16.2611 827.291 15.7118C827.234 15.1625 826.742 14.7637 826.193 14.821L826.4 16.8102ZM835.989 13.7978C835.44 13.8553 835.041 14.3472 835.098 14.8965C835.156 15.4457 835.648 15.8444 836.197 15.787L835.989 13.7978ZM846.129 14.743C846.679 14.6849 847.077 14.1926 847.019 13.6434C846.961 13.0942 846.468 12.696 845.919 12.754L846.129 14.743ZM855.822 11.6975C855.273 11.7567 854.876 12.2499 854.935 12.799C854.994 13.3481 855.487 13.7452 856.036 13.686L855.822 11.6975ZM865.717 12.6255C866.266 12.5643 866.661 12.0698 866.6 11.5209C866.539 10.972 866.044 10.5767 865.495 10.6379L865.717 12.6255ZM875.532 9.4892C874.983 9.55389 874.591 10.051 874.656 10.5994C874.72 11.1479 875.218 11.5401 875.766 11.4754L875.532 9.4892ZM885.695 10.2534C886.243 10.1826 886.63 9.68109 886.559 9.13336C886.488 8.58563 885.986 8.19904 885.439 8.2699L885.695 10.2534ZM895.269 6.89948C894.723 6.98285 894.348 7.49298 894.431 8.03894C894.514 8.5849 895.025 8.9599 895.571 8.87653L895.269 6.89948ZM905.3 7.12311C905.839 7.0014 906.177 6.46613 906.055 5.92737C905.934 5.38867 905.398 5.05054 904.86 5.17218L905.3 7.12311ZM908.135 3.03345C908.665 3.18927 909.22 2.88599 909.376 2.35614C909.532 1.82629 909.229 1.27045 908.699 1.11469L908.135 3.03345ZM700.23 1001.76C701.661 1000.55 703.045 999.338 704.384 998.137L703.049 996.649C701.724 997.837 700.353 999.034 698.935 1000.24L700.23 1001.76ZM711.873 991.013C714.204 988.651 716.354 986.316 718.328 984.008L716.808 982.708C714.868 984.977 712.75 987.277 710.45 989.608L711.873 991.013ZM724.87 975.534C726.802 972.722 728.466 969.949 729.867 967.213L728.087 966.302C726.728 968.954 725.11 971.653 723.222 974.401L724.87 975.534ZM733.82 957.429C734.811 954.049 735.387 950.73 735.563 947.47L733.566 947.362C733.399 950.459 732.851 953.625 731.901 956.866L733.82 957.429ZM734.773 937.236C734.076 933.947 732.957 930.736 731.441 927.6L729.64 928.47C731.091 931.471 732.155 934.53 732.816 937.65L734.773 937.236ZM726.123 918.938C724.129 916.273 721.84 913.665 719.273 911.112L717.863 912.53C720.369 915.023 722.592 917.557 724.521 920.136L726.123 918.938ZM711.888 904.52C709.267 902.401 706.448 900.32 703.443 898.275L702.318 899.928C705.283 901.946 708.057 903.995 710.631 906.075L711.888 904.52ZM695.2 893.03C692.323 891.312 689.311 889.619 686.17 887.951L685.232 889.718C688.345 891.371 691.328 893.047 694.175 894.747L695.2 893.03ZM677.313 883.473C674.344 882.041 671.279 880.628 668.123 879.232L667.314 881.062C670.452 882.449 673.496 883.853 676.444 885.275L677.313 883.473ZM658.676 875.217C655.683 873.993 652.619 872.783 649.487 871.586L648.773 873.454C651.891 874.646 654.941 875.851 657.919 877.069L658.676 875.217ZM639.892 868.034C636.769 866.914 633.588 865.805 630.349 864.709L629.708 866.603C632.935 867.696 636.106 868.8 639.216 869.916L639.892 868.034ZM620.899 861.591C617.699 860.562 614.449 859.543 611.152 858.534L610.567 860.446C613.855 861.453 617.096 862.469 620.287 863.495L620.899 861.591ZM601.462 855.635C598.313 854.714 595.124 853.801 591.898 852.896L591.358 854.821C594.577 855.725 597.759 856.636 600.901 857.555L601.462 855.635ZM582.112 850.204C578.854 849.326 575.563 848.455 572.238 847.591L571.735 849.527C575.054 850.389 578.34 851.258 581.591 852.135L582.112 850.204ZM562.625 845.136C559.392 844.324 556.131 843.519 552.843 842.72L552.371 844.663C555.654 845.461 558.91 846.265 562.138 847.076L562.625 845.136ZM542.901 840.34C539.675 839.58 536.426 838.826 533.155 838.077L532.709 840.026C535.976 840.774 539.221 841.528 542.442 842.287L542.901 840.34ZM523.388 835.87C520.112 835.139 516.815 834.414 513.5 833.693L513.075 835.648C516.387 836.368 519.68 837.092 522.953 837.822L523.388 835.87ZM503.546 831.557C500.309 830.87 497.055 830.188 493.786 829.51L493.38 831.468C496.646 832.146 499.897 832.827 503.131 833.513L503.546 831.557ZM483.936 827.489C480.638 826.819 477.327 826.154 474.002 825.492L473.612 827.454C476.934 828.115 480.243 828.78 483.538 829.449L483.936 827.489ZM464.087 823.538C460.819 822.899 457.541 822.264 454.252 821.633L453.875 823.597C457.161 824.228 460.438 824.863 463.704 825.5L464.087 823.538ZM444.358 819.75C441.051 819.125 437.736 818.504 434.413 817.886L434.047 819.852C437.368 820.47 440.682 821.091 443.987 821.715L444.358 819.75ZM424.501 816.055C421.212 815.451 417.917 814.851 414.616 814.253L414.26 816.221C417.559 816.819 420.853 817.419 424.14 818.022L424.501 816.055ZM404.701 812.468C401.392 811.876 398.079 811.286 394.762 810.699L394.414 812.669C397.729 813.256 401.041 813.845 404.349 814.437L404.701 812.468ZM384.837 808.95C381.533 808.371 378.226 807.793 374.918 807.218L374.576 809.188C377.882 809.763 381.188 810.341 384.492 810.92L384.837 808.95ZM364.995 805.499C361.687 804.928 358.38 804.359 355.074 803.792L354.736 805.763C358.041 806.33 361.348 806.899 364.655 807.47L364.995 805.499ZM345.128 802.09C341.81 801.524 338.496 800.959 335.185 800.396L334.85 802.368C338.16 802.931 341.474 803.495 344.791 804.061L345.128 802.09ZM325.263 798.713C321.961 798.153 318.663 797.595 315.371 797.038L315.037 799.01C318.329 799.567 321.627 800.125 324.929 800.685L325.263 798.713ZM305.394 795.351C302.067 794.788 298.748 794.227 295.437 793.667L295.104 795.639C298.415 796.199 301.734 796.76 305.06 797.323L305.394 795.351ZM285.53 791.989C282.237 791.431 278.953 790.874 275.679 790.317L275.344 792.289C278.618 792.846 281.902 793.403 285.196 793.961L285.53 791.989ZM265.652 788.609C262.322 788.04 259.004 787.472 255.699 786.904L255.361 788.875C258.666 789.443 261.985 790.012 265.316 790.58L265.652 788.609ZM245.827 785.202C242.521 784.63 239.23 784.059 235.956 783.487L235.612 785.457C238.887 786.029 242.179 786.601 245.486 787.173L245.827 785.202ZM225.925 781.727C222.599 781.141 219.292 780.554 216.005 779.967L215.654 781.936C218.942 782.523 222.251 783.11 225.578 783.697L225.925 781.727ZM206.204 778.206C202.86 777.601 199.538 776.995 196.24 776.389L195.879 778.356C199.178 778.963 202.502 779.569 205.848 780.174L206.204 778.206ZM186.252 774.537C182.949 773.919 179.672 773.3 176.422 772.68L176.048 774.645C179.299 775.265 182.579 775.885 185.884 776.503L186.252 774.537ZM166.656 770.797C163.267 770.136 159.911 769.473 156.59 768.809L156.198 770.771C159.522 771.435 162.881 772.098 166.274 772.76L166.656 770.797ZM146.736 766.812C143.487 766.145 140.276 765.475 137.104 764.804L136.689 766.76C139.866 767.433 143.081 768.103 146.333 768.771L146.736 766.812ZM127.031 762.635C123.701 761.905 120.419 761.172 117.187 760.436L116.743 762.387C119.981 763.124 123.268 763.857 126.603 764.588L127.031 762.635ZM107.643 758.22C104.232 757.411 100.883 756.598 97.5991 755.78L97.1159 757.721C100.407 758.54 103.764 759.355 107.182 760.166L107.643 758.22ZM87.8675 753.293C84.6271 752.442 81.4593 751.586 78.3676 750.724L77.8307 752.651C80.9327 753.515 84.1101 754.374 87.3595 755.227L87.8675 753.293ZM68.4236 747.854C65.2043 746.89 62.0821 745.919 59.0613 744.94L58.4448 746.843C61.481 747.827 64.6176 748.802 67.85 749.77L68.4236 747.854ZM49.3393 741.636C46.1081 740.481 43.0203 739.316 40.0825 738.138L39.3384 739.995C42.3021 741.183 45.4138 742.357 48.6662 743.52L49.3393 741.636ZM30.7387 734.114C27.6232 732.665 24.7382 731.198 22.0945 729.713L21.115 731.457C23.8095 732.97 26.7407 734.46 29.8952 735.927L30.7387 734.114ZM13.4938 724.176C10.5739 721.979 8.19449 719.753 6.37421 717.498L4.81797 718.755C6.76589 721.168 9.27474 723.505 12.2914 725.774L13.4938 724.176ZM2.25219 709.173C1.95973 707.629 1.91952 706.06 2.14265 704.462L0.161854 704.185C-0.0912356 705.998 -0.0460401 707.786 0.287113 709.546L2.25219 709.173ZM2.14265 704.462C2.37164 702.822 2.71228 701.221 3.16143 699.66L1.23938 699.107C0.764029 700.76 0.403823 702.452 0.161854 704.185L2.14265 704.462ZM7.07699 690.838C8.73104 688.138 10.763 685.562 13.1572 683.101L11.7238 681.707C9.2374 684.262 7.11102 686.954 5.37168 689.793L7.07699 690.838ZM20.5637 676.68C23.066 674.822 25.8019 673.041 28.7611 671.333L27.761 669.601C24.7435 671.343 21.9425 673.166 19.3717 675.074L20.5637 676.68ZM37.7107 666.694C40.5785 665.354 43.5989 664.064 46.7651 662.823L46.0352 660.961C42.8335 662.216 39.7738 663.522 36.864 664.882L37.7107 666.694ZM56.1795 659.414C59.2442 658.387 62.4186 657.397 65.6977 656.441L65.1383 654.521C61.8358 655.483 58.6359 656.482 55.544 657.518L56.1795 659.414ZM75.3585 653.802C78.5049 652.995 81.7328 652.216 85.0383 651.462L84.5938 649.512C81.272 650.27 78.0267 651.053 74.8619 651.865L75.3585 653.802ZM94.9139 649.333C98.088 648.685 101.324 648.058 104.62 647.45L104.257 645.483C100.95 646.093 97.7012 646.723 94.514 647.373L94.9139 649.333ZM114.681 645.685C117.868 645.153 121.104 644.637 124.386 644.136L124.085 642.158C120.794 642.661 117.548 643.178 114.352 643.712L114.681 645.685ZM134.342 642.681C137.623 642.223 140.946 641.777 144.308 641.345L144.053 639.361C140.684 639.795 137.354 640.241 134.065 640.701L134.342 642.681ZM154.163 640.125C157.484 639.73 160.839 639.346 164.227 638.972L164.007 636.984C160.614 637.359 157.253 637.743 153.927 638.139L154.163 640.125ZM174.127 637.918C177.414 637.58 180.728 637.25 184.069 636.929L183.877 634.938C180.533 635.26 177.214 635.59 173.922 635.928L174.127 637.918ZM194.167 635.989C197.44 635.693 200.736 635.405 204.053 635.123L203.884 633.13C200.564 633.412 197.264 633.701 193.987 633.997L194.167 635.989ZM214.033 634.297C217.379 634.027 220.745 633.763 224.128 633.505L223.976 631.51C220.59 631.769 217.222 632.034 213.872 632.303L214.033 634.297ZM234.035 632.764C237.351 632.522 240.683 632.284 244.028 632.049L243.888 630.054C240.541 630.289 237.208 630.527 233.889 630.77L234.035 632.764ZM254.104 631.357C257.407 631.133 260.721 630.913 264.046 630.696L263.915 628.7C260.589 628.918 257.273 629.138 253.969 629.361L254.104 631.357ZM274.043 630.051C277.385 629.838 280.736 629.627 284.094 629.417L283.97 627.421C280.61 627.631 277.259 627.842 273.916 628.055L274.043 630.051ZM294.072 628.8C297.4 628.596 300.733 628.392 304.071 628.189L303.95 626.193C300.611 626.396 297.277 626.599 293.95 626.804L294.072 628.8ZM314.099 627.581C317.431 627.379 320.766 627.178 324.104 626.975L323.983 624.979C320.645 625.181 317.31 625.383 313.978 625.585L314.099 627.581ZM334.107 626.368C337.443 626.164 340.779 625.96 344.116 625.754L343.993 623.757C340.657 623.963 337.321 624.168 333.985 624.371L334.107 626.368ZM354.132 625.13C357.471 624.921 360.809 624.709 364.144 624.495L364.016 622.499C360.682 622.713 357.345 622.924 354.006 623.134L354.132 625.13ZM374.138 623.844C377.48 623.624 380.817 623.4 384.149 623.174L384.013 621.178C380.683 621.405 377.347 621.628 374.007 621.849L374.138 623.844ZM394.174 622.479C397.509 622.243 400.838 622.004 404.158 621.76L404.012 619.765C400.693 620.009 397.367 620.248 394.033 620.484L394.174 622.479ZM414.15 621.01C417.507 620.753 420.854 620.49 424.19 620.221L424.03 618.228C420.696 618.496 417.352 618.759 413.997 619.016L414.15 621.01ZM434.163 619.399C437.498 619.117 440.821 618.828 444.129 618.533L443.951 616.541C440.646 616.836 437.327 617.124 433.994 617.406L434.163 619.399ZM454.181 617.61C457.516 617.295 460.835 616.972 464.136 616.642L463.936 614.652C460.639 614.982 457.324 615.304 453.993 615.619L454.181 617.61ZM474.08 615.614C477.451 615.255 480.802 614.886 484.131 614.507L483.905 612.52C480.581 612.898 477.235 613.266 473.868 613.625L474.08 615.614ZM494.049 613.341C497.388 612.935 500.702 612.519 503.989 612.09L503.731 610.107C500.449 610.535 497.141 610.951 493.808 611.356L494.049 613.341ZM514.011 610.737C517.323 610.273 520.605 609.796 523.856 609.306L523.558 607.328C520.314 607.817 517.039 608.293 513.734 608.756L514.011 610.737ZM533.823 607.743C537.173 607.197 540.486 606.635 543.76 606.057L543.412 604.088C540.147 604.664 536.843 605.225 533.502 605.769L533.823 607.743ZM553.463 604.271C556.854 603.621 560.198 602.951 563.494 602.261L563.083 600.303C559.8 600.991 556.466 601.659 553.086 602.307L553.463 604.271ZM573.241 600.124C576.557 599.364 579.819 598.579 583.022 597.771L582.533 595.832C579.344 596.637 576.097 597.417 572.794 598.175L573.241 600.124ZM592.786 595.179C596.027 594.273 599.2 593.339 602.302 592.376L601.709 590.466C598.626 591.423 595.471 592.352 592.248 593.252L592.786 595.179ZM612.007 589.181C615.175 588.075 618.256 586.933 621.248 585.753L620.514 583.892C617.549 585.062 614.492 586.195 611.348 587.292L612.007 589.181ZM630.722 581.749C633.806 580.35 636.775 578.903 639.621 577.405L638.69 575.636C635.881 577.114 632.947 578.544 629.896 579.927L630.722 581.749ZM648.517 572.305C651.442 570.472 654.202 568.57 656.788 566.595L655.574 565.005C653.041 566.94 650.332 568.807 647.455 570.61L648.517 572.305ZM664.452 560.026C666.966 557.591 669.241 555.056 671.264 552.416L669.677 551.199C667.718 553.756 665.509 556.218 663.061 558.589L664.452 560.026ZM676.704 543.899C678.28 540.865 679.554 537.708 680.512 534.424L678.592 533.864C677.672 537.02 676.446 540.056 674.929 542.978L676.704 543.899ZM682.389 524.488C682.547 522.775 682.627 521.033 682.627 519.26H680.627C680.627 520.973 680.55 522.654 680.398 524.304L682.389 524.488ZM682.627 519.26C682.627 517.532 682.461 515.829 682.135 514.15L680.172 514.532C680.474 516.086 680.627 517.661 680.627 519.26H682.627ZM678.517 504.751C676.916 502.004 674.869 499.34 672.412 496.754L670.962 498.132C673.33 500.624 675.278 503.165 676.789 505.758L678.517 504.751ZM664.863 490.002C662.373 488.072 659.643 486.184 656.688 484.335L655.627 486.03C658.533 487.848 661.207 489.699 663.638 491.583L664.863 490.002ZM648.16 479.43C645.279 477.899 642.239 476.395 639.049 474.916L638.207 476.731C641.368 478.196 644.376 479.684 647.222 481.196L648.16 479.43ZM630.168 471.023C627.147 469.768 624.015 468.531 620.779 467.311L620.074 469.183C623.291 470.395 626.401 471.624 629.401 472.87L630.168 471.023ZM611.621 464.002C608.504 462.921 605.303 461.853 602.025 460.799L601.412 462.703C604.678 463.753 607.864 464.816 610.966 465.892L611.621 464.002ZM592.764 457.919C589.612 456.97 586.397 456.032 583.122 455.104L582.578 457.029C585.843 457.953 589.047 458.888 592.187 459.834L592.764 457.919ZM573.682 452.504C570.536 451.66 567.341 450.826 564.099 449.999L563.605 451.937C566.839 452.762 570.026 453.594 573.164 454.436L573.682 452.504ZM554.417 447.589C551.283 446.827 548.11 446.072 544.9 445.324L544.446 447.271C547.65 448.018 550.817 448.772 553.945 449.533L554.417 447.589ZM535.16 443.099C531.987 442.389 528.781 441.684 525.544 440.986L525.122 442.941C528.354 443.638 531.555 444.341 534.723 445.051L535.16 443.099ZM515.904 438.941C512.662 438.265 509.392 437.594 506.097 436.928L505.701 438.889C508.992 439.553 512.258 440.223 515.495 440.899L515.904 438.941ZM496.495 435.018C493.282 434.388 490.047 433.763 486.791 433.142L486.417 435.106C489.669 435.727 492.901 436.351 496.11 436.981L496.495 435.018ZM476.978 431.294C473.783 430.7 470.57 430.11 467.341 429.524L466.984 431.492C470.211 432.078 473.421 432.667 476.613 433.261L476.978 431.294ZM457.607 427.777C454.353 427.199 451.085 426.625 447.803 426.054L447.46 428.024C450.74 428.595 454.006 429.168 457.257 429.746L457.607 427.777ZM438.122 424.385C434.883 423.832 431.633 423.282 428.373 422.734L428.042 424.707C431.3 425.254 434.548 425.804 437.785 426.356L438.122 424.385ZM418.574 421.102C415.343 420.568 412.104 420.037 408.859 419.508L408.537 421.482C411.781 422.01 415.018 422.542 418.248 423.075L418.574 421.102ZM399.103 417.928C395.845 417.404 392.582 416.882 389.315 416.362L389 418.337C392.267 418.857 395.529 419.378 398.785 419.903L399.103 417.928ZM379.568 414.818C376.316 414.305 373.062 413.795 369.807 413.286L369.498 415.262C372.753 415.77 376.006 416.281 379.257 416.793L379.568 414.818ZM360.038 411.763C356.779 411.257 353.52 410.753 350.263 410.25L349.957 412.226C353.214 412.729 356.472 413.234 359.731 413.74L360.038 411.763ZM340.495 408.744C337.241 408.243 333.99 407.744 330.743 407.245L330.44 409.222C333.687 409.721 336.937 410.22 340.191 410.721L340.495 408.744ZM320.952 405.743C317.688 405.243 314.429 404.743 311.177 404.244L310.874 406.221C314.126 406.72 317.385 407.22 320.649 407.72L320.952 405.743ZM301.443 402.749C298.169 402.245 294.902 401.742 291.646 401.239L291.341 403.216C294.598 403.718 297.864 404.222 301.139 404.725L301.443 402.749ZM281.865 399.725C278.615 399.221 275.377 398.716 272.151 398.212L271.842 400.188C275.069 400.692 278.308 401.197 281.558 401.701L281.865 399.725ZM262.35 396.673C259.074 396.156 255.813 395.639 252.568 395.122L252.253 397.097C255.499 397.615 258.761 398.132 262.038 398.649L262.35 396.673ZM242.885 393.569C239.594 393.037 236.322 392.505 233.071 391.972L232.747 393.946C236 394.479 239.274 395.011 242.566 395.543L242.885 393.569ZM223.303 390.358C220.07 389.819 216.859 389.279 213.672 388.738L213.337 390.71C216.526 391.252 219.739 391.792 222.975 392.331L223.303 390.358ZM203.82 387.047C200.551 386.479 197.31 385.91 194.099 385.339L193.749 387.308C196.962 387.879 200.206 388.449 203.478 389.017L203.82 387.047ZM184.474 383.604C181.155 382.997 177.873 382.389 174.629 381.777L174.258 383.743C177.506 384.355 180.792 384.964 184.114 385.571L184.474 383.604ZM165.013 379.935C161.725 379.295 158.481 378.651 155.284 378.004L154.887 379.964C158.09 380.612 161.338 381.257 164.63 381.898L165.013 379.935ZM145.575 375.997C142.352 375.317 139.182 374.632 136.068 373.943L135.636 375.895C138.757 376.586 141.933 377.272 145.162 377.954L145.575 375.997ZM126.267 371.715C123.066 370.968 119.932 370.214 116.869 369.455L116.388 371.396C119.46 372.158 122.603 372.913 125.812 373.663L126.267 371.715ZM107.105 366.95C103.908 366.099 100.8 365.241 97.7883 364.375L97.2354 366.297C100.261 367.167 103.382 368.029 106.591 368.883L107.105 366.95ZM88.148 361.468C84.9856 360.467 81.9519 359.454 79.0534 358.43L78.3868 360.315C81.3082 361.348 84.363 362.367 87.5442 363.375L88.148 361.468ZM69.6323 354.859C66.4131 353.545 63.4185 352.212 60.6607 350.858L59.7795 352.654C62.5844 354.03 65.6214 355.382 68.8764 356.711L69.6323 354.859ZM52.2405 346.192C49.2104 344.268 46.6673 342.312 44.6325 340.324L43.2347 341.754C45.3924 343.863 48.0527 345.902 51.1685 347.88L52.2405 346.192ZM39.3784 332.568C38.8769 331.091 38.6468 329.595 38.6952 328.073L36.6962 328.01C36.6399 329.781 36.909 331.516 37.4846 333.211L39.3784 332.568ZM38.6952 328.073C38.7502 326.345 38.8689 324.648 39.0497 322.983L37.0614 322.767C36.875 324.484 36.7528 326.231 36.6962 328.01L38.6952 328.073ZM40.8895 313.271C41.7793 310.036 42.9274 306.927 44.3198 303.937L42.5067 303.093C41.0678 306.183 39.8808 309.396 38.9611 312.74L40.8895 313.271ZM49.2309 295.294C51.0623 292.589 53.1161 289.99 55.3797 287.49L53.8972 286.147C51.5745 288.712 49.462 291.385 47.5748 294.172L49.2309 295.294ZM62.5313 280.504C65.0126 278.344 67.6657 276.267 70.4805 274.266L69.3217 272.636C66.458 274.672 63.7528 276.789 61.2183 278.995L62.5313 280.504ZM78.8258 268.83C81.6333 267.149 84.5638 265.528 87.6093 263.963L86.695 262.184C83.6143 263.768 80.6459 265.41 77.7986 267.114L78.8258 268.83ZM96.7924 259.56C99.7689 258.227 102.834 256.937 105.982 255.689L105.245 253.83C102.072 255.088 98.9797 256.389 95.9749 257.735L96.7924 259.56ZM115.465 252.135C118.587 251.028 121.777 249.955 125.03 248.914L124.421 247.009C121.15 248.056 117.94 249.135 114.797 250.249L115.465 252.135ZM134.675 245.971C137.883 245.036 141.145 244.128 144.453 243.245L143.937 241.313C140.615 242.2 137.34 243.112 134.115 244.051L134.675 245.971ZM154.199 240.745C157.459 239.941 160.759 239.157 164.094 238.393L163.647 236.443C160.302 237.21 156.992 237.996 153.721 238.803L154.199 240.745ZM173.917 236.216C177.207 235.51 180.526 234.821 183.871 234.145L183.476 232.185C180.123 232.862 176.796 233.553 173.498 234.26L173.917 236.216ZM193.758 232.204C197.066 231.571 200.394 230.95 203.74 230.34L203.381 228.373C200.03 228.984 196.696 229.605 193.382 230.239L193.758 232.204ZM213.679 228.566C216.997 227.986 220.33 227.414 223.673 226.849L223.339 224.877C219.993 225.442 216.657 226.015 213.334 226.596L213.679 228.566ZM233.651 225.187C236.977 224.641 240.311 224.099 243.649 223.562L243.331 221.588C239.992 222.125 236.656 222.667 233.327 223.214L233.651 225.187ZM253.653 221.965C256.986 221.436 260.32 220.91 263.653 220.385L263.341 218.41C260.009 218.935 256.674 219.461 253.339 219.99L253.653 221.965ZM273.667 218.808C277.007 218.281 280.342 217.754 283.668 217.226L283.354 215.25C280.029 215.779 276.695 216.306 273.355 216.832L273.667 218.808ZM293.678 215.623C297.025 215.083 300.359 214.539 303.678 213.991L303.352 212.018C300.036 212.566 296.704 213.109 293.359 213.649L293.678 215.623ZM313.673 212.315C317.024 211.744 320.356 211.167 323.665 210.581L323.317 208.611C320.012 209.196 316.684 209.773 313.337 210.344L313.673 212.315ZM333.635 208.776C336.987 208.154 340.311 207.523 343.604 206.879L343.22 204.916C339.934 205.558 336.616 206.189 333.27 206.809L333.635 208.776ZM353.543 204.875C356.887 204.179 360.193 203.468 363.456 202.741L363.021 200.789C359.767 201.514 356.471 202.223 353.135 202.917L353.543 204.875ZM373.359 200.446C376.678 199.645 379.946 198.824 383.159 197.98L382.65 196.046C379.452 196.886 376.197 197.704 372.89 198.501L373.359 200.446ZM393.009 195.263C396.279 194.316 399.48 193.341 402.608 192.334L401.995 190.43C398.888 191.43 395.705 192.4 392.453 193.342L393.009 195.263ZM412.338 189.008C415.593 187.825 418.752 186.601 421.807 185.332L421.04 183.485C418.015 184.742 414.884 185.955 411.655 187.128L412.338 189.008ZM431.02 181.209C434.201 179.673 437.241 178.074 440.13 176.407L439.131 174.675C436.288 176.315 433.291 177.891 430.15 179.408L431.02 181.209ZM448.747 170.907C451.607 168.877 454.265 166.754 456.703 164.531L455.355 163.053C452.983 165.216 450.39 167.288 447.589 169.276L448.747 170.907ZM463.717 157.087C465.901 154.351 467.787 151.479 469.353 148.462L467.577 147.541C466.076 150.435 464.262 153.198 462.154 155.839L463.717 157.087ZM473.095 138.831C473.962 135.592 474.498 132.212 474.685 128.683L472.688 128.577C472.508 131.971 471.993 135.213 471.163 138.314L473.095 138.831ZM474.292 118.491C474.077 116.77 473.788 115.017 473.423 113.233L471.463 113.634C471.819 115.37 472.099 117.071 472.307 118.739L474.292 118.491ZM473.423 113.233C473.09 111.607 472.952 110.014 472.998 108.451L470.999 108.392C470.948 110.114 471.101 111.862 471.463 113.634L473.423 113.233ZM475.413 99.4156C476.77 96.7725 478.688 94.1899 481.138 91.6678L479.704 90.2742C477.144 92.9094 475.098 95.6499 473.634 98.502L475.413 99.4156ZM488.521 85.3687C490.985 83.5805 493.718 81.8317 496.703 80.1216L495.708 78.3862C492.671 80.1264 489.876 81.9136 487.346 83.7499L488.521 85.3687ZM505.403 75.5771C508.282 74.1985 511.324 72.8482 514.519 71.5254L513.754 69.6775C510.529 71.0126 507.454 72.3776 504.539 73.7734L505.403 75.5771ZM523.699 67.9504C526.696 66.8496 529.8 65.7693 533.002 64.7092L532.373 62.8105C529.153 63.877 526.029 64.9642 523.009 66.0729L523.699 67.9504ZM542.575 61.6848C545.63 60.7627 548.759 59.8567 551.956 58.9664L551.42 57.0397C548.21 57.9336 545.067 58.8436 541.997 59.77L542.575 61.6848ZM561.654 56.3666C564.768 55.5625 567.936 54.7719 571.154 53.9944L570.685 52.0504C567.456 52.8301 564.278 53.6233 561.154 54.4302L561.654 56.3666ZM580.912 51.7115C584.068 50.9962 587.265 50.2925 590.5 49.6002L590.082 47.6445C586.839 48.3383 583.634 49.0438 580.47 49.761L580.912 51.7115ZM600.31 47.5585C603.493 46.9138 606.707 46.2795 609.95 45.6554L609.572 43.6914C606.323 44.3168 603.102 44.9523 599.913 45.5983L600.31 47.5585ZM619.758 43.813C622.975 43.2231 626.216 42.6426 629.476 42.0714L629.131 40.1014C625.865 40.6735 622.62 41.2549 619.397 41.8458L619.758 43.813ZM639.275 40.3918C642.521 39.8474 645.784 39.3116 649.059 38.7844L648.742 36.8098C645.462 37.3377 642.195 37.8741 638.944 38.4194L639.275 40.3918ZM658.856 37.2384C662.122 36.733 665.398 36.2359 668.68 35.7466L668.385 33.7685C665.099 34.2582 661.82 34.756 658.551 35.2619L658.856 37.2384ZM678.488 34.3109C681.763 33.84 685.041 33.3768 688.32 32.9211L688.045 30.9401C684.763 31.3963 681.481 31.8599 678.204 32.3312L678.488 34.3109ZM698.156 31.5764C701.434 31.1355 704.71 30.7018 707.981 30.2753L707.722 28.2921C704.449 28.719 701.17 29.153 697.89 29.5942L698.156 31.5764ZM717.846 29.0078C721.133 28.5916 724.412 28.1823 727.68 27.7799L727.436 25.7949C724.165 26.1976 720.884 26.6071 717.594 27.0236L717.846 29.0078ZM737.544 26.5813C740.846 26.1852 744.134 25.796 747.404 25.4134L747.172 23.4269C743.9 23.8098 740.61 24.1993 737.306 24.5955L737.544 26.5813ZM757.244 24.2753C760.567 23.8953 763.868 23.522 767.143 23.1553L766.921 21.1677C763.644 21.5346 760.342 21.908 757.017 22.2882L757.244 24.2753ZM776.946 22.0681C780.294 21.7003 783.61 21.3392 786.891 20.9847L786.676 18.9963C783.394 19.351 780.077 19.7121 776.728 20.0801L776.946 22.0681ZM796.659 19.9368C800.033 19.5773 803.363 19.2247 806.645 18.8788L806.435 16.8898C803.152 17.2358 799.822 17.5884 796.447 17.948L796.659 19.9368ZM816.402 17.8545C819.796 17.4993 823.131 17.1514 826.4 16.8102L826.193 14.821C822.923 15.1621 819.589 15.5101 816.194 15.8653L816.402 17.8545ZM836.197 15.787C839.593 15.4316 842.906 15.0837 846.129 14.743L845.919 12.754C842.697 13.0947 839.385 13.4424 835.989 13.7978L836.197 15.787ZM856.036 13.686C859.386 13.3246 862.616 12.9714 865.717 12.6255L865.495 10.6379C862.397 10.9834 859.169 11.3364 855.822 11.6975L856.036 13.686ZM875.766 11.4754C879.305 11.0579 882.622 10.651 885.695 10.2534L885.439 8.2699C882.374 8.66632 879.065 9.07233 875.532 9.4892L875.766 11.4754ZM895.571 8.87653C899.498 8.27679 902.77 7.69427 905.3 7.12311L904.86 5.17218C902.396 5.72839 899.177 6.30267 895.269 6.89948L895.571 8.87653ZM908.699 1.11469C907.426 0.740417 905.721 0.375244 903.577 0.013916L903.244 1.98615C905.355 2.34174 906.971 2.69147 908.135 3.03345L908.699 1.11469Z" fill="#8EC63F"/>
<path d="M571.688 828V815.15H579.527V816.935H573.797V820.345H575.335C576.554 820.345 577.532 820.506 578.271 820.828C579.009 821.145 579.542 821.587 579.87 822.155C580.198 822.724 580.362 823.377 580.362 824.115C580.362 825.34 579.973 826.295 579.193 826.98C578.42 827.66 577.163 828 575.423 828H571.688ZM573.797 826.242H575.291C576.281 826.242 577.017 826.075 577.497 825.741C577.978 825.401 578.218 824.859 578.218 824.115C578.218 823.594 578.101 823.189 577.866 822.902C577.632 822.609 577.28 822.404 576.812 822.287C576.349 822.17 575.763 822.111 575.054 822.111H573.797V826.242ZM584.713 818.271V823.236C584.713 823.395 584.707 823.597 584.695 823.843C584.689 824.083 584.678 824.335 584.66 824.599C584.643 824.856 584.625 825.094 584.607 825.311C584.59 825.527 584.575 825.688 584.563 825.794L589.459 818.271H591.973V828H589.995V823.087C589.995 822.829 590.001 822.53 590.013 822.19C590.03 821.851 590.048 821.522 590.065 821.206C590.089 820.89 590.104 820.649 590.109 820.485L585.231 828H582.727V818.271H584.713ZM608.716 818.271V828H594.943V818.271H597.009V826.374H600.788V818.271H602.862V826.374H606.65V818.271H608.716ZM617.707 818.271H619.983L615.958 822.946L620.326 828H617.944L613.752 823.061V828H611.678V818.271H613.752V822.99L617.707 818.271ZM625.784 818.086C626.651 818.086 627.396 818.265 628.017 818.622C628.638 818.979 629.115 819.486 629.449 820.143C629.783 820.799 629.95 821.584 629.95 822.498V823.605H623.455C623.479 824.549 623.73 825.275 624.211 825.785C624.697 826.295 625.377 826.55 626.25 826.55C626.871 826.55 627.428 826.491 627.92 826.374C628.418 826.251 628.931 826.072 629.458 825.838V827.517C628.972 827.745 628.477 827.912 627.973 828.018C627.469 828.123 626.865 828.176 626.162 828.176C625.207 828.176 624.366 827.991 623.64 827.622C622.919 827.247 622.354 826.69 621.943 825.952C621.539 825.214 621.337 824.297 621.337 823.201C621.337 822.111 621.521 821.186 621.891 820.424C622.26 819.662 622.778 819.082 623.446 818.684C624.114 818.285 624.894 818.086 625.784 818.086ZM625.784 819.642C625.134 819.642 624.606 819.853 624.202 820.274C623.804 820.696 623.569 821.314 623.499 822.129H627.929C627.923 821.643 627.841 821.212 627.683 820.837C627.53 820.462 627.296 820.169 626.979 819.958C626.669 819.747 626.271 819.642 625.784 819.642ZM638.309 818.271H640.585L636.56 822.946L640.928 828H638.546L634.354 823.061V828H632.279V818.271H634.354V822.99L638.309 818.271Z" fill="#231F1F"/>
<circle opacity="0.3" cx="606" cy="861.5" r="12.5" fill="#7A3FC6"/>
<circle opacity="0.8" cx="606" cy="861.5" r="8.59375" fill="#7A3FC6"/>
<circle cx="606" cy="861.5" r="5.46875" fill="#4C1493"/>
<circle opacity="0.3" cx="200.5" cy="229.723" r="12.5" fill="#8EC63F"/>
<circle opacity="0.8" cx="200.5" cy="229.724" r="8.59375" fill="#8EC63F"/>
<circle cx="200.5" cy="229.723" r="5.46875" fill="#149345"/>
<path d="M170.144 276.223H168.025V265.167H164.264V263.374H173.896V265.167H170.144V276.223ZM179.53 266.309C180.397 266.309 181.142 266.488 181.763 266.845C182.384 267.203 182.861 267.709 183.195 268.366C183.529 269.022 183.696 269.807 183.696 270.721V271.829H177.201C177.225 272.772 177.477 273.499 177.957 274.008C178.443 274.518 179.123 274.773 179.996 274.773C180.617 274.773 181.174 274.714 181.666 274.597C182.164 274.474 182.677 274.295 183.204 274.061V275.74C182.718 275.968 182.223 276.135 181.719 276.241C181.215 276.346 180.611 276.399 179.908 276.399C178.953 276.399 178.112 276.214 177.386 275.845C176.665 275.47 176.1 274.914 175.689 274.175C175.285 273.437 175.083 272.52 175.083 271.424C175.083 270.334 175.268 269.409 175.637 268.647C176.006 267.885 176.524 267.305 177.192 266.907C177.86 266.508 178.64 266.309 179.53 266.309ZM179.53 267.865C178.88 267.865 178.353 268.076 177.948 268.498C177.55 268.919 177.315 269.538 177.245 270.352H181.675C181.669 269.866 181.587 269.435 181.429 269.06C181.276 268.685 181.042 268.392 180.726 268.181C180.415 267.97 180.017 267.865 179.53 267.865ZM192.336 266.494V268.12H188.1V276.223H186.025V266.494H192.336ZM198.093 266.309C198.96 266.309 199.704 266.488 200.325 266.845C200.946 267.203 201.424 267.709 201.758 268.366C202.092 269.022 202.259 269.807 202.259 270.721V271.829H195.764C195.787 272.772 196.039 273.499 196.52 274.008C197.006 274.518 197.686 274.773 198.559 274.773C199.18 274.773 199.736 274.714 200.229 274.597C200.727 274.474 201.239 274.295 201.767 274.061V275.74C201.28 275.968 200.785 276.135 200.281 276.241C199.777 276.346 199.174 276.399 198.471 276.399C197.516 276.399 196.675 276.214 195.948 275.845C195.228 275.47 194.662 274.914 194.252 274.175C193.848 273.437 193.646 272.52 193.646 271.424C193.646 270.334 193.83 269.409 194.199 268.647C194.568 267.885 195.087 267.305 195.755 266.907C196.423 266.508 197.202 266.309 198.093 266.309ZM198.093 267.865C197.442 267.865 196.915 268.076 196.511 268.498C196.112 268.919 195.878 269.538 195.808 270.352H200.237C200.231 269.866 200.149 269.435 199.991 269.06C199.839 268.685 199.604 268.392 199.288 268.181C198.978 267.97 198.579 267.865 198.093 267.865ZM209.58 266.309C210.734 266.309 211.66 266.731 212.357 267.575C213.061 268.418 213.412 269.672 213.412 271.336C213.412 272.438 213.248 273.367 212.92 274.123C212.598 274.873 212.144 275.441 211.558 275.828C210.978 276.208 210.301 276.399 209.527 276.399C209.035 276.399 208.607 276.334 208.244 276.206C207.881 276.077 207.57 275.91 207.312 275.705C207.055 275.494 206.838 275.265 206.662 275.019H206.539C206.568 275.253 206.595 275.514 206.618 275.801C206.647 276.083 206.662 276.34 206.662 276.575V280.539H204.588V266.494H206.275L206.565 267.838H206.662C206.844 267.563 207.063 267.308 207.321 267.074C207.585 266.839 207.901 266.655 208.271 266.52C208.646 266.379 209.082 266.309 209.58 266.309ZM209.026 267.997C208.458 267.997 208.001 268.111 207.655 268.339C207.315 268.562 207.066 268.899 206.908 269.35C206.756 269.801 206.674 270.367 206.662 271.046V271.336C206.662 272.057 206.735 272.669 206.882 273.173C207.034 273.671 207.283 274.052 207.629 274.316C207.98 274.574 208.455 274.703 209.053 274.703C209.557 274.703 209.973 274.565 210.301 274.29C210.635 274.014 210.884 273.622 211.048 273.112C211.212 272.602 211.294 272.001 211.294 271.31C211.294 270.261 211.106 269.447 210.731 268.867C210.362 268.287 209.794 267.997 209.026 267.997ZM219.617 266.309C220.848 266.309 221.776 266.582 222.403 267.126C223.036 267.671 223.353 268.521 223.353 269.675V276.223H221.885L221.489 274.843H221.419C221.144 275.195 220.859 275.485 220.566 275.713C220.273 275.942 219.934 276.112 219.547 276.223C219.166 276.34 218.7 276.399 218.149 276.399C217.569 276.399 217.051 276.293 216.594 276.083C216.137 275.866 215.776 275.538 215.513 275.098C215.249 274.659 215.117 274.102 215.117 273.428C215.117 272.426 215.489 271.673 216.233 271.169C216.983 270.666 218.114 270.387 219.626 270.334L221.313 270.273V269.763C221.313 269.089 221.155 268.609 220.839 268.322C220.528 268.035 220.089 267.891 219.521 267.891C219.034 267.891 218.562 267.961 218.105 268.102C217.648 268.243 217.203 268.416 216.77 268.621L216.102 267.162C216.576 266.91 217.115 266.705 217.719 266.546C218.328 266.388 218.961 266.309 219.617 266.309ZM221.305 271.574L220.048 271.618C219.017 271.653 218.293 271.829 217.877 272.145C217.461 272.461 217.253 272.895 217.253 273.446C217.253 273.926 217.396 274.278 217.684 274.5C217.971 274.717 218.349 274.826 218.817 274.826C219.532 274.826 220.124 274.624 220.593 274.219C221.067 273.809 221.305 273.208 221.305 272.417V271.574ZM228.318 266.494V270.405H232.871V266.494H234.945V276.223H232.871V272.022H228.318V276.223H226.244V266.494H228.318Z" fill="#231F1F"/>
<path d="M57.2334 325L53.5332 314.269H53.4541C53.4717 314.509 53.4922 314.837 53.5156 315.253C53.5391 315.669 53.5596 316.114 53.5771 316.589C53.5947 317.063 53.6035 317.518 53.6035 317.951V325H51.6875V312.15H54.6494L58.209 322.407H58.2617L61.9443 312.15H64.8975V325H62.8848V317.846C62.8848 317.453 62.8906 317.028 62.9023 316.571C62.9199 316.114 62.9375 315.681 62.9551 315.271C62.9785 314.86 62.9961 314.532 63.0078 314.286H62.9375L59.0967 325H57.2334ZM76.6836 320.113C76.6836 320.922 76.5781 321.64 76.3672 322.267C76.1562 322.894 75.8486 323.424 75.4443 323.857C75.04 324.285 74.5537 324.613 73.9854 324.842C73.417 325.064 72.7754 325.176 72.0605 325.176C71.3926 325.176 70.7803 325.064 70.2236 324.842C69.667 324.613 69.1836 324.285 68.7734 323.857C68.3691 323.424 68.0557 322.894 67.833 322.267C67.6104 321.64 67.499 320.922 67.499 320.113C67.499 319.041 67.6836 318.133 68.0527 317.389C68.4277 316.639 68.9609 316.067 69.6523 315.675C70.3438 315.282 71.167 315.086 72.1221 315.086C73.0186 315.086 73.8096 315.282 74.4951 315.675C75.1807 316.067 75.7168 316.639 76.1035 317.389C76.4902 318.139 76.6836 319.047 76.6836 320.113ZM69.626 320.113C69.626 320.822 69.7109 321.429 69.8809 321.933C70.0566 322.437 70.3262 322.823 70.6895 323.093C71.0527 323.356 71.5215 323.488 72.0957 323.488C72.6699 323.488 73.1387 323.356 73.502 323.093C73.8652 322.823 74.1318 322.437 74.3018 321.933C74.4717 321.429 74.5566 320.822 74.5566 320.113C74.5566 319.404 74.4717 318.804 74.3018 318.312C74.1318 317.813 73.8652 317.436 73.502 317.178C73.1387 316.914 72.667 316.782 72.0869 316.782C71.2314 316.782 70.6074 317.069 70.2148 317.644C69.8223 318.218 69.626 319.041 69.626 320.113ZM82.9766 325.176C82.0566 325.176 81.2598 324.997 80.5859 324.64C79.9121 324.282 79.3936 323.734 79.0303 322.996C78.667 322.258 78.4854 321.32 78.4854 320.184C78.4854 319 78.6846 318.033 79.083 317.283C79.4814 316.533 80.0322 315.979 80.7354 315.622C81.4443 315.265 82.2559 315.086 83.1699 315.086C83.75 315.086 84.2744 315.145 84.7432 315.262C85.2178 315.373 85.6191 315.511 85.9473 315.675L85.332 317.327C84.9746 317.181 84.6084 317.058 84.2334 316.958C83.8584 316.858 83.498 316.809 83.1523 316.809C82.584 316.809 82.1094 316.935 81.7285 317.187C81.3535 317.438 81.0723 317.813 80.8848 318.312C80.7031 318.81 80.6123 319.428 80.6123 320.166C80.6123 320.881 80.7061 321.484 80.8936 321.977C81.0811 322.463 81.3594 322.832 81.7285 323.084C82.0977 323.33 82.5518 323.453 83.0908 323.453C83.624 323.453 84.1016 323.389 84.5234 323.26C84.9453 323.131 85.3438 322.964 85.7188 322.759V324.552C85.3496 324.763 84.9541 324.918 84.5322 325.018C84.1104 325.123 83.5918 325.176 82.9766 325.176ZM94.0332 315.271H96.3096L92.2842 319.946L96.6523 325H94.2705L90.0781 320.061V325H88.0039V315.271H90.0781V319.99L94.0332 315.271ZM106.417 317.767C106.417 318.329 106.244 318.789 105.898 319.146C105.559 319.498 105.09 319.729 104.492 319.841V319.911C105.131 319.993 105.664 320.219 106.092 320.588C106.52 320.957 106.733 321.47 106.733 322.126C106.733 322.683 106.593 323.178 106.312 323.611C106.036 324.039 105.597 324.379 104.993 324.631C104.396 324.877 103.613 325 102.646 325H98.2344V315.271H102.629C103.355 315.271 104.003 315.35 104.571 315.508C105.146 315.666 105.597 315.927 105.925 316.29C106.253 316.653 106.417 317.146 106.417 317.767ZM104.58 322.056C104.58 321.575 104.396 321.229 104.026 321.019C103.663 320.808 103.13 320.702 102.427 320.702H100.309V323.479H102.471C103.127 323.479 103.643 323.371 104.018 323.154C104.393 322.932 104.58 322.565 104.58 322.056ZM104.316 317.951C104.316 317.57 104.173 317.289 103.886 317.107C103.599 316.92 103.147 316.826 102.532 316.826H100.309V319.182H102.251C102.931 319.182 103.443 319.085 103.789 318.892C104.141 318.692 104.316 318.379 104.316 317.951ZM112.877 315.086C114.107 315.086 115.036 315.358 115.663 315.903C116.296 316.448 116.612 317.298 116.612 318.452V325H115.145L114.749 323.62H114.679C114.403 323.972 114.119 324.262 113.826 324.49C113.533 324.719 113.193 324.889 112.807 325C112.426 325.117 111.96 325.176 111.409 325.176C110.829 325.176 110.311 325.07 109.854 324.859C109.396 324.643 109.036 324.314 108.772 323.875C108.509 323.436 108.377 322.879 108.377 322.205C108.377 321.203 108.749 320.45 109.493 319.946C110.243 319.442 111.374 319.164 112.886 319.111L114.573 319.05V318.54C114.573 317.866 114.415 317.386 114.099 317.099C113.788 316.812 113.349 316.668 112.78 316.668C112.294 316.668 111.822 316.738 111.365 316.879C110.908 317.02 110.463 317.192 110.029 317.397L109.361 315.938C109.836 315.687 110.375 315.481 110.979 315.323C111.588 315.165 112.221 315.086 112.877 315.086ZM114.564 320.351L113.308 320.395C112.276 320.43 111.553 320.605 111.137 320.922C110.721 321.238 110.513 321.672 110.513 322.223C110.513 322.703 110.656 323.055 110.943 323.277C111.23 323.494 111.608 323.603 112.077 323.603C112.792 323.603 113.384 323.4 113.853 322.996C114.327 322.586 114.564 321.985 114.564 321.194V320.351Z" fill="#231F1F"/>
<circle cx="84.5" cy="358.5" r="12.5" fill="#FFED47" fill-opacity="0.5"/>
<circle cx="84.5" cy="358.5" r="8.59375" fill="#FFEA2C"/>
<circle cx="84.5" cy="358.5" r="5.46875" fill="#F1DA00"/>
<circle opacity="0.3" cx="72" cy="653.5" r="12.5" fill="#3F85C6"/>
<circle opacity="0.8" cx="72" cy="653.5" r="8.59375" fill="#3F85C6"/>
<circle cx="72" cy="653.5" r="5.46875" fill="#144793"/>
<path d="M50.1504 700L48.8936 696.432H43.9805L42.7236 700H40.5L45.2812 687.098H47.6191L52.3916 700H50.1504ZM48.3486 694.621L47.127 691.105C47.0801 690.953 47.0127 690.739 46.9248 690.464C46.8369 690.183 46.749 689.898 46.6611 689.611C46.5732 689.318 46.5 689.072 46.4414 688.873C46.3828 689.113 46.3096 689.383 46.2217 689.682C46.1396 689.975 46.0576 690.25 45.9756 690.508C45.8994 690.766 45.8408 690.965 45.7998 691.105L44.5693 694.621H48.3486ZM57.7969 700.176C56.877 700.176 56.0801 699.997 55.4062 699.64C54.7324 699.282 54.2139 698.734 53.8506 697.996C53.4873 697.258 53.3057 696.32 53.3057 695.184C53.3057 694 53.5049 693.033 53.9033 692.283C54.3018 691.533 54.8525 690.979 55.5557 690.622C56.2646 690.265 57.0762 690.086 57.9902 690.086C58.5703 690.086 59.0947 690.145 59.5635 690.262C60.0381 690.373 60.4395 690.511 60.7676 690.675L60.1523 692.327C59.7949 692.181 59.4287 692.058 59.0537 691.958C58.6787 691.858 58.3184 691.809 57.9727 691.809C57.4043 691.809 56.9297 691.935 56.5488 692.187C56.1738 692.438 55.8926 692.813 55.7051 693.312C55.5234 693.81 55.4326 694.428 55.4326 695.166C55.4326 695.881 55.5264 696.484 55.7139 696.977C55.9014 697.463 56.1797 697.832 56.5488 698.084C56.918 698.33 57.3721 698.453 57.9111 698.453C58.4443 698.453 58.9219 698.389 59.3438 698.26C59.7656 698.131 60.1641 697.964 60.5391 697.759V699.552C60.1699 699.763 59.7744 699.918 59.3525 700.018C58.9307 700.123 58.4121 700.176 57.7969 700.176ZM70.1719 691.896H66.9727V700H64.916V691.896H61.7344V690.271H70.1719V691.896ZM75.8672 690.086C77.0977 690.086 78.0264 690.358 78.6533 690.903C79.2861 691.448 79.6025 692.298 79.6025 693.452V700H78.1348L77.7393 698.62H77.6689C77.3936 698.972 77.1094 699.262 76.8164 699.49C76.5234 699.719 76.1836 699.889 75.7969 700C75.416 700.117 74.9502 700.176 74.3994 700.176C73.8193 700.176 73.3008 700.07 72.8438 699.859C72.3867 699.643 72.0264 699.314 71.7627 698.875C71.499 698.436 71.3672 697.879 71.3672 697.205C71.3672 696.203 71.7393 695.45 72.4834 694.946C73.2334 694.442 74.3643 694.164 75.876 694.111L77.5635 694.05V693.54C77.5635 692.866 77.4053 692.386 77.0889 692.099C76.7783 691.812 76.3389 691.668 75.7705 691.668C75.2842 691.668 74.8125 691.738 74.3555 691.879C73.8984 692.02 73.4531 692.192 73.0195 692.397L72.3516 690.938C72.8262 690.687 73.3652 690.481 73.9688 690.323C74.5781 690.165 75.2109 690.086 75.8672 690.086ZM77.5547 695.351L76.2979 695.395C75.2666 695.43 74.543 695.605 74.127 695.922C73.7109 696.238 73.5029 696.672 73.5029 697.223C73.5029 697.703 73.6465 698.055 73.9336 698.277C74.2207 698.494 74.5986 698.603 75.0674 698.603C75.7822 698.603 76.374 698.4 76.8428 697.996C77.3174 697.586 77.5547 696.985 77.5547 696.194V695.351ZM84.5684 690.271V694.182H89.1211V690.271H91.1953V700H89.1211V695.799H84.5684V700H82.4941V690.271H84.5684ZM97.9629 690.086C99.1934 690.086 100.122 690.358 100.749 690.903C101.382 691.448 101.698 692.298 101.698 693.452V700H100.23L99.835 698.62H99.7646C99.4893 698.972 99.2051 699.262 98.9121 699.49C98.6191 699.719 98.2793 699.889 97.8926 700C97.5117 700.117 97.0459 700.176 96.4951 700.176C95.915 700.176 95.3965 700.07 94.9395 699.859C94.4824 699.643 94.1221 699.314 93.8584 698.875C93.5947 698.436 93.4629 697.879 93.4629 697.205C93.4629 696.203 93.835 695.45 94.5791 694.946C95.3291 694.442 96.46 694.164 97.9717 694.111L99.6592 694.05V693.54C99.6592 692.866 99.501 692.386 99.1846 692.099C98.874 691.812 98.4346 691.668 97.8662 691.668C97.3799 691.668 96.9082 691.738 96.4512 691.879C95.9941 692.02 95.5488 692.192 95.1152 692.397L94.4473 690.938C94.9219 690.687 95.4609 690.481 96.0645 690.323C96.6738 690.165 97.3066 690.086 97.9629 690.086ZM99.6504 695.351L98.3936 695.395C97.3623 695.43 96.6387 695.605 96.2227 695.922C95.8066 696.238 95.5986 696.672 95.5986 697.223C95.5986 697.703 95.7422 698.055 96.0293 698.277C96.3164 698.494 96.6943 698.603 97.1631 698.603C97.8779 698.603 98.4697 698.4 98.9385 697.996C99.4131 697.586 99.6504 696.985 99.6504 696.194V695.351Z" fill="#231F1F"/>
<circle opacity="0.3" cx="562" cy="451.5" r="12.5" fill="#C84534" fill-opacity="0.5"/>
<circle opacity="0.8" cx="562" cy="451.5" r="8.59375" fill="#C84534" fill-opacity="0.5"/>
<circle cx="562" cy="451.5" r="5.46875" fill="#C84534"/>
<path d="M524.531 498H522.079L516.797 491.479V498H514.688V485.15H516.797V491.373L521.982 485.15H524.285L519.1 491.355L524.531 498ZM531.018 488.086C532.172 488.086 533.098 488.508 533.795 489.352C534.498 490.195 534.85 491.449 534.85 493.113C534.85 494.215 534.686 495.144 534.357 495.899C534.035 496.649 533.581 497.218 532.995 497.604C532.415 497.985 531.738 498.176 530.965 498.176C530.473 498.176 530.045 498.111 529.682 497.982C529.318 497.854 529.008 497.687 528.75 497.481C528.492 497.271 528.275 497.042 528.1 496.796H527.977C528.006 497.03 528.032 497.291 528.056 497.578C528.085 497.859 528.1 498.117 528.1 498.352V502.315H526.025V488.271H527.713L528.003 489.615H528.1C528.281 489.34 528.501 489.085 528.759 488.851C529.022 488.616 529.339 488.432 529.708 488.297C530.083 488.156 530.52 488.086 531.018 488.086ZM530.464 489.773C529.896 489.773 529.438 489.888 529.093 490.116C528.753 490.339 528.504 490.676 528.346 491.127C528.193 491.578 528.111 492.144 528.1 492.823V493.113C528.1 493.834 528.173 494.446 528.319 494.95C528.472 495.448 528.721 495.829 529.066 496.093C529.418 496.351 529.893 496.479 530.49 496.479C530.994 496.479 531.41 496.342 531.738 496.066C532.072 495.791 532.321 495.398 532.485 494.889C532.649 494.379 532.731 493.778 532.731 493.087C532.731 492.038 532.544 491.224 532.169 490.644C531.8 490.063 531.231 489.773 530.464 489.773ZM541.055 488.086C542.285 488.086 543.214 488.358 543.841 488.903C544.474 489.448 544.79 490.298 544.79 491.452V498H543.322L542.927 496.62H542.856C542.581 496.972 542.297 497.262 542.004 497.49C541.711 497.719 541.371 497.889 540.984 498C540.604 498.117 540.138 498.176 539.587 498.176C539.007 498.176 538.488 498.07 538.031 497.859C537.574 497.643 537.214 497.314 536.95 496.875C536.687 496.436 536.555 495.879 536.555 495.205C536.555 494.203 536.927 493.45 537.671 492.946C538.421 492.442 539.552 492.164 541.063 492.111L542.751 492.05V491.54C542.751 490.866 542.593 490.386 542.276 490.099C541.966 489.812 541.526 489.668 540.958 489.668C540.472 489.668 540 489.738 539.543 489.879C539.086 490.02 538.641 490.192 538.207 490.397L537.539 488.938C538.014 488.687 538.553 488.481 539.156 488.323C539.766 488.165 540.398 488.086 541.055 488.086ZM542.742 493.351L541.485 493.395C540.454 493.43 539.73 493.605 539.314 493.922C538.898 494.238 538.69 494.672 538.69 495.223C538.69 495.703 538.834 496.055 539.121 496.277C539.408 496.494 539.786 496.603 540.255 496.603C540.97 496.603 541.562 496.4 542.03 495.996C542.505 495.586 542.742 494.985 542.742 494.194V493.351ZM551.602 498.176C550.682 498.176 549.885 497.997 549.211 497.64C548.537 497.282 548.019 496.734 547.655 495.996C547.292 495.258 547.11 494.32 547.11 493.184C547.11 492 547.31 491.033 547.708 490.283C548.106 489.533 548.657 488.979 549.36 488.622C550.069 488.265 550.881 488.086 551.795 488.086C552.375 488.086 552.899 488.145 553.368 488.262C553.843 488.373 554.244 488.511 554.572 488.675L553.957 490.327C553.6 490.181 553.233 490.058 552.858 489.958C552.483 489.858 552.123 489.809 551.777 489.809C551.209 489.809 550.734 489.935 550.354 490.187C549.979 490.438 549.697 490.813 549.51 491.312C549.328 491.81 549.237 492.428 549.237 493.166C549.237 493.881 549.331 494.484 549.519 494.977C549.706 495.463 549.984 495.832 550.354 496.084C550.723 496.33 551.177 496.453 551.716 496.453C552.249 496.453 552.727 496.389 553.148 496.26C553.57 496.131 553.969 495.964 554.344 495.759V497.552C553.975 497.763 553.579 497.918 553.157 498.018C552.735 498.123 552.217 498.176 551.602 498.176ZM558.703 488.271V492.182H563.256V488.271H565.33V498H563.256V493.799H558.703V498H556.629V488.271H558.703ZM576.896 493.113C576.896 493.922 576.791 494.64 576.58 495.267C576.369 495.894 576.062 496.424 575.657 496.857C575.253 497.285 574.767 497.613 574.198 497.842C573.63 498.064 572.988 498.176 572.273 498.176C571.605 498.176 570.993 498.064 570.437 497.842C569.88 497.613 569.396 497.285 568.986 496.857C568.582 496.424 568.269 495.894 568.046 495.267C567.823 494.64 567.712 493.922 567.712 493.113C567.712 492.041 567.896 491.133 568.266 490.389C568.641 489.639 569.174 489.067 569.865 488.675C570.557 488.282 571.38 488.086 572.335 488.086C573.231 488.086 574.022 488.282 574.708 488.675C575.394 489.067 575.93 489.639 576.316 490.389C576.703 491.139 576.896 492.047 576.896 493.113ZM569.839 493.113C569.839 493.822 569.924 494.429 570.094 494.933C570.27 495.437 570.539 495.823 570.902 496.093C571.266 496.356 571.734 496.488 572.309 496.488C572.883 496.488 573.352 496.356 573.715 496.093C574.078 495.823 574.345 495.437 574.515 494.933C574.685 494.429 574.77 493.822 574.77 493.113C574.77 492.404 574.685 491.804 574.515 491.312C574.345 490.813 574.078 490.436 573.715 490.178C573.352 489.914 572.88 489.782 572.3 489.782C571.444 489.782 570.82 490.069 570.428 490.644C570.035 491.218 569.839 492.041 569.839 493.113ZM587.215 488.271V496.4H588.621V501.428H586.714V498H579.999V501.428H578.092V496.4H578.883C579.375 495.686 579.785 494.889 580.113 494.01C580.447 493.131 580.705 492.205 580.887 491.232C581.074 490.254 581.191 489.267 581.238 488.271H587.215ZM585.167 489.853H583.014C582.943 490.644 582.823 491.432 582.653 492.217C582.483 492.996 582.264 493.743 581.994 494.458C581.73 495.167 581.414 495.814 581.045 496.4H585.167V489.853ZM594.246 488.086C595.477 488.086 596.405 488.358 597.032 488.903C597.665 489.448 597.981 490.298 597.981 491.452V498H596.514L596.118 496.62H596.048C595.772 496.972 595.488 497.262 595.195 497.49C594.902 497.719 594.562 497.889 594.176 498C593.795 498.117 593.329 498.176 592.778 498.176C592.198 498.176 591.68 498.07 591.223 497.859C590.766 497.643 590.405 497.314 590.142 496.875C589.878 496.436 589.746 495.879 589.746 495.205C589.746 494.203 590.118 493.45 590.862 492.946C591.612 492.442 592.743 492.164 594.255 492.111L595.942 492.05V491.54C595.942 490.866 595.784 490.386 595.468 490.099C595.157 489.812 594.718 489.668 594.149 489.668C593.663 489.668 593.191 489.738 592.734 489.879C592.277 490.02 591.832 490.192 591.398 490.397L590.73 488.938C591.205 488.687 591.744 488.481 592.348 488.323C592.957 488.165 593.59 488.086 594.246 488.086ZM595.934 493.351L594.677 493.395C593.646 493.43 592.922 493.605 592.506 493.922C592.09 494.238 591.882 494.672 591.882 495.223C591.882 495.703 592.025 496.055 592.312 496.277C592.6 496.494 592.978 496.603 593.446 496.603C594.161 496.603 594.753 496.4 595.222 495.996C595.696 495.586 595.934 494.985 595.934 494.194V493.351ZM605.865 488.086C607.02 488.086 607.945 488.508 608.643 489.352C609.346 490.195 609.697 491.449 609.697 493.113C609.697 494.215 609.533 495.144 609.205 495.899C608.883 496.649 608.429 497.218 607.843 497.604C607.263 497.985 606.586 498.176 605.812 498.176C605.32 498.176 604.893 498.111 604.529 497.982C604.166 497.854 603.855 497.687 603.598 497.481C603.34 497.271 603.123 497.042 602.947 496.796H602.824C602.854 497.03 602.88 497.291 602.903 497.578C602.933 497.859 602.947 498.117 602.947 498.352V502.315H600.873V488.271H602.561L602.851 489.615H602.947C603.129 489.34 603.349 489.085 603.606 488.851C603.87 488.616 604.187 488.432 604.556 488.297C604.931 488.156 605.367 488.086 605.865 488.086ZM605.312 489.773C604.743 489.773 604.286 489.888 603.94 490.116C603.601 490.339 603.352 490.676 603.193 491.127C603.041 491.578 602.959 492.144 602.947 492.823V493.113C602.947 493.834 603.021 494.446 603.167 494.95C603.319 495.448 603.568 495.829 603.914 496.093C604.266 496.351 604.74 496.479 605.338 496.479C605.842 496.479 606.258 496.342 606.586 496.066C606.92 495.791 607.169 495.398 607.333 494.889C607.497 494.379 607.579 493.778 607.579 493.087C607.579 492.038 607.392 491.224 607.017 490.644C606.647 490.063 606.079 489.773 605.312 489.773Z" fill="#231F1F"/>
</svg>
