<svg width="74" height="66" viewBox="0 0 74 66" fill="none" xmlns="http://www.w3.org/2000/svg">
<circle opacity="0.3" cx="37.375" cy="13" r="12.5" fill="#8EC63F"/>
<circle opacity="0.8" cx="37.375" cy="13.0005" r="8.59375" fill="#8EC63F"/>
<circle cx="37.375" cy="13" r="5.46875" fill="#149345"/>
<path d="M7.01855 59.5H4.90039V48.4434H1.13867V46.6504H10.7715V48.4434H7.01855V59.5ZM16.4053 49.5859C17.2725 49.5859 18.0166 49.7646 18.6377 50.1221C19.2588 50.4795 19.7363 50.9863 20.0703 51.6426C20.4043 52.2988 20.5713 53.084 20.5713 53.998V55.1055H14.0762C14.0996 56.0488 14.3516 56.7754 14.832 57.2852C15.3184 57.7949 15.998 58.0498 16.8711 58.0498C17.4922 58.0498 18.0488 57.9912 18.541 57.874C19.0391 57.751 19.5518 57.5723 20.0791 57.3379V59.0166C19.5928 59.2451 19.0977 59.4121 18.5938 59.5176C18.0898 59.623 17.4863 59.6758 16.7832 59.6758C15.8281 59.6758 14.9873 59.4912 14.2607 59.1221C13.54 58.7471 12.9746 58.1904 12.5645 57.4521C12.1602 56.7139 11.958 55.7969 11.958 54.7012C11.958 53.6113 12.1426 52.6855 12.5117 51.9238C12.8809 51.1621 13.3994 50.582 14.0674 50.1836C14.7354 49.7852 15.5146 49.5859 16.4053 49.5859ZM16.4053 51.1416C15.7549 51.1416 15.2275 51.3525 14.8232 51.7744C14.4248 52.1963 14.1904 52.8145 14.1201 53.6289H18.5498C18.5439 53.1426 18.4619 52.7119 18.3037 52.3369C18.1514 51.9619 17.917 51.6689 17.6006 51.458C17.29 51.2471 16.8916 51.1416 16.4053 51.1416ZM29.2109 49.7705V51.3965H24.9746V59.5H22.9004V49.7705H29.2109ZM34.9678 49.5859C35.835 49.5859 36.5791 49.7646 37.2002 50.1221C37.8213 50.4795 38.2988 50.9863 38.6328 51.6426C38.9668 52.2988 39.1338 53.084 39.1338 53.998V55.1055H32.6387C32.6621 56.0488 32.9141 56.7754 33.3945 57.2852C33.8809 57.7949 34.5605 58.0498 35.4336 58.0498C36.0547 58.0498 36.6113 57.9912 37.1035 57.874C37.6016 57.751 38.1143 57.5723 38.6416 57.3379V59.0166C38.1553 59.2451 37.6602 59.4121 37.1562 59.5176C36.6523 59.623 36.0488 59.6758 35.3457 59.6758C34.3906 59.6758 33.5498 59.4912 32.8232 59.1221C32.1025 58.7471 31.5371 58.1904 31.127 57.4521C30.7227 56.7139 30.5205 55.7969 30.5205 54.7012C30.5205 53.6113 30.7051 52.6855 31.0742 51.9238C31.4434 51.1621 31.9619 50.582 32.6299 50.1836C33.2979 49.7852 34.0771 49.5859 34.9678 49.5859ZM34.9678 51.1416C34.3174 51.1416 33.79 51.3525 33.3857 51.7744C32.9873 52.1963 32.7529 52.8145 32.6826 53.6289H37.1123C37.1064 53.1426 37.0244 52.7119 36.8662 52.3369C36.7139 51.9619 36.4795 51.6689 36.1631 51.458C35.8525 51.2471 35.4541 51.1416 34.9678 51.1416ZM46.4551 49.5859C47.6094 49.5859 48.5352 50.0078 49.2324 50.8516C49.9355 51.6953 50.2871 52.9492 50.2871 54.6133C50.2871 55.7148 50.123 56.6436 49.7949 57.3994C49.4727 58.1494 49.0186 58.7178 48.4326 59.1045C47.8525 59.4854 47.1758 59.6758 46.4023 59.6758C45.9102 59.6758 45.4824 59.6113 45.1191 59.4824C44.7559 59.3535 44.4453 59.1865 44.1875 58.9814C43.9297 58.7705 43.7129 58.542 43.5371 58.2959H43.4141C43.4434 58.5303 43.4697 58.791 43.4932 59.0781C43.5225 59.3594 43.5371 59.6172 43.5371 59.8516V63.8154H41.4629V49.7705H43.1504L43.4404 51.1152H43.5371C43.7188 50.8398 43.9385 50.585 44.1963 50.3506C44.46 50.1162 44.7764 49.9316 45.1455 49.7969C45.5205 49.6562 45.957 49.5859 46.4551 49.5859ZM45.9014 51.2734C45.333 51.2734 44.876 51.3877 44.5303 51.6162C44.1904 51.8389 43.9414 52.1758 43.7832 52.627C43.6309 53.0781 43.5488 53.6436 43.5371 54.3232V54.6133C43.5371 55.334 43.6104 55.9463 43.7568 56.4502C43.9092 56.9482 44.1582 57.3291 44.5039 57.5928C44.8555 57.8506 45.3301 57.9795 45.9277 57.9795C46.4316 57.9795 46.8477 57.8418 47.1758 57.5664C47.5098 57.291 47.7588 56.8984 47.9229 56.3887C48.0869 55.8789 48.1689 55.2783 48.1689 54.5869C48.1689 53.5381 47.9814 52.7236 47.6064 52.1436C47.2373 51.5635 46.6689 51.2734 45.9014 51.2734ZM56.4922 49.5859C57.7227 49.5859 58.6514 49.8584 59.2783 50.4033C59.9111 50.9482 60.2275 51.7979 60.2275 52.9521V59.5H58.7598L58.3643 58.1201H58.2939C58.0186 58.4717 57.7344 58.7617 57.4414 58.9902C57.1484 59.2188 56.8086 59.3887 56.4219 59.5C56.041 59.6172 55.5752 59.6758 55.0244 59.6758C54.4443 59.6758 53.9258 59.5703 53.4688 59.3594C53.0117 59.1426 52.6514 58.8145 52.3877 58.375C52.124 57.9355 51.9922 57.3789 51.9922 56.7051C51.9922 55.7031 52.3643 54.9502 53.1084 54.4463C53.8584 53.9424 54.9893 53.6641 56.501 53.6113L58.1885 53.5498V53.04C58.1885 52.3662 58.0303 51.8857 57.7139 51.5986C57.4033 51.3115 56.9639 51.168 56.3955 51.168C55.9092 51.168 55.4375 51.2383 54.9805 51.3789C54.5234 51.5195 54.0781 51.6924 53.6445 51.8975L52.9766 50.4385C53.4512 50.1865 53.9902 49.9814 54.5938 49.8232C55.2031 49.665 55.8359 49.5859 56.4922 49.5859ZM58.1797 54.8506L56.9229 54.8945C55.8916 54.9297 55.168 55.1055 54.752 55.4219C54.3359 55.7383 54.1279 56.1719 54.1279 56.7227C54.1279 57.2031 54.2715 57.5547 54.5586 57.7773C54.8457 57.9941 55.2236 58.1025 55.6924 58.1025C56.4072 58.1025 56.999 57.9004 57.4678 57.4961C57.9424 57.0859 58.1797 56.4854 58.1797 55.6943V54.8506ZM65.1934 49.7705V53.6816H69.7461V49.7705H71.8203V59.5H69.7461V55.2988H65.1934V59.5H63.1191V49.7705H65.1934Z" fill="#231F1F"/>
</svg>
